<svg width="20" height="20" viewBox="0 0 20 20" fill="none" xmlns="http://www.w3.org/2000/svg">
<path d="M18.4384 10.703C18.3005 12.3061 17.7076 13.8366 16.7294 15.1142C15.7513 16.3919 14.4286 17.3636 12.9169 17.915C11.4052 18.4664 9.76754 18.5747 8.19646 18.227C6.62538 17.8793 5.18628 17.0901 4.04848 15.9523C2.91068 14.8145 2.1215 13.3754 1.7738 11.8043C1.4261 10.2332 1.53433 8.59553 2.08577 7.08388C2.63721 5.57222 3.60892 4.2495 4.88656 3.27134C6.16421 2.29317 7.69465 1.70025 9.29782 1.56233C9.54646 1.54161 9.79315 1.62051 9.98362 1.78168C10.1741 1.94284 10.2927 2.17307 10.3134 2.42171C10.3342 2.67035 10.2553 2.91704 10.0941 3.1075C9.93294 3.29797 9.70271 3.41661 9.45407 3.43733C8.2067 3.54431 7.01584 4.00535 6.02162 4.76621C5.0274 5.52707 4.2712 6.55608 3.84199 7.73216C3.41279 8.90824 3.32845 10.1824 3.5989 11.4048C3.86935 12.6272 4.48333 13.7469 5.36859 14.6322C6.25385 15.5175 7.37356 16.1314 8.59595 16.4019C9.81833 16.6723 11.0925 16.588 12.2686 16.1588C13.4447 15.7296 14.4737 14.9734 15.2346 13.9792C15.9954 12.9849 16.4565 11.7941 16.5634 10.5467C16.5737 10.4236 16.6081 10.3037 16.6647 10.1939C16.7213 10.0841 16.799 9.98648 16.8933 9.90668C16.9876 9.82688 17.0967 9.76643 17.2144 9.7288C17.332 9.69116 17.456 9.67707 17.5791 9.68733C17.7022 9.69759 17.8221 9.732 17.9319 9.78859C18.0417 9.84519 18.1393 9.92286 18.2191 10.0172C18.2989 10.1115 18.3593 10.2206 18.397 10.3382C18.4346 10.4559 18.4487 10.5798 18.4384 10.703ZM9.06345 5.93733V9.99983C9.06345 10.2485 9.16222 10.4869 9.33803 10.6627C9.51385 10.8386 9.75231 10.9373 10.0009 10.9373H14.0634C14.3121 10.9373 14.5505 10.8386 14.7264 10.6627C14.9022 10.4869 15.0009 10.2485 15.0009 9.99983C15.0009 9.75119 14.9022 9.51274 14.7264 9.33692C14.5505 9.16111 14.3121 9.06233 14.0634 9.06233H10.9384V5.93733C10.9384 5.68869 10.8397 5.45024 10.6639 5.27442C10.488 5.09861 10.2496 4.99983 10.0009 4.99983C9.75231 4.99983 9.51385 5.09861 9.33803 5.27442C9.16222 5.45024 9.06345 5.68869 9.06345 5.93733ZM16.2509 7.49983C16.4982 7.49983 16.7398 7.42652 16.9454 7.28917C17.151 7.15182 17.3112 6.9566 17.4058 6.72819C17.5004 6.49978 17.5252 6.24845 17.4769 6.00597C17.4287 5.76349 17.3096 5.54077 17.1348 5.36595C16.96 5.19114 16.7373 5.07208 16.4948 5.02385C16.2523 4.97562 16.001 5.00038 15.7726 5.09498C15.5442 5.18959 15.349 5.34981 15.2116 5.55537C15.0743 5.76093 15.0009 6.00261 15.0009 6.24983C15.0009 6.58135 15.1326 6.8993 15.3671 7.13372C15.6015 7.36814 15.9194 7.49983 16.2509 7.49983ZM13.7509 4.99983C13.9982 4.99983 14.2398 4.92652 14.4454 4.78917C14.651 4.65182 14.8112 4.4566 14.9058 4.22819C15.0004 3.99978 15.0252 3.74845 14.9769 3.50597C14.9287 3.26349 14.8096 3.04077 14.6348 2.86595C14.46 2.69113 14.2373 2.57208 13.9948 2.52385C13.7523 2.47562 13.501 2.50037 13.2726 2.59498C13.0442 2.68959 12.849 2.84981 12.7116 3.05537C12.5743 3.26093 12.5009 3.50261 12.5009 3.74983C12.5009 4.08135 12.6326 4.3993 12.8671 4.63372C13.1015 4.86814 13.4194 4.99983 13.7509 4.99983Z" fill="#334155"/>
</svg>
