<svg width="198" height="64" viewBox="0 0 198 64" fill="none" xmlns="http://www.w3.org/2000/svg">
<path fill-rule="evenodd" clip-rule="evenodd" d="M35.1229 13.6657C34.1953 13.7894 33.4533 14.0986 32.8968 14.5933C32.3403 15.088 31.8456 15.7063 31.5364 16.4483C31.1654 17.1904 30.9799 17.9942 30.8562 18.8599C30.7326 19.7256 30.6707 20.5913 30.6707 21.457V42.543C30.6707 43.4087 30.7326 44.2744 30.8562 45.1401C30.9799 46.0058 31.2272 46.8097 31.5364 47.5517C31.8456 48.2938 32.3403 48.9121 32.8968 49.4068C33.5152 49.9015 34.2572 50.2107 35.1847 50.3343V57.0126C32.7113 56.9508 30.6707 56.4561 29.0012 55.5904C27.3316 54.7247 26.033 53.5498 24.9818 52.0657C23.9925 50.5817 23.2504 48.9121 22.8176 46.9334C22.3847 45.0165 22.1992 42.914 22.1992 40.688V23.6213C22.1992 21.3952 22.3847 19.231 22.8176 17.2522C23.2504 15.2735 23.9925 13.5421 24.9818 12.058C25.9712 10.574 27.3316 9.39907 29.0012 8.53337C30.6707 7.66767 32.7113 7.17299 35.1847 7.04932V13.6657H35.1229Z" fill="#00A3DE" stroke="#0061AF" stroke-width="0.618234" stroke-miterlimit="22.9256"/>
<path fill-rule="evenodd" clip-rule="evenodd" d="M67.4005 56.0231H59.0527V40.3168L49.7773 7.85303H57.6305L67.4005 46.8714V56.0231Z" fill="#00A3DE" stroke="#0061AF" stroke-width="0.618048" stroke-miterlimit="22.9256"/>
<path fill-rule="evenodd" clip-rule="evenodd" d="M87.0032 33.7625L85.0245 31.9074C84.097 31.1036 83.2313 30.2997 82.3656 29.434C81.4999 28.5683 80.7578 27.6408 80.0777 26.6514C79.3975 25.662 78.8409 24.549 78.4699 23.3123C78.0371 22.0755 77.8516 20.6533 77.8516 19.1074C77.8516 17.3142 78.1607 15.6446 78.7173 14.2224C79.2738 12.8002 80.1395 11.5016 81.1907 10.4504C82.2419 9.39922 83.4786 8.59535 84.9627 7.977C86.4467 7.35864 88.0545 6.98762 89.8477 6.92578V13.4804C89.2293 13.5422 88.7346 13.6659 88.3018 13.9751C87.8689 14.2224 87.4979 14.5934 87.1888 15.0263C86.8796 15.4591 86.6941 15.892 86.5086 16.4485C86.3849 17.005 86.3231 17.5615 86.3231 18.1181C86.3231 18.9219 86.4467 19.664 86.6322 20.406C86.8178 21.0862 87.1269 21.7664 87.4979 22.3847C87.869 23.0031 88.3018 23.5596 88.7965 24.1161C89.2912 24.6727 89.8477 25.1673 90.4042 25.7238C90.6516 25.9712 91.0226 26.2804 91.4554 26.7132C91.8883 27.1461 92.3211 27.5171 92.8158 27.9499L87.0032 33.7625Z" fill="#00A3DE" stroke="#0061AF" stroke-width="0.618048" stroke-miterlimit="22.9256"/>
<path fill-rule="evenodd" clip-rule="evenodd" d="M90.2187 56.9507C88.1781 56.827 86.3849 56.3942 84.9008 55.5285C83.4168 54.7246 82.1801 53.6116 81.1288 52.313C80.1395 51.0145 79.3356 49.5304 78.8409 47.8608C78.2844 46.1913 77.9752 44.4599 77.8516 42.7285L86.4467 40.9971C86.5086 41.9864 86.5704 43.0376 86.6941 44.027C86.8177 45.0164 87.0032 46.0058 87.3124 46.8096C87.5598 47.6753 87.9926 48.4174 88.4255 49.0357C88.9202 49.6541 89.5385 50.0869 90.2806 50.2724V56.9507H90.2187Z" fill="#00A3DE" stroke="#0061AF" stroke-width="0.618048" stroke-miterlimit="22.9256"/>
<path d="M127.631 7.85352H104.01V14.2844H127.631V7.85352Z" fill="#00A3DE" stroke="#0061AF" stroke-width="0.618048" stroke-miterlimit="22.9256"/>
<path d="M137.524 7.85303H128.99V56.0231H137.524V7.85303Z" fill="#00A3DE" stroke="#0061AF" stroke-width="0.618048" stroke-miterlimit="22.9256"/>
<path d="M158.238 7.85303H149.705V56.0231H158.238V7.85303Z" fill="#00A3DE" stroke="#0061AF" stroke-width="0.618048" stroke-miterlimit="22.9256"/>
<path fill-rule="evenodd" clip-rule="evenodd" d="M36.4212 6.98682C38.8946 7.04865 40.9352 7.54333 42.6048 8.47087C44.2744 9.33657 45.6347 10.5115 46.6241 11.9955C47.6135 13.4796 48.3555 15.211 48.7884 17.1897C49.2212 19.1685 49.4067 21.2709 49.4067 23.5588V40.44C49.4067 42.666 49.2212 44.7685 48.7884 46.6854C48.3555 48.6641 47.6135 50.3955 46.6241 51.8796C45.6347 53.3636 44.2744 54.5385 42.6048 55.466C40.9352 56.3936 38.8328 56.8883 36.3594 56.9501V50.2718C37.2869 50.1482 38.0289 49.839 38.6473 49.4061C39.2038 48.9115 39.6985 48.2931 40.0077 47.6129C40.3169 46.8709 40.5642 46.067 40.6879 45.2013C40.8115 44.3356 40.8734 43.4699 40.8734 42.6042V21.5182C40.8734 20.6525 40.8115 19.7868 40.6879 18.9211C40.5642 18.0554 40.3169 17.2515 40.0077 16.5095C39.6985 15.7675 39.2038 15.1491 38.6473 14.6544C38.0289 14.1598 37.2869 13.8506 36.3594 13.7269V6.98682H36.4212Z" fill="#0061AF" stroke="#0061AF" stroke-width="0.618234" stroke-miterlimit="22.9256"/>
<path fill-rule="evenodd" clip-rule="evenodd" d="M64 27.5786L67.401 7.85303H76.7382L67.401 41.2443L64 27.5786Z" fill="#0061AF" stroke="#0061AF" stroke-width="0.618048" stroke-miterlimit="22.9256"/>
<path fill-rule="evenodd" clip-rule="evenodd" d="M93.7423 28.9385L94.7316 29.8042C95.9065 30.8554 97.0196 31.9684 98.0708 33.1433C99.122 34.2563 99.9877 35.4312 100.792 36.7298C101.534 37.9665 102.152 39.3269 102.585 40.8109C103.018 42.295 103.265 43.9027 103.265 45.6341C103.265 47.3037 102.956 48.8496 102.337 50.21C101.719 51.5704 100.915 52.7452 99.864 53.7346C98.8128 54.724 97.5761 55.466 96.1539 56.0225C94.7317 56.579 93.2476 56.8882 91.6399 56.9501V50.3336C92.2582 50.2718 92.7529 50.1481 93.1858 49.9008C93.6186 49.6534 93.9896 49.3443 94.237 48.9733C94.4843 48.6022 94.6698 48.1076 94.7935 47.6129C94.9172 47.1182 94.979 46.5617 94.979 45.9433C94.979 44.9539 94.7935 43.9646 94.4843 43.037C94.1751 42.1095 93.6804 41.1819 93.1858 40.3162C92.6292 39.4505 92.0109 38.6467 91.3307 37.8428C90.6505 37.039 89.9085 36.2969 89.1664 35.6167L88.1152 34.6274L93.7423 28.9385Z" fill="#0061AF" stroke="#0061AF" stroke-width="0.618048" stroke-miterlimit="22.9256"/>
<path fill-rule="evenodd" clip-rule="evenodd" d="M91.2702 6.92529C92.9397 6.98713 94.4856 7.29631 95.846 7.91467C97.2682 8.53303 98.5049 9.39873 99.5561 10.4499C100.607 11.5011 101.411 12.7379 102.03 14.2219C102.648 15.6441 103.019 17.2519 103.081 18.9214V19.9108L94.4238 21.2712C94.4238 21.0239 94.4238 20.7765 94.4238 20.4673C94.4238 20.22 94.4238 19.9108 94.4238 19.6635C94.4238 19.0451 94.3001 18.4267 94.1764 17.7465C94.0528 17.0664 93.8673 16.5098 93.6199 15.9533C93.3726 15.3968 93.0634 14.9021 92.6305 14.4693C92.2595 14.0364 91.7648 13.7891 91.1465 13.6036V6.92529H91.2702Z" fill="#0061AF" stroke="#0061AF" stroke-width="0.618048" stroke-miterlimit="22.9256"/>
<path d="M120.146 15.644H111.551V56.0228H120.146V15.644Z" fill="#0061AF" stroke="#0061AF" stroke-width="0.618048" stroke-miterlimit="22.9256"/>
<path d="M145.252 28.0732H138.883V34.1331H145.252V28.0732Z" fill="#0061AF" stroke="#0061AF" stroke-width="0.618048" stroke-miterlimit="22.9256"/>
<path d="M148.344 7.85303H138.883V13.8511H148.344V7.85303Z" fill="#0061AF" stroke="#0061AF" stroke-width="0.618048" stroke-miterlimit="22.9256"/>
<path d="M148.344 50.0864H138.883V56.0845H148.344V50.0864Z" fill="#0061AF" stroke="#0061AF" stroke-width="0.618048" stroke-miterlimit="22.9256"/>
<path fill-rule="evenodd" clip-rule="evenodd" d="M159.598 28.1348H162.257C163.184 28.1348 163.926 27.8875 164.483 27.3928C165.039 26.8981 165.472 26.2179 165.781 25.5377C166.09 24.7957 166.276 24.0537 166.4 23.188C166.523 22.3841 166.523 21.7039 166.523 21.0856C166.523 20.4672 166.461 19.787 166.4 18.9831C166.338 18.1793 166.152 17.4372 165.843 16.7571C165.596 16.0769 165.163 15.4585 164.668 14.9638C164.174 14.4691 163.493 14.2218 162.628 14.2218H159.598V7.91455H160.773C163.06 7.91455 165.039 8.1619 166.832 8.65659C168.626 9.15127 170.11 9.89329 171.346 10.9445C172.583 11.9957 173.511 13.2943 174.129 14.8402C174.747 16.4479 175.057 18.303 175.057 20.529C175.057 21.6421 174.995 22.7551 174.933 23.8682C174.871 24.9812 174.624 26.0943 174.191 27.1455C173.82 28.1967 173.202 29.186 172.398 30.1136C171.594 31.0411 170.481 31.7832 168.997 32.4633L175.86 56.0846H167.142L161.515 33.6382H159.598V28.1348Z" fill="#0061AF" stroke="#0061AF" stroke-width="0.618048" stroke-miterlimit="22.9256"/>
</svg>
