<svg width="21" height="20" viewBox="0 0 21 20" fill="none" xmlns="http://www.w3.org/2000/svg">
<path d="M10.3524 1.03237C10.4662 0.810139 10.7838 0.810139 10.8976 1.03237L13.708 6.52101C13.7525 6.60789 13.8357 6.66835 13.9321 6.68382L20.0205 7.66058C20.2671 7.70013 20.3652 8.00219 20.189 8.17908L15.8375 12.548C15.7686 12.6172 15.7368 12.715 15.7519 12.8114L16.7044 18.9038C16.7429 19.1504 16.486 19.3371 16.2633 19.2242L10.7635 16.4357C10.6764 16.3916 10.5736 16.3916 10.4865 16.4357L4.98671 19.2242C4.76402 19.3371 4.50708 19.1504 4.54564 18.9038L5.49812 12.8114C5.5132 12.715 5.48141 12.6172 5.41253 12.548L1.06098 8.17908C0.884793 8.00219 0.982939 7.70013 1.22945 7.66058L7.31792 6.68382C7.41429 6.66835 7.49752 6.60789 7.54201 6.52101L10.3524 1.03237Z" fill="#FFD700"/>
</svg>
