<svg width="22" height="22" viewBox="0 0 22 22" fill="none" xmlns="http://www.w3.org/2000/svg">
<path d="M17.8438 5.09375H14.5625V4.4375C14.5625 3.91536 14.3551 3.4146 13.9859 3.04538C13.6167 2.67617 13.1159 2.46875 12.5938 2.46875H8.65625C8.13411 2.46875 7.63335 2.67617 7.26413 3.04538C6.89492 3.4146 6.6875 3.91536 6.6875 4.4375V5.09375H3.40625C3.05815 5.09375 2.72431 5.23203 2.47817 5.47817C2.23203 5.72431 2.09375 6.05815 2.09375 6.40625V16.9062C2.09375 17.2543 2.23203 17.5882 2.47817 17.8343C2.72431 18.0805 3.05815 18.2188 3.40625 18.2188H17.8438C18.1918 18.2188 18.5257 18.0805 18.7718 17.8343C19.018 17.5882 19.1562 17.2543 19.1562 16.9062V6.40625C19.1562 6.05815 19.018 5.72431 18.7718 5.47817C18.5257 5.23203 18.1918 5.09375 17.8438 5.09375ZM8 4.4375C8 4.26345 8.06914 4.09653 8.19221 3.97346C8.31528 3.85039 8.4822 3.78125 8.65625 3.78125H12.5938C12.7678 3.78125 12.9347 3.85039 13.0578 3.97346C13.1809 4.09653 13.25 4.26345 13.25 4.4375V5.09375H8V4.4375ZM13.25 6.40625V16.9062H8V6.40625H13.25ZM3.40625 6.40625H6.6875V16.9062H3.40625V6.40625ZM17.8438 16.9062H14.5625V6.40625H17.8438V16.9062Z" fill="#334155"/>
</svg>
