<svg width="1344" height="759" viewBox="0 0 1344 759" fill="none" xmlns="http://www.w3.org/2000/svg">
<g clip-path="url(#clip0_761_8365)">
<path d="M175.434 756.506C175.434 756.506 34.1882 586.364 103.194 411.182C148.176 296.984 316.974 234.446 412.272 296.984C452.844 323.612 583.002 297.866 652.512 187.574C787.584 -26.836 1258.95 103.406 1173.1 432.56C1131.56 591.866 1299.48 597.62 1213.93 756.884L175.434 756.506Z" fill="#EBF3FA"/>
<path d="M280.014 476.45C280.014 476.45 265.776 459.818 279.132 449.276C279.132 449.276 288.876 443.354 296.856 443.858C296.856 443.858 285.558 462.758 289.212 464.648C292.866 466.538 300.258 442.682 300.258 442.682C300.258 442.682 322.476 440.54 329.616 443.984C329.616 443.984 310.632 459.524 314.622 460.448C318.612 461.372 339.15 446.126 339.15 446.126C339.15 446.126 359.814 449.654 358.722 462.254C357.63 474.854 350.49 478.76 347.382 478.424C344.232 478.088 325.92 471.074 325.542 473.678C325.164 476.282 336.168 484.64 343.896 485.018C343.896 485.018 329.322 501.104 319.62 496.442C309.918 491.822 309.12 484.43 303.072 481.7C297.024 478.928 291.858 478.928 294.378 481.742C296.856 484.556 307.818 487.286 311.262 493.418C314.706 499.508 317.814 503.666 307.776 502.154C297.738 500.642 281.442 493.292 280.728 484.892C280.014 476.45 280.014 476.45 280.014 476.45Z" fill="#C8DBF4"/>
<path d="M348.599 462.549C348.599 462.549 292.445 460.365 280.013 476.451C280.013 476.451 277.283 484.683 268.841 492.159L267.539 495.729C267.539 495.729 277.283 485.481 280.769 484.851C280.727 484.851 275.267 464.943 348.599 462.549Z" fill="#C8DBF4"/>
<path d="M268.799 492.159C268.799 492.159 256.745 501.063 255.905 517.023L258.089 517.233C258.089 517.233 261.953 500.769 268.883 494.301C275.813 487.833 268.799 492.159 268.799 492.159Z" fill="#C8DBF4"/>
<path d="M230.202 455.535C230.202 455.535 252.882 442.851 242.298 425.631C242.298 425.631 233.856 415.047 224.784 412.317C224.784 412.317 229.614 438.021 224.784 438.609C219.954 439.197 221.466 409.587 221.466 409.587C221.466 409.587 197.61 398.121 188.244 399.003C188.244 399.003 203.07 424.077 198.198 423.489C193.368 422.901 176.736 397.491 176.736 397.491C176.736 397.491 152.25 392.955 148.344 407.445C144.396 421.935 150.78 429.201 154.392 430.125C158.004 431.049 181.272 430.713 180.684 433.737C180.096 436.761 164.388 441.591 155.61 438.861C155.61 438.861 165.27 462.717 177.954 461.541C190.638 460.323 194.586 452.469 202.44 451.881C210.294 451.293 216.048 453.393 212.1 455.493C208.152 457.593 194.88 456.207 188.538 461.583C182.196 466.959 177.072 470.319 188.832 472.713C200.634 475.149 221.76 473.637 226.002 464.565C230.202 455.535 230.202 455.535 230.202 455.535Z" fill="#C8DBF4"/>
<path d="M159.474 412.023C159.474 412.023 222.936 432.561 230.16 455.535C230.16 455.535 229.866 465.825 236.208 477.585V482.121C236.208 482.121 229.572 466.707 225.918 464.607C225.96 464.607 240.156 444.657 159.474 412.023Z" fill="#C8DBF4"/>
<path d="M236.25 477.586C236.25 477.586 246.036 492.454 240.45 510.514L237.93 509.842C237.93 509.842 240.366 489.934 235.242 479.896C230.118 469.9 236.25 477.586 236.25 477.586Z" fill="#C8DBF4"/>
<path d="M266.238 438.062C266.238 438.062 236.376 421.346 250.32 398.624C250.32 398.624 261.492 384.68 273.42 381.11C273.42 381.11 267.036 414.962 273.42 415.76C279.804 416.558 277.788 377.54 277.788 377.54C277.788 377.54 309.246 362.42 321.594 363.596C321.594 363.596 302.064 396.65 308.448 395.852C314.832 395.054 336.714 361.58 336.714 361.58C336.714 361.58 368.97 355.616 374.136 374.726C379.302 393.836 370.944 403.412 366.156 404.588C361.368 405.764 330.708 405.386 331.506 409.376C332.304 413.366 353.01 419.75 364.56 416.138C364.56 416.138 351.834 447.596 335.076 446C318.36 444.404 313.152 434.03 302.82 433.274C292.446 432.476 284.886 435.248 290.094 438.062C295.26 440.834 312.816 438.986 321.174 446.084C329.532 453.182 336.294 457.592 320.796 460.742C305.256 463.934 277.368 461.918 271.824 449.99C266.238 438.062 266.238 438.062 266.238 438.062Z" fill="#D4E4F8"/>
<path d="M359.436 380.689C359.436 380.689 275.772 407.779 266.238 438.061C266.238 438.061 266.616 451.585 258.258 467.125V473.089C258.258 473.089 267.036 452.761 271.782 449.989C271.824 449.989 253.092 423.697 359.436 380.689Z" fill="#D4E4F8"/>
<path d="M258.3 467.126C258.3 467.126 245.406 486.698 252.756 510.554L256.074 509.672C256.074 509.672 252.84 483.422 259.602 470.192C266.322 456.962 258.3 467.126 258.3 467.126Z" fill="#D4E4F8"/>
<path d="M265.23 562.256C297.528 562.256 323.736 536.048 323.736 503.75H206.724C206.724 536.048 232.932 562.256 265.23 562.256Z" fill="#D4E4F8"/>
<path d="M324.576 565.238H205.926C205.926 561.248 209.16 558.014 213.15 558.014H317.352C321.342 558.014 324.576 561.248 324.576 565.238Z" fill="#D4E4F8"/>
<path d="M325.08 503.75H204.792V505.556H325.08V503.75Z" fill="#9FC1F4"/>
<path d="M567.21 755.287H567.504C569.856 755.245 571.704 753.313 571.452 751.087L555.66 593.545L541.884 594.763L564.522 753.145C564.732 754.405 565.866 755.287 567.21 755.287Z" fill="#8CB4F4"/>
<path d="M415.296 755.287H415.002C412.65 755.245 410.802 753.313 411.054 751.087L426.846 593.545L440.622 594.763L417.984 753.145C417.774 754.405 416.64 755.287 415.296 755.287Z" fill="#8CB4F4"/>
<path d="M678.468 755.287H678.762C681.114 755.245 682.962 753.313 682.71 751.087L666.918 593.545L653.142 594.763L675.78 753.145C676.032 754.405 677.166 755.287 678.468 755.287Z" fill="#8CB4F4"/>
<path d="M420 570.614L391.986 432.35C388.374 413.618 403.914 396.524 424.032 396.986L478.044 398.204C496.692 398.624 512.862 411.098 518.028 428.99L558.978 570.614H420Z" fill="#8CB4F4"/>
<path d="M436.926 570.614L408.912 432.35C405.3 413.618 420.84 396.524 440.958 396.986L494.97 398.204C513.618 398.624 529.788 411.098 534.954 428.99L575.904 570.614H436.926Z" fill="#8CB4F4"/>
<path d="M427.812 595.855H641.466C645.75 595.855 649.278 592.327 649.278 588.043V578.425C649.278 574.141 645.75 570.613 641.466 570.613H420V588.043C420 592.327 423.528 595.855 427.812 595.855Z" fill="#8CB4F4"/>
<path d="M528.066 595.855H664.272C667.716 595.855 670.572 593.041 670.572 589.555V576.913C670.572 573.469 667.758 570.613 664.272 570.613H528.066C524.622 570.613 521.766 573.427 521.766 576.913V589.555C521.766 592.999 524.622 595.855 528.066 595.855Z" fill="#8CB4F4"/>
<path d="M356.244 568.808V573.512C356.244 575.15 355.698 576.494 355.068 576.494H182.952C182.28 576.494 181.776 575.15 181.776 573.512V568.808C181.776 567.17 182.322 565.826 182.952 565.826H355.11C355.74 565.826 356.244 567.17 356.244 568.808Z" fill="#9ABFE2"/>
<path d="M356.245 568.808V573.512C356.245 575.15 355.741 576.494 355.153 576.494H218.527C217.939 576.494 217.435 575.15 217.435 573.512V568.808C217.435 567.17 217.939 565.826 218.527 565.826H355.195C355.783 565.826 356.245 567.17 356.245 568.808Z" fill="#BAD4F4"/>
<path d="M312.691 576.537H190.471V754.659H312.691V576.537Z" fill="#C8DBF4"/>
<path d="M346.962 576.537H224.742V754.659H346.962V576.537Z" fill="#DFEBFD"/>
<path d="M340.369 744.83H231.295V581.576H340.369V744.83ZM232.471 743.654H339.193V582.752H232.471V743.654Z" fill="#B7D3F3"/>
<path d="M339.781 635.588H231.883V636.764H339.781V635.588Z" fill="#B7D3F3"/>
<path d="M339.781 690.65H231.883V691.826H339.781V690.65Z" fill="#B7D3F3"/>
<path d="M296.899 592.118H276.865C275.899 592.118 275.101 591.32 275.101 590.354C275.101 589.388 275.899 588.59 276.865 588.59H296.899C297.865 588.59 298.663 589.388 298.663 590.354C298.663 591.32 297.865 592.118 296.899 592.118Z" fill="#B7D3F3"/>
<path d="M296.899 645.962H276.865C275.899 645.962 275.101 645.164 275.101 644.198C275.101 643.232 275.899 642.434 276.865 642.434H296.899C297.865 642.434 298.663 643.232 298.663 644.198C298.663 645.164 297.865 645.962 296.899 645.962Z" fill="#B7D3F3"/>
<path d="M296.899 702.075H276.865C275.899 702.075 275.101 701.277 275.101 700.311C275.101 699.345 275.899 698.547 276.865 698.547H296.899C297.865 698.547 298.663 699.345 298.663 700.311C298.663 701.277 297.865 702.075 296.899 702.075Z" fill="#B7D3F3"/>
<path d="M836.01 256.286H758.562C754.992 256.286 752.094 253.388 752.094 249.818V175.058C752.094 171.488 754.992 168.59 758.562 168.59H836.01C839.58 168.59 842.478 171.488 842.478 175.058V249.818C842.478 253.388 839.58 256.286 836.01 256.286Z" fill="#C0D8FB"/>
<path d="M832.65 252.463H761.88C758.646 252.463 755.958 249.817 755.958 246.541V178.291C755.958 175.057 758.604 172.369 761.88 172.369H832.65C835.884 172.369 838.572 175.015 838.572 178.291V246.583C838.572 249.817 835.926 252.463 832.65 252.463Z" fill="#DFEBFD"/>
<path d="M797.286 182.282C798.329 182.282 799.176 181.436 799.176 180.392C799.176 179.348 798.329 178.502 797.286 178.502C796.242 178.502 795.396 179.348 795.396 180.392C795.396 181.436 796.242 182.282 797.286 182.282Z" fill="#B7D3F3"/>
<path d="M810.516 183.038C811.02 182.114 812.154 181.82 813.078 182.324C814.002 182.828 814.296 183.962 813.792 184.886C813.288 185.81 812.154 186.104 811.23 185.6C810.348 185.054 810.012 183.92 810.516 183.038Z" fill="#B7D3F3"/>
<path d="M823.451 193.328C824.333 192.782 825.467 193.034 826.055 193.874C826.601 194.756 826.349 195.89 825.509 196.478C824.627 197.024 823.493 196.772 822.905 195.932C822.359 195.05 822.611 193.874 823.451 193.328Z" fill="#B7D3F3"/>
<path d="M829.877 209.246C830.927 209.246 831.767 210.086 831.767 211.136C831.767 212.186 830.927 213.026 829.877 213.026C828.827 213.026 827.987 212.186 827.987 211.136C827.987 210.086 828.827 209.246 829.877 209.246Z" fill="#B7D3F3"/>
<path d="M826.601 227.684C827.315 228.398 827.315 229.616 826.601 230.33C825.887 231.044 824.669 231.044 823.955 230.33C823.241 229.616 823.241 228.398 823.955 227.684C824.669 226.97 825.887 226.97 826.601 227.684Z" fill="#B7D3F3"/>
<path d="M814.842 239.487C815.556 240.201 815.556 241.419 814.842 242.133C814.128 242.847 812.91 242.847 812.196 242.133C811.482 241.419 811.482 240.201 812.196 239.487C812.91 238.773 814.128 238.773 814.842 239.487Z" fill="#B7D3F3"/>
<path d="M795.396 245.576C795.396 244.526 796.236 243.686 797.286 243.686C798.336 243.686 799.176 244.526 799.176 245.576C799.176 246.626 798.336 247.466 797.286 247.466C796.236 247.424 795.396 246.584 795.396 245.576Z" fill="#B7D3F3"/>
<path d="M783.971 183.038C783.467 182.114 782.333 181.82 781.409 182.324C780.485 182.828 780.191 183.962 780.695 184.886C781.199 185.81 782.333 186.104 783.257 185.6C784.181 185.054 784.475 183.92 783.971 183.038Z" fill="#B7D3F3"/>
<path d="M771.036 193.328C770.154 192.782 769.02 193.034 768.432 193.874C767.886 194.756 768.138 195.89 768.978 196.478C769.86 197.024 770.994 196.772 771.582 195.932C772.17 195.05 771.918 193.874 771.036 193.328Z" fill="#B7D3F3"/>
<path d="M764.652 209.246C763.602 209.246 762.762 210.086 762.762 211.136C762.762 212.186 763.602 213.026 764.652 213.026C765.702 213.026 766.542 212.186 766.542 211.136C766.5 210.086 765.66 209.246 764.652 209.246Z" fill="#B7D3F3"/>
<path d="M767.886 227.684C767.172 228.398 767.172 229.616 767.886 230.33C768.6 231.044 769.818 231.044 770.532 230.33C771.246 229.616 771.246 228.398 770.532 227.684C769.818 226.97 768.642 226.97 767.886 227.684Z" fill="#B7D3F3"/>
<path d="M780.99 242.719C782.033 242.719 782.88 241.873 782.88 240.829C782.88 239.786 782.033 238.939 780.99 238.939C779.946 238.939 779.1 239.786 779.1 240.829C779.1 241.873 779.946 242.719 780.99 242.719Z" fill="#B7D3F3"/>
<path d="M796.782 211.093C796.782 210.043 797.622 209.203 798.672 209.203C799.722 209.203 800.562 210.043 800.562 211.093C800.562 212.143 799.722 212.983 798.672 212.983C797.622 212.983 796.782 212.143 796.782 211.093Z" fill="#B7D3F3"/>
<path d="M798.882 187.699H798.378V211.093H798.882V187.699Z" fill="#B7D3F3"/>
<path d="M810.34 200.708L797.951 210.434L798.911 211.656L811.3 201.93L810.34 200.708Z" fill="#B7D3F3"/>
<path d="M606.102 541.677C594.552 561.795 580.02 569.565 580.02 569.565H519.54C519.54 569.565 614.922 526.347 606.102 541.677Z" fill="#233862"/>
<path d="M680.694 741.553C680.022 747.895 688.884 749.533 699.09 750.163C709.338 750.793 706.188 752.851 720.216 755.539C734.202 758.227 739.872 754.447 740.922 752.557C741.846 750.877 735.336 748.189 728.406 745.123C727.524 744.745 726.642 744.367 725.802 743.947C718.032 740.419 713.706 733.363 707.658 726.769C701.946 720.553 696.654 700.729 696.654 700.729L677.628 696.445C677.628 696.445 682.794 714.253 684.558 721.855C685.608 726.307 683.928 731.305 682.458 735.085C681.744 737.185 680.946 739.285 680.694 741.553Z" fill="#FFB27D"/>
<path d="M699.132 750.121C709.38 750.751 706.23 752.809 720.258 755.497C734.244 758.185 739.914 754.405 740.964 752.515C741.888 750.835 735.378 748.147 728.448 745.081L728.322 745.207C728.322 745.207 718.41 748.441 707.07 745.249C697.83 742.645 688.884 736.975 682.5 735.127C681.702 737.185 680.904 739.285 680.694 741.511C680.064 747.895 688.884 749.533 699.132 750.121Z" fill="#0F2549"/>
<path d="M651.881 521.096C641.633 513.914 573.929 501.104 539.363 497.366L501.143 464.186C501.143 464.186 468.635 512.36 468.383 549.194C468.257 566.372 476.195 568.094 476.195 568.094C476.195 568.094 598.667 569.018 604.043 569.563C612.821 570.488 624.413 592.37 627.311 612.278C630.209 632.228 681.281 713.288 681.281 713.288C681.281 713.288 691.949 716.69 696.863 716.396C702.155 716.102 704.591 714.296 704.591 714.296C704.591 714.296 674.981 537.308 651.881 521.096Z" fill="#233862"/>
<path d="M649.026 741.553C648.354 747.895 657.216 749.533 667.422 750.163C677.67 750.793 674.52 752.851 688.548 755.539C702.576 758.227 708.204 754.447 709.254 752.557C710.178 750.877 703.668 748.189 696.738 745.123C695.856 744.745 694.974 744.367 694.134 743.947C686.364 740.419 682.038 733.363 675.99 726.769C670.278 720.553 664.986 700.729 664.986 700.729L645.96 696.445C645.96 696.445 651.126 714.253 652.89 721.855C653.94 726.307 652.26 731.305 650.79 735.085C650.076 737.185 649.236 739.285 649.026 741.553Z" fill="#FFB27D"/>
<path d="M667.422 750.121C677.67 750.751 674.52 752.809 688.548 755.497C702.576 758.185 708.204 754.405 709.254 752.515C710.178 750.835 703.668 748.147 696.738 745.081L696.612 745.207C696.612 745.207 686.7 748.441 675.36 745.249C666.12 742.645 657.174 736.975 650.79 735.127C649.992 737.185 649.194 739.285 648.984 741.511C648.354 747.895 657.216 749.533 667.422 750.121Z" fill="#233862"/>
<path d="M619.919 521.096C611.015 514.838 584.261 510.008 554.735 506.396C546.587 505.388 539.867 499.466 537.851 491.486L469.181 464.186C469.181 464.186 436.673 512.36 436.421 549.194C436.295 566.372 444.233 568.094 444.233 568.094C444.233 568.094 566.705 569.018 572.081 569.563C580.859 570.488 592.451 592.37 595.349 612.278C598.247 632.228 649.319 713.288 649.319 713.288C649.319 713.288 659.987 716.69 664.901 716.396C670.193 716.102 672.629 714.296 672.629 714.296C672.629 714.296 643.019 537.308 619.919 521.096Z" fill="#2B478B"/>
<path d="M527.982 264.098C518.532 259.142 504.168 258.47 501.858 258.176C473.928 254.438 457.128 295.01 456.162 307.274C454.356 329.954 442.344 333.398 425.46 347.594C391.608 376.07 401.562 409.124 420.042 421.388C431.13 428.78 450.702 421.388 450.702 421.388C450.996 421.598 504.21 391.652 530.46 377.204C569.814 371.576 552.048 276.74 527.982 264.098Z" fill="#233862"/>
<path d="M522.186 363.217C522.312 363.259 509.796 368.971 500.724 365.989C492.198 363.175 484.722 350.365 484.848 350.365C488.544 349.819 492.282 346.207 493.332 324.619L494.97 325.039L522.48 331.969C522.48 331.969 521.388 340.663 520.926 348.895C520.548 355.825 520.632 362.419 522.186 363.217Z" fill="#FFB27D"/>
<path d="M522.48 331.971C522.48 331.971 522.48 333.777 521.472 341.883C505.932 337.977 499.044 332.811 494.214 326.889L522.48 331.971Z" fill="#ED975D"/>
<path d="M528.318 333.063C528.318 333.063 491.946 338.985 488.628 316.263C485.31 293.583 478.338 279.051 501.438 274.305C524.496 269.559 530.292 277.581 533.274 284.889C536.214 292.197 537.726 330.921 528.318 333.063Z" fill="#FFB27D"/>
<path d="M528.36 273.381C528.36 273.381 511.854 299.463 497.112 305.637C482.37 311.811 475.146 308.661 475.146 308.661C475.146 308.661 481.866 298.497 483.588 284.847C484.092 280.815 486.738 277.371 490.476 275.859C501.06 271.617 521.514 264.939 528.36 273.381Z" fill="#233862"/>
<path d="M513.87 275.899C513.87 275.899 523.53 280.855 527.52 285.517C531.384 290.011 535.794 302.191 535.5 307.651C535.5 307.651 540.288 281.443 530.334 272.455C519.792 262.879 513.87 275.899 513.87 275.899Z" fill="#233862"/>
<path d="M551.25 418.7C550.158 492.62 550.956 477.164 542.85 484.178C540.918 485.858 535.416 486.866 528.234 487.328C505.554 488.84 465.738 485.102 464.226 480.902C459.018 466.412 462.672 461.918 458.346 439.7C457.884 437.348 457.338 434.786 456.666 432.014C453.012 416.768 449.484 411.602 462.378 387.116C474.096 364.94 487.83 346.922 488.922 347.594C519.792 365.906 520.842 350.576 520.842 350.576C520.842 350.576 551.796 382.622 551.25 418.7Z" fill="white"/>
<path d="M520.842 350.576C520.842 350.576 552.426 355.952 556.164 369.602C559.902 383.294 581.826 463.682 581.826 463.682C581.826 463.682 565.698 466.58 558.222 459.104C550.746 451.628 532.266 389.888 532.266 389.888L520.842 350.576Z" fill="white"/>
<path d="M528.234 487.328C505.554 488.84 465.738 485.102 464.226 480.902C459.018 466.412 462.672 461.918 458.346 439.7L469.266 408.914C469.266 408.914 467.46 443.186 477.582 452.216C487.662 461.246 518.952 469.604 523.866 477.164C526.218 480.818 527.814 484.43 528.234 487.328Z" fill="#EBF3FF"/>
<path d="M502.278 472.922C502.278 472.922 524.622 467.924 528.234 469.94C531.846 471.914 540.666 479.138 541.758 481.658C542.85 484.178 533.736 479.768 530.754 478.97C528.822 478.466 523.782 480.23 521.262 481.07C510.72 484.598 504.252 482.792 504.252 482.792L502.278 472.922Z" fill="#FFB27D"/>
<path d="M488.922 347.594C488.922 347.594 457.296 349.442 446.88 363.932C432.264 384.344 403.242 471.284 419.874 482.876C438.606 495.938 505.133 486.278 505.133 486.278C505.133 486.278 507.36 475.946 504.252 470.906C501.186 465.908 451.121 457.802 448.812 455.492C446.501 453.182 477.666 410.468 477.666 403.538C477.708 396.65 488.922 347.594 488.922 347.594Z" fill="white"/>
<path d="M529.326 476.156C529.326 476.156 534.03 482.204 535.542 482.918C537.054 483.632 538.062 483.464 538.062 483.464L534.912 477.794L529.326 476.156Z" fill="#FFB27D"/>
<path d="M528.233 469.939L541.841 476.533C541.841 476.533 541.253 477.499 539.573 477.415C537.893 477.331 533.651 475.777 533.651 475.777L528.233 469.939Z" fill="#FFB27D"/>
<path d="M578.424 485.606H515.172C515.172 482.834 517.44 480.566 520.212 480.566H578.424V485.606Z" fill="#E0B3B3"/>
<path d="M578.255 416.727H676.031L652.595 485.607H554.147L578.255 416.727Z" fill="#E0B3B3"/>
<path d="M677.502 416.727L654.024 485.607H555.576L579.684 416.727H677.502Z" fill="#FFCFCF"/>
<path d="M624.75 450.537C624.162 453.183 621.516 455.283 618.87 455.283C616.224 455.283 614.586 453.141 615.216 450.537C615.804 447.891 618.45 445.791 621.096 445.791C623.742 445.791 625.38 447.891 624.75 450.537Z" fill="white"/>
<path d="M493.29 501.104H921.9C923.706 501.104 925.176 499.634 925.176 497.828V488.84C925.176 487.034 923.706 485.564 921.9 485.564H493.29C491.484 485.564 490.014 487.034 490.014 488.84V497.828C490.014 499.634 491.484 501.104 493.29 501.104Z" fill="#182D4F"/>
<path d="M932.4 756.423L932.568 756.381C934.752 756.129 936.306 754.155 936.054 752.013L897.876 493.461L883.89 493.881L928.83 753.819C929.124 755.499 930.678 756.633 932.4 756.423Z" fill="#182D4F"/>
<path d="M478.926 756.423L478.758 756.381C476.574 756.129 475.02 754.155 475.272 752.013L513.45 493.461L527.436 493.881L482.496 753.819C482.244 755.499 480.648 756.633 478.926 756.423Z" fill="#182D4F"/>
<path d="M567.378 756.423L567.21 756.381C565.026 756.129 563.472 754.155 563.724 752.013L601.902 493.461L615.888 493.881L570.948 753.819C570.654 755.499 569.1 756.633 567.378 756.423Z" fill="#182D4F"/>
<path d="M1272.89 758.563H85.848C84.966 758.563 84.21 757.849 84.21 756.925V755.581C84.21 754.699 84.924 753.943 85.848 753.943H1272.89C1273.78 753.943 1274.53 754.657 1274.53 755.581V756.925C1274.49 757.849 1273.78 758.563 1272.89 758.563Z" fill="#2E3552"/>
<path d="M792.708 756.211H868.518C872.172 751.759 870.828 735.337 870.282 730.003C870.156 728.911 870.072 728.281 870.072 728.281C870.072 728.281 844.2 707.575 840.63 723.451C840.504 723.955 840.378 724.417 840.252 724.921C835.758 739.747 815.682 746.467 804.09 748.357C796.53 749.575 793.716 753.481 792.708 756.211Z" fill="#233862"/>
<path d="M999.517 509.965C996.787 509.965 869.695 533.821 848.653 559.861C838.153 572.881 836.599 722.989 836.599 722.989C836.599 722.989 849.577 739.117 877.633 729.751C877.633 729.751 898.213 627.019 896.701 595.897C896.281 587.287 983.515 594.637 999.517 590.521C1015.52 586.405 1054.49 551.629 1045.93 534.703C1037.32 517.735 999.517 509.965 999.517 509.965Z" fill="#233862"/>
<path d="M849.199 473.174C849.199 473.174 823.579 473.51 817.489 476.114C811.399 478.718 799.135 484.682 802.411 485.606C805.687 486.53 821.395 485.228 824.797 485.732C828.199 486.236 832.357 485.606 834.457 485.606C836.515 485.606 846.217 485.606 846.217 485.606L849.199 473.174Z" fill="#9B623B"/>
<path d="M819.21 411.643C819.21 411.643 810.474 405.385 801.99 404.167C797.16 403.495 792.456 402.613 789.6 401.605C781.788 398.833 766.08 384.763 767.298 383.083C771.078 377.791 789.39 389.005 792.582 387.787C795.774 386.569 786.45 379.933 789.684 377.623C791.364 376.405 795.354 382.495 798.588 383.125C802.956 383.965 806.4 390.139 807.702 390.475C810.264 391.105 821.52 399.463 821.52 399.463L819.21 411.643Z" fill="#9B623B"/>
<path d="M986.833 338.73C986.833 338.73 967.303 344.778 948.109 397.74C928.873 450.702 921.565 453.558 914.593 455.616C907.621 457.674 846.259 469.896 846.259 469.896V485.604H940.801C940.801 485.604 976.249 451.878 986.875 429.198C997.459 406.476 986.833 338.73 986.833 338.73Z" fill="#E0B3B3"/>
<path d="M759.192 756.211H835.002C838.656 751.759 837.312 735.337 836.766 730.003C836.64 728.911 836.556 728.281 836.556 728.281C836.556 728.281 810.684 707.575 807.114 723.451C806.988 723.955 806.862 724.417 806.736 724.921C802.242 739.747 782.166 746.467 770.574 748.357C763.014 749.575 760.242 753.481 759.192 756.211Z" fill="#1B3051"/>
<path d="M962.052 509.965C959.322 509.965 832.23 533.821 811.188 559.861C800.688 572.881 799.134 722.989 799.134 722.989C799.134 722.989 812.112 739.117 840.168 729.751C840.168 729.751 860.748 627.019 859.236 595.897C858.816 587.287 946.05 594.637 962.052 590.521C978.012 586.405 1017.03 551.629 1008.46 534.703C999.852 517.735 962.052 509.965 962.052 509.965Z" fill="#2B478B"/>
<path d="M969.99 355.489C979.146 354.733 988.722 352.297 996.996 349.609C1007.37 346.249 1015.69 341.335 1010.31 331.885C1005.35 323.149 997.332 303.661 997.878 287.533L978.6 303.073L965.496 313.615C965.496 313.615 965.538 319.831 966.966 330.751C967.218 332.725 967.554 334.867 967.89 337.177C968.184 339.025 967.344 340.873 965.748 341.881C965.664 341.923 965.538 342.007 965.454 342.049C958.986 346.123 962.346 356.119 969.99 355.489Z" fill="#9B623B"/>
<path d="M965.538 311.053C965.538 311.053 964.867 313.321 966.001 321.637C977.677 319.747 988.597 310.423 988.597 310.423C982.675 308.785 980.491 302.359 976.081 302.989L965.538 311.053Z" fill="#5C3418"/>
<path d="M954.745 312.943C954.745 312.943 999.643 320.419 1003.84 292.363C1008.04 264.349 1016.69 246.415 988.219 240.493C959.743 234.529 952.561 244.399 948.865 253.429C945.169 262.417 943.195 310.297 954.745 312.943Z" fill="#9B623B"/>
<path d="M942.27 240.997C940.338 247.759 945.504 255.949 954.156 258.679C967.008 262.711 964.152 278.461 969.948 278.251C975.744 278.041 978.054 269.179 983.22 276.277C987.63 282.325 979.566 289.465 980.112 292.783C981.078 298.453 989.94 310.087 997.962 309.499C1005.98 308.911 1020.98 270.817 1018 259.057C1015.01 247.255 1003 234.865 991.662 233.143C980.322 231.421 964.53 236.335 960.876 236.335C957.222 236.335 943.278 237.343 942.27 240.997Z" fill="#181715"/>
<path d="M1046.47 377.623C1040 351.499 1022.07 324.115 1009.93 324.115C989.269 324.157 959.575 329.617 947.563 359.185C938.743 380.983 926.941 506.311 940.255 515.215C970.705 535.585 1041.26 577.207 1053.78 534.787C1065.29 495.937 1057.77 422.941 1046.47 377.623Z" fill="#FFCFCF"/>
<path d="M996.325 351.625C990.445 336.295 971.419 331.003 958.441 341.083C951.427 346.543 942.859 354.313 932.485 365.359C893.929 406.435 886.075 406.183 878.851 405.301C871.627 404.461 810.433 391.483 810.433 391.483C810.433 391.483 807.283 393.793 805.435 397.531C802.957 402.529 804.217 405.931 804.217 405.931C801.823 404.377 825.889 420.967 837.901 427.603C853.735 436.339 877.591 444.529 887.083 447.637C889.771 448.519 892.669 448.477 895.357 447.511C909.469 442.429 956.803 423.907 995.359 391.777C1005.52 383.293 1001.78 365.863 996.325 351.625Z" fill="#FFCFCF"/>
<path d="M1012.03 324.366L1007.37 313.824C1007.37 313.824 965.496 317.226 958.44 341.082C958.44 341.082 990.906 324.912 1012.03 324.366Z" fill="white"/>
<path d="M1113.67 755.287H1113.97C1116.32 755.245 1118.17 753.313 1117.91 751.087L1102.12 593.545L1088.35 594.763L1110.98 753.145C1111.24 754.405 1112.37 755.287 1113.67 755.287Z" fill="#8CB4F4"/>
<path d="M1032.49 755.287H1032.78C1035.13 755.245 1036.98 753.313 1036.73 751.087L1020.94 593.545L1007.16 594.763L1029.8 753.145C1030.05 754.405 1031.18 755.287 1032.49 755.287Z" fill="#8CB4F4"/>
<path d="M880.068 755.287H879.774C877.422 755.245 875.574 753.313 875.826 751.087L891.618 593.545L905.394 594.763L882.756 753.145C882.546 754.405 881.412 755.287 880.068 755.287Z" fill="#73A2E5"/>
<path d="M1109.22 571.243L1124.17 439.657C1126.15 420.715 1119.8 402.151 1092.42 400.681L1044.29 397.741C1015.77 396.565 1002.88 420.295 999.264 438.607L970.704 583.255L1109.22 571.243Z" fill="#8CB4F4"/>
<path d="M1101.2 595.855H887.543C883.259 595.855 879.731 592.327 879.731 588.043V578.425C879.731 574.141 883.259 570.613 887.543 570.613H1108.97V588.043C1109.01 592.327 1105.48 595.855 1101.2 595.855Z" fill="#73A2E5"/>
<path d="M1102.92 595.856H976.794C973.476 595.856 970.746 593.126 970.746 589.808V576.704C970.746 573.386 973.476 570.656 976.794 570.656H1109.01V589.808C1109.01 593.126 1106.28 595.856 1102.92 595.856Z" fill="#8CB4F4"/>
<path d="M117.896 225.48C116.253 225.48 114.728 225.181 113.32 224.584C111.912 223.987 110.675 223.155 109.608 222.088C108.563 221.021 107.741 219.763 107.144 218.312C106.568 216.84 106.28 215.24 106.28 213.512C106.28 211.805 106.557 210.237 107.112 208.808C107.688 207.357 108.488 206.088 109.512 205C110.536 203.891 111.741 203.037 113.128 202.44C114.536 201.843 116.072 201.544 117.736 201.544C119.741 201.544 121.501 201.917 123.016 202.664C124.531 203.411 125.789 204.413 126.792 205.672C127.795 206.931 128.509 208.339 128.936 209.896H126.216C125.896 208.744 125.363 207.699 124.616 206.76C123.869 205.821 122.909 205.075 121.736 204.52C120.584 203.965 119.229 203.688 117.672 203.688C115.923 203.688 114.376 204.115 113.032 204.968C111.688 205.8 110.632 206.952 109.864 208.424C109.117 209.896 108.744 211.603 108.744 213.544C108.744 215.421 109.128 217.107 109.896 218.6C110.664 220.093 111.741 221.267 113.128 222.12C114.515 222.973 116.125 223.4 117.96 223.4C119.624 223.4 121.075 223.08 122.312 222.44C123.549 221.779 124.541 220.851 125.288 219.656C126.056 218.461 126.536 217.064 126.728 215.464H117.704V213.512H129.224C129.224 215.325 128.947 216.968 128.392 218.44C127.859 219.912 127.091 221.181 126.088 222.248C125.085 223.293 123.891 224.093 122.504 224.648C121.139 225.203 119.603 225.48 117.896 225.48ZM143.716 218.216V208.136H145.924V225H143.844V221.96C143.417 222.941 142.724 223.752 141.764 224.392C140.804 225.011 139.705 225.32 138.468 225.32C137.337 225.32 136.335 225.107 135.46 224.68C134.607 224.232 133.945 223.549 133.476 222.632C133.007 221.693 132.772 220.52 132.772 219.112V208.136H135.012V218.632C135.012 220.339 135.396 221.565 136.164 222.312C136.932 223.037 137.903 223.4 139.076 223.4C139.972 223.4 140.761 223.176 141.444 222.728C142.148 222.28 142.703 221.661 143.108 220.872C143.513 220.083 143.716 219.197 143.716 218.216ZM153.016 225H150.776V208.136H153.016V225ZM153.688 204.232C153.688 204.723 153.517 205.128 153.176 205.448C152.856 205.768 152.418 205.928 151.864 205.928C151.352 205.928 150.925 205.768 150.584 205.448C150.242 205.128 150.072 204.723 150.072 204.232C150.072 203.741 150.242 203.347 150.584 203.048C150.925 202.728 151.352 202.568 151.864 202.568C152.418 202.568 152.856 202.728 153.176 203.048C153.517 203.347 153.688 203.741 153.688 204.232ZM156.622 216.552C156.622 214.824 156.92 213.309 157.518 212.008C158.136 210.685 159 209.661 160.11 208.936C161.219 208.189 162.531 207.816 164.046 207.816C165.304 207.816 166.446 208.157 167.47 208.84C168.494 209.501 169.283 210.44 169.838 211.656V202.024H172.078V225H169.998V221.448C169.4 222.664 168.579 223.613 167.534 224.296C166.51 224.979 165.347 225.32 164.046 225.32C162.531 225.32 161.219 224.957 160.11 224.232C159 223.485 158.136 222.451 157.518 221.128C156.92 219.805 156.622 218.28 156.622 216.552ZM158.894 216.552C158.894 218.707 159.395 220.381 160.398 221.576C161.4 222.771 162.723 223.368 164.366 223.368C165.475 223.368 166.435 223.091 167.246 222.536C168.078 221.981 168.718 221.192 169.166 220.168C169.635 219.123 169.87 217.896 169.87 216.488C169.87 215.08 169.624 213.875 169.134 212.872C168.664 211.869 168.014 211.101 167.182 210.568C166.371 210.035 165.432 209.768 164.366 209.768C162.723 209.768 161.4 210.365 160.398 211.56C159.395 212.755 158.894 214.419 158.894 216.552ZM183.556 225.32C181.977 225.32 180.591 224.957 179.396 224.232C178.223 223.485 177.305 222.44 176.644 221.096C176.004 219.752 175.684 218.195 175.684 216.424C175.684 214.781 176.015 213.32 176.676 212.04C177.359 210.739 178.276 209.715 179.428 208.968C180.601 208.2 181.935 207.816 183.428 207.816C184.623 207.816 185.7 208.051 186.66 208.52C187.641 208.968 188.463 209.608 189.124 210.44C189.807 211.272 190.308 212.253 190.628 213.384C190.969 214.493 191.087 215.731 190.98 217.096H176.9V215.56H188.644C188.559 213.661 188.047 212.189 187.108 211.144C186.191 210.077 184.953 209.544 183.396 209.544C182.308 209.544 181.348 209.832 180.516 210.408C179.705 210.963 179.065 211.752 178.596 212.776C178.127 213.8 177.892 215.016 177.892 216.424C177.892 217.875 178.116 219.144 178.564 220.232C179.012 221.299 179.652 222.12 180.484 222.696C181.337 223.272 182.351 223.56 183.524 223.56C184.932 223.56 186.095 223.187 187.012 222.44C187.951 221.672 188.559 220.627 188.836 219.304H191.044C190.66 221.16 189.796 222.632 188.452 223.72C187.129 224.787 185.497 225.32 183.556 225.32ZM193.122 216.552C193.122 214.824 193.42 213.309 194.018 212.008C194.636 210.685 195.5 209.661 196.61 208.936C197.719 208.189 199.031 207.816 200.546 207.816C201.804 207.816 202.946 208.157 203.97 208.84C204.994 209.501 205.783 210.44 206.338 211.656V202.024H208.578V225H206.498V221.448C205.9 222.664 205.079 223.613 204.034 224.296C203.01 224.979 201.847 225.32 200.546 225.32C199.031 225.32 197.719 224.957 196.61 224.232C195.5 223.485 194.636 222.451 194.018 221.128C193.42 219.805 193.122 218.28 193.122 216.552ZM195.394 216.552C195.394 218.707 195.895 220.381 196.898 221.576C197.9 222.771 199.223 223.368 200.866 223.368C201.975 223.368 202.935 223.091 203.746 222.536C204.578 221.981 205.218 221.192 205.666 220.168C206.135 219.123 206.37 217.896 206.37 216.488C206.37 215.08 206.124 213.875 205.634 212.872C205.164 211.869 204.514 211.101 203.682 210.568C202.871 210.035 201.932 209.768 200.866 209.768C199.223 209.768 197.9 210.365 196.898 211.56C195.895 212.755 195.394 214.419 195.394 216.552ZM226.744 225.32C225.165 225.32 223.778 224.957 222.584 224.232C221.41 223.485 220.493 222.44 219.832 221.096C219.192 219.752 218.872 218.195 218.872 216.424C218.872 214.781 219.202 213.32 219.864 212.04C220.546 210.739 221.464 209.715 222.616 208.968C223.789 208.2 225.122 207.816 226.616 207.816C227.81 207.816 228.888 208.051 229.848 208.52C230.829 208.968 231.65 209.608 232.312 210.44C232.994 211.272 233.496 212.253 233.816 213.384C234.157 214.493 234.274 215.731 234.168 217.096H220.088V215.56H231.832C231.746 213.661 231.234 212.189 230.296 211.144C229.378 210.077 228.141 209.544 226.584 209.544C225.496 209.544 224.536 209.832 223.704 210.408C222.893 210.963 222.253 211.752 221.784 212.776C221.314 213.8 221.08 215.016 221.08 216.424C221.08 217.875 221.304 219.144 221.752 220.232C222.2 221.299 222.84 222.12 223.672 222.696C224.525 223.272 225.538 223.56 226.712 223.56C228.12 223.56 229.282 223.187 230.2 222.44C231.138 221.672 231.746 220.627 232.024 219.304H234.232C233.848 221.16 232.984 222.632 231.64 223.72C230.317 224.787 228.685 225.32 226.744 225.32ZM250.362 208.136L243.866 225H241.53L235.098 208.136H237.498L242.778 222.376L248.058 208.136H250.362ZM259.087 225.32C257.509 225.32 256.122 224.957 254.927 224.232C253.754 223.485 252.837 222.44 252.175 221.096C251.535 219.752 251.215 218.195 251.215 216.424C251.215 214.781 251.546 213.32 252.207 212.04C252.89 210.739 253.807 209.715 254.959 208.968C256.133 208.2 257.466 207.816 258.959 207.816C260.154 207.816 261.231 208.051 262.191 208.52C263.173 208.968 263.994 209.608 264.655 210.44C265.338 211.272 265.839 212.253 266.159 213.384C266.501 214.493 266.618 215.731 266.511 217.096H252.431V215.56H264.175C264.09 213.661 263.578 212.189 262.639 211.144C261.722 210.077 260.485 209.544 258.927 209.544C257.839 209.544 256.879 209.832 256.047 210.408C255.237 210.963 254.597 211.752 254.127 212.776C253.658 213.8 253.423 215.016 253.423 216.424C253.423 217.875 253.647 219.144 254.095 220.232C254.543 221.299 255.183 222.12 256.015 222.696C256.869 223.272 257.882 223.56 259.055 223.56C260.463 223.56 261.626 223.187 262.543 222.44C263.482 221.672 264.09 220.627 264.367 219.304H266.575C266.191 221.16 265.327 222.632 263.983 223.72C262.661 224.787 261.029 225.32 259.087 225.32ZM272.453 215.976V225H270.213V208.136H272.293V211.976C272.891 210.739 273.765 209.747 274.917 209C276.069 208.253 277.339 207.88 278.725 207.88V210.216C277.552 210.173 276.485 210.376 275.525 210.824C274.587 211.272 273.84 211.933 273.285 212.808C272.731 213.683 272.453 214.739 272.453 215.976ZM294.768 208.136L286.128 231.176H283.728L286.192 224.776L279.504 208.136H281.904L287.344 222.088L292.496 208.136H294.768ZM316.665 220.296C316.665 221.853 316.078 223.08 314.905 223.976C313.732 224.872 312.1 225.32 310.009 225.32C307.918 225.32 306.254 224.819 305.017 223.816C303.801 222.813 303.108 221.448 302.937 219.72H305.081C305.145 220.915 305.625 221.864 306.521 222.568C307.417 223.272 308.58 223.624 310.009 223.624C311.396 223.624 312.473 223.368 313.241 222.856C314.03 222.344 314.425 221.608 314.425 220.648C314.425 219.816 314.158 219.187 313.625 218.76C313.092 218.312 312.185 217.96 310.905 217.704L308.473 217.224C306.873 216.925 305.657 216.392 304.825 215.624C303.993 214.835 303.577 213.832 303.577 212.616C303.577 211.677 303.833 210.845 304.345 210.12C304.878 209.395 305.604 208.829 306.521 208.424C307.46 208.019 308.537 207.816 309.753 207.816C311.054 207.816 312.185 208.04 313.145 208.488C314.126 208.915 314.905 209.533 315.481 210.344C316.057 211.155 316.377 212.125 316.441 213.256H314.329C314.222 212.083 313.764 211.176 312.953 210.536C312.142 209.875 311.076 209.544 309.753 209.544C308.558 209.544 307.588 209.8 306.841 210.312C306.116 210.824 305.753 211.528 305.753 212.424C305.753 213.256 306.02 213.896 306.553 214.344C307.108 214.792 308.014 215.133 309.273 215.368L311.801 215.848C313.465 216.168 314.692 216.691 315.481 217.416C316.27 218.141 316.665 219.101 316.665 220.296ZM329.104 222.856V224.84C328.677 225.032 328.272 225.16 327.888 225.224C327.504 225.288 327.099 225.32 326.672 225.32C325.755 225.32 324.923 225.149 324.176 224.808C323.429 224.467 322.832 223.923 322.384 223.176C321.957 222.429 321.744 221.448 321.744 220.232V210.024H317.776V208.136H321.744V203.144H323.984V208.136H329.264V210.024H323.984V219.752C323.984 221.075 324.272 221.992 324.848 222.504C325.445 223.016 326.203 223.272 327.12 223.272C327.483 223.272 327.813 223.24 328.112 223.176C328.432 223.112 328.763 223.005 329.104 222.856ZM338.712 225.32C337.134 225.32 335.747 224.957 334.552 224.232C333.379 223.485 332.462 222.44 331.8 221.096C331.16 219.752 330.84 218.195 330.84 216.424C330.84 214.781 331.171 213.32 331.832 212.04C332.515 210.739 333.432 209.715 334.584 208.968C335.758 208.2 337.091 207.816 338.584 207.816C339.779 207.816 340.856 208.051 341.816 208.52C342.798 208.968 343.619 209.608 344.28 210.44C344.963 211.272 345.464 212.253 345.784 213.384C346.126 214.493 346.243 215.731 346.136 217.096H332.056V215.56H343.8C343.715 213.661 343.203 212.189 342.264 211.144C341.347 210.077 340.11 209.544 338.552 209.544C337.464 209.544 336.504 209.832 335.672 210.408C334.862 210.963 334.222 211.752 333.752 212.776C333.283 213.8 333.048 215.016 333.048 216.424C333.048 217.875 333.272 219.144 333.72 220.232C334.168 221.299 334.808 222.12 335.64 222.696C336.494 223.272 337.507 223.56 338.68 223.56C340.088 223.56 341.251 223.187 342.168 222.44C343.107 221.672 343.715 220.627 343.992 219.304H346.2C345.816 221.16 344.952 222.632 343.608 223.72C342.286 224.787 340.654 225.32 338.712 225.32ZM365.294 216.552C365.294 218.28 364.985 219.805 364.366 221.128C363.769 222.451 362.916 223.485 361.806 224.232C360.718 224.957 359.417 225.32 357.902 225.32C356.644 225.32 355.502 224.989 354.478 224.328C353.454 223.667 352.654 222.739 352.078 221.544V231.176H349.838V208.136H351.918V211.784C352.494 210.525 353.316 209.555 354.382 208.872C355.449 208.168 356.622 207.816 357.902 207.816C359.396 207.816 360.697 208.189 361.806 208.936C362.916 209.661 363.769 210.685 364.366 212.008C364.985 213.309 365.294 214.824 365.294 216.552ZM363.022 216.552C363.022 214.419 362.51 212.755 361.486 211.56C360.484 210.365 359.161 209.768 357.518 209.768C356.494 209.768 355.566 210.035 354.734 210.568C353.902 211.101 353.241 211.869 352.75 212.872C352.281 213.875 352.046 215.101 352.046 216.552C352.046 217.939 352.281 219.144 352.75 220.168C353.22 221.192 353.87 221.981 354.702 222.536C355.534 223.091 356.473 223.368 357.518 223.368C359.161 223.368 360.484 222.771 361.486 221.576C362.51 220.381 363.022 218.707 363.022 216.552ZM382.34 225.32C381.188 225.32 380.122 225.107 379.14 224.68C378.159 224.253 377.306 223.645 376.58 222.856C375.876 222.067 375.322 221.139 374.916 220.072C374.532 219.005 374.34 217.832 374.34 216.552C374.34 215.293 374.532 214.131 374.916 213.064C375.322 211.997 375.876 211.08 376.58 210.312C377.306 209.523 378.159 208.915 379.14 208.488C380.122 208.061 381.188 207.848 382.34 207.848C383.514 207.848 384.591 208.061 385.572 208.488C386.554 208.915 387.396 209.523 388.1 210.312C388.826 211.08 389.38 211.997 389.764 213.064C390.17 214.131 390.372 215.293 390.372 216.552C390.372 217.832 390.17 219.005 389.764 220.072C389.38 221.139 388.826 222.067 388.1 222.856C387.396 223.645 386.554 224.253 385.572 224.68C384.591 225.107 383.514 225.32 382.34 225.32ZM382.34 223.4C383.45 223.4 384.431 223.123 385.284 222.568C386.159 221.992 386.842 221.192 387.332 220.168C387.844 219.144 388.1 217.939 388.1 216.552C388.1 215.165 387.844 213.971 387.332 212.968C386.842 211.965 386.159 211.187 385.284 210.632C384.431 210.077 383.45 209.8 382.34 209.8C381.252 209.8 380.271 210.077 379.396 210.632C378.543 211.187 377.86 211.965 377.348 212.968C376.858 213.971 376.612 215.165 376.612 216.552C376.612 217.939 376.858 219.144 377.348 220.168C377.86 221.192 378.543 221.992 379.396 222.568C380.271 223.123 381.252 223.4 382.34 223.4ZM397.238 225H394.998V210.024H391.03V208.136H394.998V206.6C394.998 205.043 395.403 203.848 396.214 203.016C397.024 202.184 398.166 201.768 399.638 201.768C400.022 201.768 400.374 201.8 400.694 201.864C401.035 201.928 401.344 202.013 401.622 202.12V203.976C401.366 203.869 401.11 203.805 400.854 203.784C400.598 203.741 400.32 203.72 400.022 203.72C399.126 203.72 398.432 203.955 397.942 204.424C397.472 204.872 397.238 205.597 397.238 206.6V208.136H402.198V210.024H397.238V225ZM420.135 222.856V224.84C419.709 225.032 419.303 225.16 418.919 225.224C418.535 225.288 418.13 225.32 417.703 225.32C416.786 225.32 415.954 225.149 415.207 224.808C414.461 224.467 413.863 223.923 413.415 223.176C412.989 222.429 412.775 221.448 412.775 220.232V210.024H408.807V208.136H412.775V203.144H415.015V208.136H420.295V210.024H415.015V219.752C415.015 221.075 415.303 221.992 415.879 222.504C416.477 223.016 417.234 223.272 418.151 223.272C418.514 223.272 418.845 223.24 419.143 223.176C419.463 223.112 419.794 223.005 420.135 222.856ZM425.922 215.176V225H423.682V202.024H425.922V211.24C426.434 210.237 427.159 209.416 428.098 208.776C429.037 208.136 430.114 207.816 431.33 207.816C433.079 207.816 434.477 208.36 435.522 209.448C436.589 210.536 437.122 212.072 437.122 214.056V225H434.882V214.824C434.882 213.203 434.519 211.955 433.794 211.08C433.09 210.205 432.045 209.768 430.658 209.768C429.783 209.768 428.983 210.003 428.258 210.472C427.533 210.92 426.957 211.549 426.53 212.36C426.125 213.171 425.922 214.109 425.922 215.176ZM448.462 225.32C446.884 225.32 445.497 224.957 444.302 224.232C443.129 223.485 442.212 222.44 441.55 221.096C440.91 219.752 440.59 218.195 440.59 216.424C440.59 214.781 440.921 213.32 441.582 212.04C442.265 210.739 443.182 209.715 444.334 208.968C445.508 208.2 446.841 207.816 448.334 207.816C449.529 207.816 450.606 208.051 451.566 208.52C452.548 208.968 453.369 209.608 454.03 210.44C454.713 211.272 455.214 212.253 455.534 213.384C455.876 214.493 455.993 215.731 455.886 217.096H441.806V215.56H453.55C453.465 213.661 452.953 212.189 452.014 211.144C451.097 210.077 449.86 209.544 448.302 209.544C447.214 209.544 446.254 209.832 445.422 210.408C444.612 210.963 443.972 211.752 443.502 212.776C443.033 213.8 442.798 215.016 442.798 216.424C442.798 217.875 443.022 219.144 443.47 220.232C443.918 221.299 444.558 222.12 445.39 222.696C446.244 223.272 447.257 223.56 448.43 223.56C449.838 223.56 451.001 223.187 451.918 222.44C452.857 221.672 453.465 220.627 453.742 219.304H455.95C455.566 221.16 454.702 222.632 453.358 223.72C452.036 224.787 450.404 225.32 448.462 225.32ZM480.324 225L475.908 211.112L471.524 225H469.252L464.324 208.136H466.532L470.436 221.832L474.82 208.136H477.028L481.38 221.864L485.284 208.136H487.524L482.564 225H480.324ZM500.3 225V221.928C499.809 222.973 499.073 223.805 498.092 224.424C497.111 225.021 495.959 225.32 494.636 225.32C492.887 225.32 491.489 224.872 490.444 223.976C489.399 223.059 488.876 221.843 488.876 220.328C488.876 218.685 489.527 217.448 490.828 216.616C492.129 215.763 494.06 215.336 496.62 215.336C497.132 215.336 497.633 215.347 498.124 215.368C498.615 215.389 499.265 215.443 500.076 215.528V214.088C500.076 212.68 499.713 211.581 498.988 210.792C498.284 210.003 497.292 209.608 496.012 209.608C494.647 209.608 493.559 210.013 492.748 210.824C491.937 211.613 491.521 212.691 491.5 214.056H489.452C489.473 212.797 489.761 211.709 490.316 210.792C490.871 209.853 491.628 209.128 492.588 208.616C493.569 208.083 494.7 207.816 495.98 207.816C497.964 207.816 499.5 208.36 500.588 209.448C501.676 210.536 502.22 212.061 502.22 214.024V225H500.3ZM491.02 220.264C491.02 221.288 491.383 222.12 492.108 222.76C492.833 223.379 493.783 223.688 494.956 223.688C496.535 223.688 497.783 223.219 498.7 222.28C499.617 221.32 500.076 220.051 500.076 218.472V216.968C499.351 216.904 498.721 216.861 498.188 216.84C497.676 216.819 497.185 216.808 496.716 216.808C494.817 216.808 493.388 217.096 492.428 217.672C491.489 218.227 491.02 219.091 491.02 220.264ZM519.424 208.136L510.784 231.176H508.384L510.848 224.776L504.16 208.136H506.56L512 222.088L517.152 208.136H519.424Z" fill="#334155"/>
</g>
<defs>
<clipPath id="clip0_761_8365">
<rect width="1344" height="757.68" fill="white" transform="translate(0 0.800781)"/>
</clipPath>
</defs>
</svg>
