<svg width="1344" height="731" viewBox="0 0 1344 731" fill="none" xmlns="http://www.w3.org/2000/svg">
<g clip-path="url(#clip0_761_8363)">
<path opacity="0.5" d="M1252.82 725.676C1252.73 725.844 1252.61 726.012 1252.52 726.18C1251.85 727.398 1251.14 728.616 1250.42 729.876L150.948 729.54C150.948 729.54 149.898 728.364 147.966 726.054C147.84 725.928 147.756 725.802 147.63 725.634C142.716 719.754 132.846 707.322 121.254 689.85C90.5516 643.398 48.0056 561.162 55.1876 469.896C57.2036 444.15 63.1676 417.648 74.5076 391.062C108.864 310.38 211.302 255.99 303.618 254.898C339.36 254.478 373.548 262.038 401.688 279.132C406.686 282.156 412.944 284.508 420.252 286.104C426.384 287.448 433.272 288.288 440.748 288.54C500.682 290.64 598.206 256.872 656.04 171.864C686.742 126.714 733.908 97.1878 788.088 81.7738C790.608 81.0598 793.17 80.3878 795.69 79.7158C807.996 76.5658 820.68 74.0878 833.532 72.3658C835.842 72.0718 838.194 71.7778 840.504 71.4838C897.666 64.8478 958.902 71.6938 1015.1 90.6778C1022.49 93.1558 1029.8 95.8858 1037.02 98.7838C1142.74 141.582 1224.97 228.984 1217.75 351.036C1217.45 355.866 1217.03 360.738 1216.45 365.694C1215.35 375.102 1213.76 384.678 1211.62 394.464C1210.36 400.218 1208.89 406.056 1207.21 411.978C1163.65 566.748 1337.78 573.72 1252.82 725.676Z" fill="#DCEAFF"/>
<path d="M1252.82 725.677L397.025 725.761L404.417 469.981V400.555H436.421V346.249H500.261V392.323H519.749V307.147H523.991V301.183H524.747V307.147H540.161V301.183H540.917V307.147H562.715V301.183H563.471V307.147H577.205V301.183H577.961V307.147H583.589V386.695H605.135V373.801L630.545 373.927V353.095H635.669V348.979H636.341V353.095H655.955H659.861V348.979H660.533V353.095H665.279V394.549H695.519V409.795H712.361V400.933H727.943V365.779H735.713V349.357H736.889V365.779H755.537V335.035H757.385V365.779H769.733V365.359V361.453V357.757V351.625V347.719V341.587V337.681V331.549V327.307V321.175V315.757V309.625V305.551H773.387V300.973H773.975V305.551H801.191V300.973H801.779V305.551H806.735V337.681H810.221H810.179V331.549H810.221V327.307H810.179V321.175H810.221V316.933H810.179V310.801H810.221H843.233H848.903C849.197 310.969 849.491 311.137 849.785 311.305V352.297H855.875V346.375H925.595V392.449H946.889V307.147H951.509V301.183H952.349V307.147H969.149V301.183H969.989V307.147H993.803V301.183H994.643V307.147H1009.64V301.183H1010.48V307.147H1016.65V386.695H1040.17V373.801L1067.89 373.927V353.095H1073.48V348.979H1074.23V353.095H1095.65H1099.94V348.979H1100.69V353.095H1105.86V394.549H1138.87V409.795H1157.23V400.933H1174.24V365.779H1182.72V349.357H1184.02V365.779H1204.39V335.035H1206.41V365.779H1216.4C1215.31 375.187 1213.72 384.763 1211.57 394.549C1210.31 400.303 1208.84 406.141 1207.16 412.063C1163.65 566.749 1337.78 573.721 1252.82 725.677Z" fill="#DFEBFA"/>
<path d="M1037.02 98.8687V725.719H1015.1V90.7207C1022.53 93.2407 1029.84 95.9287 1037.02 98.8687Z" fill="#AFCDFB"/>
<path d="M420.252 286.146V726.096H147.966C147.84 725.97 147.756 725.844 147.63 725.676C142.716 719.796 132.846 707.364 121.254 689.892C90.5516 643.44 48.0056 561.204 55.1876 469.938C57.2036 444.192 63.1676 417.69 74.5076 391.104C108.864 310.38 211.302 255.99 303.618 254.898C339.024 255.276 372.75 262.92 400.764 279.132C406.014 282.198 412.608 284.55 420.252 286.146Z" fill="#CEE1FD"/>
<path d="M840.546 71.5254V148.721C840.546 154.727 839.076 159.641 837.27 159.641H836.808C835.002 159.641 833.532 154.727 833.532 148.721V72.4074C835.884 72.0714 838.194 71.7774 840.546 71.5254Z" fill="#9FC1F4"/>
<path d="M835.212 141.078C809.76 141.078 789.138 162.876 789.138 189.798H881.286C881.286 162.876 860.664 141.078 835.212 141.078Z" fill="#FFE2E2"/>
<path d="M838.908 141.666C837.564 141.372 836.22 141.246 834.876 141.246C818.286 141.246 804.846 163.002 804.846 189.798H812.952C812.91 165.186 824.25 144.858 838.908 141.666Z" fill="#EDC2C2"/>
<path d="M1138.62 653.856C1138.62 653.856 1126.36 639.534 1137.86 630.462C1137.86 630.462 1146.26 625.38 1153.11 625.8C1153.11 625.8 1143.41 642.096 1146.56 643.692C1149.71 645.33 1156.05 624.792 1156.05 624.792C1156.05 624.792 1175.16 622.944 1181.33 625.884C1181.33 625.884 1165 639.24 1168.44 640.038C1171.88 640.836 1189.52 627.69 1189.52 627.69C1189.52 627.69 1207.33 630.714 1206.37 641.592C1205.4 652.428 1199.27 655.788 1196.58 655.494C1193.89 655.2 1178.1 649.194 1177.76 651.378C1177.43 653.562 1186.92 660.786 1193.56 661.122C1193.56 661.122 1181 674.94 1172.68 670.95C1164.32 666.96 1163.65 660.618 1158.44 658.266C1153.24 655.872 1148.83 655.914 1150.97 658.308C1153.11 660.744 1162.52 663.096 1165.5 668.346C1168.48 673.596 1171.13 677.166 1162.52 675.864C1153.91 674.562 1139.88 668.262 1139.25 661.038C1138.62 653.856 1138.62 653.856 1138.62 653.856Z" fill="#77A4E5"/>
<path d="M1197.63 641.887C1197.63 641.887 1149.29 640.039 1138.62 653.857C1138.62 653.857 1136.27 660.913 1129 667.381L1127.87 670.447C1127.87 670.447 1136.23 661.627 1139.25 661.081C1139.21 661.081 1134.55 643.945 1197.63 641.887Z" fill="#77A4E5"/>
<path d="M1128.96 667.34C1128.96 667.34 1118.59 675.026 1117.87 688.718L1119.76 688.886C1119.76 688.886 1123.08 674.69 1129.04 669.146C1135.05 663.644 1128.96 667.34 1128.96 667.34Z" fill="#77A4E5"/>
<path d="M1095.74 635.88C1095.74 635.88 1115.23 624.96 1106.15 610.134C1106.15 610.134 1098.89 601.02 1091.08 598.71C1091.08 598.71 1095.23 620.802 1091.08 621.348C1086.92 621.852 1088.22 596.4 1088.22 596.4C1088.22 596.4 1067.68 586.53 1059.62 587.286C1059.62 587.286 1072.34 608.874 1068.19 608.328C1064.03 607.782 1049.71 585.984 1049.71 585.984C1049.71 585.984 1028.66 582.078 1025.26 594.552C1021.9 607.026 1027.36 613.284 1030.47 614.04C1033.58 614.838 1053.61 614.544 1053.11 617.148C1052.6 619.752 1039.08 623.91 1031.52 621.558C1031.52 621.558 1039.84 642.096 1050.76 641.046C1061.68 639.996 1065.08 633.234 1071.8 632.73C1078.56 632.226 1083.52 634.032 1080.11 635.838C1076.75 637.644 1065.29 636.426 1059.83 641.088C1054.37 645.75 1049.96 648.606 1060.08 650.664C1070.2 652.764 1088.43 651.462 1092.04 643.65C1095.74 635.88 1095.74 635.88 1095.74 635.88Z" fill="#77A4E5"/>
<path d="M1034.88 598.416C1034.88 598.416 1089.48 616.098 1095.74 635.838C1095.74 635.838 1095.49 644.658 1100.95 654.822V658.728C1100.95 658.728 1095.23 645.456 1092.13 643.65C1092.08 643.65 1104.31 626.514 1034.88 598.416Z" fill="#77A4E5"/>
<path d="M1100.95 654.821C1100.95 654.821 1109.35 667.589 1104.56 683.171L1102.37 682.583C1102.37 682.583 1104.47 665.447 1100.06 656.795C1095.7 648.227 1100.95 654.821 1100.95 654.821Z" fill="#77A4E5"/>
<path d="M1126.78 620.801C1126.78 620.801 1101.07 606.395 1113.08 586.865C1113.08 586.865 1122.7 574.853 1132.95 571.787C1132.95 571.787 1127.45 600.935 1132.95 601.607C1138.45 602.279 1136.73 568.721 1136.73 568.721C1136.73 568.721 1163.82 555.701 1174.45 556.709C1174.45 556.709 1157.65 585.143 1163.15 584.471C1168.65 583.799 1187.47 554.987 1187.47 554.987C1187.47 554.987 1215.23 549.863 1219.68 566.285C1224.13 582.749 1216.95 590.981 1212.83 591.989C1208.72 592.997 1182.34 592.661 1183.01 596.105C1183.69 599.549 1201.54 605.009 1211.45 601.943C1211.45 601.943 1200.49 629.033 1186.08 627.647C1171.67 626.261 1167.22 617.357 1158.32 616.685C1149.41 616.013 1142.9 618.407 1147.36 620.801C1151.81 623.195 1166.89 621.599 1174.11 627.689C1181.33 633.779 1187.13 637.559 1173.77 640.331C1160.42 643.061 1136.39 641.339 1131.61 631.091C1126.82 620.843 1126.78 620.801 1126.78 620.801Z" fill="#9FC1F4"/>
<path d="M1206.95 571.451C1206.95 571.451 1134.97 594.761 1126.73 620.801C1126.73 620.801 1127.07 632.435 1119.89 645.833V650.957C1119.89 650.957 1127.45 633.485 1131.52 631.091C1131.56 631.091 1115.44 608.453 1206.95 571.451Z" fill="#9FC1F4"/>
<path d="M1119.93 645.832C1119.93 645.832 1108.84 662.674 1115.14 683.212L1118 682.456C1118 682.456 1115.23 659.86 1121.02 648.478C1126.82 637.096 1119.93 645.832 1119.93 645.832Z" fill="#9FC1F4"/>
<path d="M1125.89 727.692C1153.7 727.692 1176.25 705.138 1176.25 677.334H1075.54C1075.54 705.138 1098.09 727.692 1125.89 727.692Z" fill="#9FC1F4"/>
<path d="M1138.28 727.314C1136.23 727.566 1134.17 727.692 1132.03 727.692C1104.22 727.692 1081.67 705.138 1081.67 677.334H1094.18C1094.18 703.038 1113.42 724.206 1138.28 727.314Z" fill="#AFCDFB"/>
<path d="M1177.43 677.334H1073.9V678.888H1177.43V677.334Z" fill="#9FC1F4"/>
<path d="M891.492 725.215L842.016 519.835L845.46 511.771L894.474 725.215C894.6 725.761 894.18 726.265 893.634 726.265H892.836C892.164 726.265 891.618 725.845 891.492 725.215Z" fill="#77A4E5"/>
<path d="M668.177 726.266C667.169 726.266 666.371 725.342 666.539 724.334L681.113 636.008H687.371L669.983 724.754C669.815 725.636 669.059 726.266 668.177 726.266Z" fill="#77A4E5"/>
<path d="M807.953 726.266C806.945 726.266 806.147 725.342 806.315 724.334L820.889 636.008H827.147L809.759 724.754C809.591 725.636 808.835 726.266 807.953 726.266Z" fill="#77A4E5"/>
<path d="M841.847 636.217H667.799L703.877 410.131H877.925L841.847 636.217Z" fill="#F5FBFF"/>
<path d="M854.867 634.453H654.989V641.089H854.867V634.453Z" fill="#77A4E5"/>
<path d="M772.8 457.423C772.674 459.229 772.422 460.951 772.002 462.673C768.39 478.843 753.984 491.191 737.73 491.233C719.754 491.275 706.272 476.155 707.658 457.507C709.044 438.859 724.71 423.697 742.728 423.697C746.508 423.697 750.078 424.369 753.354 425.587C754.824 426.133 756.252 426.805 757.596 427.561C760.494 429.199 763.098 431.341 765.282 433.861C766.5 435.247 767.592 436.801 768.558 438.397C769.104 439.321 769.608 440.329 770.07 441.337C771.33 444.151 772.212 447.175 772.632 450.367C772.842 451.963 772.926 453.643 772.926 455.323C772.884 455.995 772.842 456.709 772.8 457.423Z" fill="#BDD1F9"/>
<path d="M770.028 441.337L740.208 457.507C740.208 457.507 752.514 435.835 757.554 427.561C760.452 429.199 763.056 431.341 765.24 433.861C766.458 435.247 767.55 436.801 768.516 438.397C769.104 439.363 769.608 440.329 770.028 441.337Z" fill="white"/>
<path d="M773.136 437.222L745.92 452.006C745.92 452.006 757.134 432.224 761.754 424.664C764.4 426.176 766.794 428.108 768.768 430.418C769.86 431.678 770.868 433.106 771.75 434.576C772.254 435.416 772.716 436.298 773.136 437.222Z" fill="#FFCFCF"/>
<path d="M827.988 618.998H684.726L699.216 536.342H842.478L827.988 618.998ZM685.902 618.158H827.148L841.344 537.182H700.098L685.902 618.158Z" fill="#BDD1F9"/>
<path d="M819.461 607.658H692.411C692.411 607.658 714.965 595.562 721.139 596.192C727.313 596.822 736.217 601.736 741.929 601.904C747.641 602.072 753.815 584.936 760.199 585.734C766.541 586.532 768.935 601.736 772.253 600.224C775.571 598.712 785.441 598.082 791.111 600.224C796.823 602.366 805.097 593.462 810.095 593.756C815.093 594.092 819.461 607.658 819.461 607.658Z" fill="#FFCFCF"/>
<path d="M722.945 583.382H698.711L698.921 582.08H723.197L722.945 583.382Z" fill="#FFCFCF"/>
<path d="M722.483 586.154L698.207 586.112L698.417 584.852H722.693L722.483 586.154Z" fill="#FFCFCF"/>
<path d="M699.678 566.246H826.728C826.728 566.246 808.416 554.15 802.032 554.78C795.606 555.41 785.022 560.324 779.226 560.492C773.43 560.702 773.262 543.524 766.626 544.322C759.99 545.12 752.262 560.282 749.49 558.812C746.718 557.342 737.058 556.67 730.632 558.812C724.206 560.954 718.998 552.05 713.916 552.344C708.792 552.638 699.678 566.246 699.678 566.246Z" fill="#BDD1F9"/>
<path d="M729.834 544.322H705.558L705.768 543.02H730.044L729.834 544.322Z" fill="#BDD1F9"/>
<path d="M729.33 547.051H705.054L705.306 545.791H729.54L729.33 547.051Z" fill="#BDD1F9"/>
<path d="M707.909 524.833H702.323L707.195 498.709H712.739L707.909 524.833Z" fill="#BDD1F9"/>
<path d="M715.512 524.834H709.926L713.706 504.59H719.25L715.512 524.834Z" fill="#BDD1F9"/>
<path d="M723.113 524.833H717.527L721.433 503.707H727.019L723.113 524.833Z" fill="#BDD1F9"/>
<path d="M730.673 524.833H725.129L728.111 508.789H733.655L730.673 524.833Z" fill="#BDD1F9"/>
<path d="M738.275 524.833H732.689L735.881 507.613H741.467L738.275 524.833Z" fill="#BDD1F9"/>
<path d="M745.877 524.833H740.291L742.769 511.477H748.355L745.877 524.833Z" fill="#BDD1F9"/>
<path d="M782.459 524.833H776.873L781.745 498.709H787.289L782.459 524.833Z" fill="#FFCFCF"/>
<path d="M790.062 524.834H784.476L788.214 504.59H793.8L790.062 524.834Z" fill="#FFCFCF"/>
<path d="M797.663 524.833H792.077L795.983 503.707H801.569L797.663 524.833Z" fill="#FFCFCF"/>
<path d="M805.223 524.833H799.679L802.619 508.789H808.205L805.223 524.833Z" fill="#FFCFCF"/>
<path d="M812.825 524.833H807.239L810.431 507.613H816.017L812.825 524.833Z" fill="#FFCFCF"/>
<path d="M820.427 524.833H814.841L817.319 511.477H822.905L820.427 524.833Z" fill="#FFCFCF"/>
<path d="M809.297 439.574H791.153L791.615 437.096H809.759L809.297 439.574Z" fill="#BDD1F9"/>
<path d="M831.557 439.574H811.523L811.985 437.096H832.019L831.557 439.574Z" fill="#BDD1F9"/>
<path d="M845.837 439.574H833.069L833.531 437.096H846.299L845.837 439.574Z" fill="#BDD1F9"/>
<path d="M857.766 439.574H847.896L848.357 437.096H858.227L857.766 439.574Z" fill="#BDD1F9"/>
<path d="M807.324 450.158H789.18L789.642 447.68H807.786L807.324 450.158Z" fill="#BDD1F9"/>
<path d="M829.542 450.158H809.508L810.012 447.68H830.004L829.542 450.158Z" fill="#BDD1F9"/>
<path d="M843.822 450.158H831.054L831.516 447.68H844.284L843.822 450.158Z" fill="#BDD1F9"/>
<path d="M855.75 450.158H845.88L846.384 447.68H856.212L855.75 450.158Z" fill="#BDD1F9"/>
<path d="M820.091 433.777H792.245L792.707 431.299H820.553L820.091 433.777Z" fill="#BDD1F9"/>
<path d="M838.781 433.777H822.737L823.199 431.299H839.243L838.781 433.777Z" fill="#BDD1F9"/>
<path d="M858.857 433.777H841.049L841.511 431.299H859.319L858.857 433.777Z" fill="#BDD1F9"/>
<path d="M817.949 445.033H790.146L790.607 442.555H818.411L817.949 445.033Z" fill="#BDD1F9"/>
<path d="M836.64 445.033H820.596L821.058 442.555H837.102L836.64 445.033Z" fill="#BDD1F9"/>
<path d="M856.715 445.033H838.907L839.369 442.555H857.177L856.715 445.033Z" fill="#BDD1F9"/>
<path d="M805.307 460.783H787.163L787.625 458.305H805.769L805.307 460.783Z" fill="#BDD1F9"/>
<path d="M827.567 460.783H807.533L807.995 458.305H828.029L827.567 460.783Z" fill="#BDD1F9"/>
<path d="M841.847 460.783H829.079L829.541 458.305H842.309L841.847 460.783Z" fill="#BDD1F9"/>
<path d="M853.775 460.783H843.905L844.367 458.305H854.237L853.775 460.783Z" fill="#BDD1F9"/>
<path d="M815.976 455.658H788.13L788.592 453.18H816.438L815.976 455.658Z" fill="#BDD1F9"/>
<path d="M834.666 455.658H818.622L819.084 453.18H835.128L834.666 455.658Z" fill="#BDD1F9"/>
<path d="M854.742 455.658H836.934L837.396 453.18H855.204L854.742 455.658Z" fill="#BDD1F9"/>
<path d="M803.459 470.737H785.315L785.777 468.217H803.921L803.459 470.737Z" fill="#BDD1F9"/>
<path d="M825.678 470.737H805.686L806.148 468.217H826.182L825.678 470.737Z" fill="#BDD1F9"/>
<path d="M839.957 470.737H827.189L827.651 468.217H840.461L839.957 470.737Z" fill="#BDD1F9"/>
<path d="M851.886 470.737H842.058L842.52 468.217H852.348L851.886 470.737Z" fill="#BDD1F9"/>
<path d="M814.085 465.57H786.281L786.743 463.092H814.547L814.085 465.57Z" fill="#BDD1F9"/>
<path d="M832.775 465.57H816.731L817.235 463.092H833.279L832.775 465.57Z" fill="#BDD1F9"/>
<path d="M852.893 465.57H835.043L835.505 463.092H853.355L852.893 465.57Z" fill="#BDD1F9"/>
<path d="M762.174 502.573H753.27L753.522 501.355H762.384L762.174 502.573Z" fill="#BDD1F9"/>
<path d="M773.052 502.573H763.266L763.476 501.355H773.304L773.052 502.573Z" fill="#BDD1F9"/>
<path d="M761.208 507.781H752.304L752.556 506.562H761.418L761.208 507.781Z" fill="#BDD1F9"/>
<path d="M772.086 507.781H762.258L762.51 506.562H772.296L772.086 507.781Z" fill="#BDD1F9"/>
<path d="M767.424 499.759H753.816L754.026 498.541H767.676L767.424 499.759Z" fill="#BDD1F9"/>
<path d="M776.58 499.759H768.726L768.978 498.541H776.832L776.58 499.759Z" fill="#BDD1F9"/>
<path d="M766.416 505.261H752.766L753.018 504.043H766.626L766.416 505.261Z" fill="#BDD1F9"/>
<path d="M775.572 505.261H767.718L767.928 504.043H775.782L775.572 505.261Z" fill="#BDD1F9"/>
<path d="M833.279 502.573H824.417L824.627 501.355H833.531L833.279 502.573Z" fill="#BDD1F9"/>
<path d="M844.199 502.573H834.371L834.623 501.355H844.409L844.199 502.573Z" fill="#BDD1F9"/>
<path d="M832.313 507.781H823.451L823.661 506.562H832.523L832.313 507.781Z" fill="#BDD1F9"/>
<path d="M843.191 507.781H833.405L833.615 506.562H843.443L843.191 507.781Z" fill="#BDD1F9"/>
<path d="M838.571 499.759H824.963L825.173 498.541H838.781L838.571 499.759Z" fill="#BDD1F9"/>
<path d="M847.727 499.759H839.873L840.083 498.541H847.937L847.727 499.759Z" fill="#BDD1F9"/>
<path d="M837.521 505.261H823.913L824.123 504.043H837.773L837.521 505.261Z" fill="#BDD1F9"/>
<path d="M846.677 505.261H838.823L839.075 504.043H846.887L846.677 505.261Z" fill="#BDD1F9"/>
<path d="M880.53 722.903C880.236 727.145 874.23 727.187 867.426 726.389C860.622 725.591 862.428 727.313 852.894 727.439C843.36 727.565 840.084 724.415 839.622 723.071C839.202 721.853 843.78 720.845 848.694 719.669C849.324 719.501 849.912 719.375 850.542 719.207C856.086 717.821 859.74 713.663 864.486 710.051C868.98 706.607 874.776 694.217 874.776 694.217L887.796 693.629C887.796 693.629 882.336 704.759 880.278 709.547C879.06 712.361 879.564 715.847 880.11 718.493C880.362 719.921 880.656 721.391 880.53 722.903Z" fill="#FFB27D"/>
<path d="M867.426 726.431C860.622 725.633 862.428 727.355 852.894 727.481C843.36 727.607 840.084 724.457 839.622 723.113C839.202 721.895 843.78 720.887 848.694 719.711L848.736 719.795C848.736 719.795 854.868 723.071 862.722 722.315C869.106 721.685 875.658 718.997 880.068 718.535C880.362 719.963 880.614 721.475 880.53 722.945C880.236 727.145 874.23 727.187 867.426 726.431Z" fill="#233862"/>
<path d="M970.409 723.784C970.115 728.026 964.109 728.068 957.305 727.312C950.501 726.514 952.307 728.236 942.773 728.404C933.239 728.53 929.963 725.422 929.501 724.036C929.081 722.818 933.659 721.81 938.573 720.592C939.203 720.424 939.791 720.298 940.421 720.13C945.965 718.702 949.619 714.586 954.365 710.932C958.859 707.488 954.365 687.202 954.365 687.202L968.687 685.816C968.687 685.816 968.015 702.91 968.015 710.68C968.015 713.746 969.443 716.686 969.947 719.374C970.241 720.802 970.493 722.272 970.409 723.784Z" fill="#FFB27D"/>
<path d="M957.305 727.312C950.501 726.514 952.307 728.236 942.773 728.404C933.239 728.53 929.963 725.422 929.501 724.036C929.081 722.818 933.659 721.81 938.573 720.592L938.615 720.676C938.615 720.676 944.747 723.952 952.601 723.154C958.985 722.524 965.495 719.836 969.905 719.332C970.199 720.76 970.451 722.272 970.367 723.742C970.073 728.026 964.109 728.11 957.305 727.312Z" fill="#233862"/>
<path d="M928.62 372.791C926.142 362.669 929.712 357.923 932.946 355.445C934.458 351.707 936.222 349.019 937.986 348.011C941.22 346.163 945.126 345.953 947.856 346.121C947.142 345.407 945.756 345.113 945.756 345.113C947.436 344.861 951.216 346.541 951.216 346.541C974.736 337.469 978.432 372.119 977.928 380.141C977.424 388.205 977.508 397.655 989.73 403.997C1013.08 416.093 981.96 461.663 981.96 461.663C982.548 455.153 952.56 420.839 936.894 410.591C933.072 404.963 931.728 395.093 931.644 394.295C932.316 402.149 933.66 406.559 934.836 409.037C927.78 402.443 926.73 386.693 928.62 372.791Z" fill="#FFD069"/>
<path d="M937.902 411.095C937.818 411.137 945.462 415.085 951.216 413.531C956.634 412.061 960.162 405.047 960.078 405.047C957.81 404.585 957.138 401.435 957.18 387.953L956.13 388.163L938.742 391.607C938.742 391.607 939.12 397.067 939.162 402.233C939.162 406.517 938.91 410.633 937.902 411.095Z" fill="#FFB27D"/>
<path d="M938.741 391.565C938.741 391.565 939.119 397.025 939.161 402.191C948.905 401.897 954.029 393.035 956.129 388.121L938.741 391.565Z" fill="#ED975D"/>
<path d="M868.013 701.105C867.173 703.793 869.063 706.523 871.877 706.649L878.682 706.985L885.863 707.195C887.669 707.237 889.392 706.481 890.526 705.053C896.28 697.997 913.92 674.561 924.63 640.457C924.924 639.491 925.26 638.525 925.596 637.559C932.652 616.937 947.352 591.023 955.079 567.587C956.298 563.849 957.431 560.321 958.397 557.003C958.733 555.953 959.028 554.903 959.322 553.853C965.034 534.071 966.671 521.051 968.183 507.191L912.366 507.653C912.324 507.695 900.605 599.045 868.013 701.105Z" fill="#2A4E96"/>
<path d="M920.136 475.65C920.262 502.194 916.23 513.618 916.23 513.618C916.23 513.618 940.128 525.756 968.52 516.81C968.856 516.684 988.848 511.056 988.848 511.056C988.386 509.964 984.438 492.198 983.976 491.232C977.97 478.338 976.332 472.962 975.618 468.972C974.316 461.58 974.274 453.936 974.946 446.712C976.668 427.602 981.834 411.768 981.834 411.768C974.106 410.004 966.84 406.896 958.776 403.914C956.928 406.224 951.258 408.618 946.344 408.534C940.674 408.408 938.868 405.972 939.162 403.326C933.114 406.686 928.326 409.836 928.326 409.836C923.202 418.74 912.828 427.392 912.072 441.042C911.904 444.402 920.136 474.894 920.136 475.65Z" fill="white"/>
<path d="M968.142 478.589C970.578 482.033 975.24 503.033 986.916 505.679C980.91 490.727 976.374 484.175 975.66 479.555C974.358 470.987 974.316 462.083 974.988 453.725C971.082 446.879 968.184 442.217 968.184 442.217C967.89 441.125 962.01 422.897 960.12 439.193C958.188 455.447 965.412 474.725 968.142 478.589Z" fill="#5F9AA8"/>
<path d="M935.507 396.437C935.507 396.437 958.524 396.815 958.566 382.493C958.566 368.171 961.547 358.553 946.847 357.713C932.147 356.873 929.292 362.333 928.116 367.121C926.94 371.867 929.501 395.975 935.507 396.437Z" fill="#FFB27D"/>
<path d="M936.348 357.336C936.348 357.336 942.648 374.178 952.308 376.656C961.968 379.134 966.168 376.572 966.168 376.572C966.168 376.572 958.734 370.692 957.222 360.402C957.264 360.36 941.094 349.314 936.348 357.336Z" fill="#FFD069"/>
<path d="M937.901 358.679C937.901 358.679 933.197 362.417 932.063 366.071C930.929 369.725 930.383 377.243 928.199 376.991C928.199 376.991 923.453 365.567 928.787 359.099C934.457 352.253 937.901 358.679 937.901 358.679Z" fill="#FFD069"/>
<path d="M899.262 494.088L888.426 527.226L894.6 529.704L912.576 500.43L899.262 494.088Z" fill="#FFB27D"/>
<path d="M928.577 407.902C928.577 407.902 915.767 412.984 912.029 420.922C908.333 428.86 902.705 482.074 900.479 487.534C898.253 492.994 896.573 497.32 896.573 497.32C896.573 497.32 903.041 502.78 909.551 503.158C916.061 503.536 928.577 407.902 928.577 407.902Z" fill="#FFCFCF"/>
<path d="M939.162 403.326C939.162 403.326 925.848 436.212 925.47 442.89C925.092 449.568 923.916 551.796 923.916 551.796C923.916 551.796 924.714 556.5 915.684 554.526C906.654 552.552 904.344 550.62 904.344 550.62C904.344 550.62 912.954 487.536 910.602 465.612C908.25 443.688 928.62 407.904 928.62 407.904L939.162 403.326Z" fill="#FFCFCF"/>
<path d="M878.682 706.986L886.494 707.238C887.88 707.28 889.224 706.692 890.106 705.6C895.356 699.258 913.626 675.486 924.63 640.5C924.924 639.534 925.26 638.568 925.596 637.602C932.652 616.98 947.352 591.066 955.08 567.63C956.298 563.892 957.432 560.364 958.398 557.046C958.734 555.996 959.028 554.946 959.322 553.896L951.09 547.68C951.09 547.68 926.394 587.622 918.792 625.254C912.114 657.93 885.528 697.242 878.682 706.986Z" fill="#1E3D70"/>
<path d="M950.207 628.739C950.081 646.043 950.879 684.599 952.979 703.457C953.189 705.179 954.617 706.481 956.381 706.481H962.219C964.655 706.481 966.503 706.481 967.721 706.439C968.771 706.439 969.695 705.683 969.863 704.633C975.659 675.149 979.817 650.663 982.841 629.537C985.361 611.813 987.629 596.651 989.351 583.589C991.115 570.443 992.333 559.439 992.753 550.115C992.837 548.645 992.879 547.217 992.879 545.831C992.921 544.445 992.921 543.101 992.921 541.757L944.705 537.053C945.335 569.141 950.291 618.113 950.207 628.739Z" fill="#2A4E96"/>
<path d="M962.22 706.481C964.404 706.481 966.126 706.481 967.344 706.439C968.646 706.439 969.738 705.515 969.99 704.255C975.744 674.939 979.86 650.579 982.884 629.537C985.404 611.813 987.672 596.651 989.394 583.589C991.158 570.443 992.376 559.439 992.796 550.115L975.114 560.531C975.114 560.531 986.412 564.521 982.086 594.677C977.76 624.833 968.226 702.239 962.22 706.481Z" fill="#1E3D70"/>
<path d="M959.952 549.821C959.952 549.821 963.354 562.085 975.114 560.531C986.874 558.977 1003.59 551.921 1003.59 551.921C1003.59 551.921 998.55 536.045 992.334 515.213C984.774 489.971 975.408 457.421 970.998 436.925C969.78 431.171 968.898 426.383 968.604 422.939L958.86 404.039C958.86 404.039 944.328 436.673 943.53 444.905C942.69 453.053 959.952 549.821 959.952 549.821Z" fill="#FFCFCF"/>
<path d="M971.67 443.603L958.818 403.955C958.86 403.955 975.072 408.785 983.22 412.901C983.22 412.901 988.302 419.495 991.494 434.657C991.494 434.657 994.812 471.071 987.378 484.385C987.378 484.385 963.858 489.089 926.268 476.153V467.543C926.268 467.543 967.386 469.685 975.828 470.693L971.67 443.603Z" fill="#FFB27D"/>
<path d="M960.455 462.084C960.959 475.398 964.109 501.27 992.039 515.088C992.123 515.13 992.207 515.172 992.249 515.214C984.689 489.972 975.323 457.422 970.913 436.926C965.831 444.57 960.161 454.734 960.455 462.084Z" fill="#E0B3B3"/>
<path d="M958.818 403.998C958.818 403.998 982.674 405.678 988.428 418.488C994.182 431.298 995.988 473.844 988.68 486.402C988.68 486.402 978.6 489.258 960.792 485.94C960.582 485.898 960.372 485.856 960.12 485.814C960.12 485.814 954.45 471.912 959.532 469.182C959.532 469.182 974.568 469.98 972.972 465.024C971.376 460.068 958.818 403.998 958.818 403.998Z" fill="#FFCFCF"/>
<path d="M899.009 472.877L899.723 475.145L938.867 462.965C938.867 462.965 939.371 462.377 939.119 461.579C938.825 460.697 938.153 460.697 938.153 460.697L899.009 472.877Z" fill="#FFD069"/>
<path d="M896.153 475.019L899.009 472.877L899.681 475.145L896.153 475.019Z" fill="#FFD069"/>
<path d="M889.937 526.344C889.937 526.344 880.025 531.846 878.681 536.004C877.379 540.204 878.261 548.94 879.857 548.814C881.453 548.688 883.805 539.406 885.107 538.734C886.409 538.062 888.257 536.13 888.257 537.558C888.257 538.986 886.955 541.59 887.585 542.01C888.257 542.388 890.315 538.356 891.785 537.558C893.213 536.76 893.843 530.334 895.229 528.57C896.615 526.806 889.937 526.344 889.937 526.344Z" fill="#FFB27D"/>
<path d="M926.268 467.544C926.268 467.544 917.406 462.084 913.668 462.924C909.93 463.764 900.438 470.652 905.016 472.122C909.594 473.592 913.29 472.038 915.054 473.13C916.818 474.222 918.12 476.196 926.31 476.154C934.5 476.112 926.268 467.544 926.268 467.544Z" fill="#FFB27D"/>
<g opacity="0.6">
<path d="M496.187 726.265H496.061C495.179 726.265 494.507 725.551 494.507 724.711L496.859 623.659L503.747 622.861L497.909 724.711C497.783 725.551 497.069 726.265 496.187 726.265Z" fill="#77A4E5"/>
<path d="M456.161 726.265H456.035C455.153 726.265 454.481 725.551 454.481 724.711L456.833 623.659L463.721 622.861L457.883 724.711C457.757 725.551 457.043 726.265 456.161 726.265Z" fill="#77A4E5"/>
<path d="M566.622 726.265H566.748C567.63 726.265 568.302 725.551 568.302 724.711L565.95 623.659L559.062 622.861L564.9 724.711C564.984 725.551 565.74 726.265 566.622 726.265Z" fill="#77A4E5"/>
<path d="M451.625 617.359V548.101C451.625 535.921 461.495 526.051 473.675 526.051H523.571C535.751 526.051 545.621 535.921 545.621 548.101V620.005L451.625 617.359Z" fill="#77A4E5"/>
<path d="M554.567 628.278H458.219C454.565 628.278 451.583 625.296 451.583 621.642V617.316H554.525V628.278H554.567Z" fill="#77A4E5"/>
<path d="M566.117 628.278H493.247C490.559 628.278 488.333 626.094 488.333 623.364V622.23C488.333 619.542 490.517 617.316 493.247 617.316H566.117C568.805 617.316 571.031 619.5 571.031 622.23V623.364C571.031 626.094 568.805 628.278 566.117 628.278Z" fill="#77A4E5"/>
</g>
<path d="M620.634 685.943C621.348 689.429 626.304 688.841 631.848 687.497C637.392 686.153 636.09 687.749 643.944 686.867C651.798 685.985 654.234 683.045 654.444 681.869C654.654 680.819 650.748 680.441 646.59 679.979C646.044 679.937 645.54 679.853 644.994 679.769C640.29 679.181 636.804 676.115 632.52 673.637C628.446 671.285 622.398 661.625 622.398 661.625L611.562 662.465C611.562 662.465 617.232 671.075 619.416 674.855C620.718 677.081 620.634 679.979 620.466 682.247C620.466 683.465 620.382 684.725 620.634 685.943Z" fill="#FFB27D"/>
<path d="M631.848 687.498C637.392 686.154 636.09 687.75 643.944 686.868C651.798 685.986 654.234 683.046 654.444 681.87C654.654 680.82 650.748 680.442 646.59 679.98L646.548 680.064C646.548 680.064 641.802 683.424 635.25 683.592C629.916 683.718 624.246 682.206 620.55 682.248C620.466 683.466 620.382 684.726 620.634 685.944C621.348 689.43 626.304 688.842 631.848 687.498Z" fill="#233862"/>
<path d="M527.646 701.526C525.504 704.34 529.2 707.7 533.904 710.934C538.608 714.168 536.508 714.252 542.388 719.628C548.268 725.004 552.048 724.794 553.098 724.206C554.022 723.66 551.712 720.51 549.318 717.066C549.024 716.646 548.73 716.184 548.394 715.764C545.706 711.816 545.706 707.238 544.74 702.366C543.816 697.746 551.376 680.778 551.376 680.778L539.28 679.266C539.28 679.266 537.684 689.514 536.34 693.63C535.542 696.066 532.182 697.662 530.376 699.006C529.41 699.762 528.402 700.518 527.646 701.526Z" fill="#FFB27D"/>
<path d="M533.904 710.933C538.566 714.209 536.508 714.251 542.388 719.627C548.268 725.003 552.048 724.793 553.098 724.205C554.022 723.659 551.712 720.509 549.318 717.065L549.234 717.107C549.234 717.107 543.606 715.763 539.112 710.975C535.458 707.027 532.854 701.777 530.376 699.047C529.41 699.803 528.402 700.559 527.646 701.567C525.504 704.339 529.242 707.699 533.904 710.933Z" fill="#233862"/>
<path d="M577.08 614.838L566.034 644.574L551.586 683.424C551.586 683.424 547.68 683.802 543.9 682.71C540.456 681.702 536.466 679.098 536.466 679.098C536.466 679.098 540.456 637.392 547.932 613.452C549.864 607.32 552.006 602.322 554.358 599.55C566.034 585.858 577.08 614.838 577.08 614.838Z" fill="#163560"/>
<path d="M565.866 567.629C558.642 565.277 536.802 566.705 516.054 570.737L512.862 565.193L468.048 561.707C468.048 561.707 453.264 594.509 461.37 615.383C462.546 618.449 464.94 620.423 468.972 620.507H469.644C469.644 620.507 496.314 620.507 504.966 620.507C527.268 620.507 552.132 605.177 555.366 604.547C560.616 603.497 562.758 614.039 568.008 625.085C573.258 636.131 617.526 674.057 617.526 674.057C617.526 674.057 624.33 674.141 627.144 673.091C630.168 671.957 631.26 670.487 631.26 670.487C631.26 670.487 582.204 572.879 565.866 567.629Z" fill="#2A4E96"/>
<path d="M497.154 429.534C490.854 428.022 482.286 429.786 480.858 429.954C463.848 431.928 460.026 458.388 461.286 465.78C463.638 479.388 457.086 483.252 449.274 494.13C433.608 515.97 444.444 533.988 457.17 538.44C464.814 541.128 475.23 533.82 475.23 533.82C475.44 533.904 502.278 508.242 515.592 495.768C537.978 486.57 513.24 433.356 497.154 429.534Z" fill="#233862"/>
<path d="M500.807 491.862C500.891 491.904 493.877 496.482 488.165 495.516C482.789 494.634 477.119 487.62 477.161 487.578C479.345 486.906 481.235 484.386 479.891 471.324L480.899 471.408L498.077 473.046C498.077 473.046 498.245 478.38 498.707 483.378C499.169 487.536 499.799 491.484 500.807 491.862Z" fill="#FFB27D"/>
<path d="M498.119 473.046C498.119 473.046 498.287 478.38 498.749 483.378C489.299 484.05 483.461 475.944 480.941 471.408L498.119 473.046Z" fill="#ED975D"/>
<path d="M501.732 477.455C501.732 477.455 479.472 480.059 478.086 466.157C476.7 452.255 472.878 443.267 486.99 440.999C501.144 438.731 504.42 443.771 506.058 448.307C507.696 452.843 507.486 476.405 501.732 477.455Z" fill="#FFB27D"/>
<path d="M503.369 441.168C503.369 441.168 492.617 456.54 483.503 459.9C474.389 463.26 470.063 461.16 470.063 461.16C470.063 461.16 474.431 455.154 475.859 446.922C476.279 444.486 477.959 442.47 480.311 441.672C486.863 439.362 499.463 435.834 503.369 441.168Z" fill="#233862"/>
<path d="M494.508 442.301C494.508 442.301 500.262 445.577 502.53 448.517C504.756 451.331 507.108 458.849 506.772 462.167C506.772 462.167 510.384 446.375 504.588 440.621C498.456 434.573 494.508 442.301 494.508 442.301Z" fill="#233862"/>
<path d="M517.944 528.696C517.272 573.636 517.776 564.27 512.862 568.512C511.686 569.52 508.326 570.15 503.958 570.444C490.182 571.368 465.948 569.1 465.024 566.538C461.832 557.718 464.1 554.988 461.454 541.506C461.16 540.078 460.824 538.524 460.446 536.844C458.22 527.562 456.078 524.412 463.932 509.544C471.03 496.062 478.716 485.268 479.388 485.688C498.162 496.818 499.38 487.284 499.38 487.284C499.38 487.284 518.238 506.772 517.944 528.696Z" fill="white"/>
<path d="M566.034 644.573L551.292 685.019C551.292 685.019 546 686.741 542.136 686.195C538.188 685.607 536.046 683.465 536.046 683.465C536.046 683.465 540.54 637.391 548.016 613.451L566.034 644.573Z" fill="#2A4E96"/>
<path d="M499.338 487.242C499.338 487.242 518.658 490.518 520.926 498.834C523.194 507.15 539.784 552.972 539.784 552.972C539.784 552.972 526.722 557.802 522.186 553.266C517.65 548.73 506.394 511.182 506.394 511.182L499.338 487.242Z" fill="white"/>
<path d="M503.915 570.443C490.139 571.367 465.905 569.099 464.981 566.537C461.789 557.717 464.057 554.987 461.411 541.505L467.879 526.805C467.879 526.805 466.955 543.647 473.129 549.149C479.261 554.651 498.287 559.733 501.269 564.311C502.697 566.453 503.663 568.679 503.915 570.443Z" fill="#DFEBFD"/>
<path d="M505.05 560.826C505.05 560.826 509.166 564.354 510.342 564.648C511.518 564.942 512.19 564.648 512.19 564.648L509.208 561.162L505.05 560.826Z" fill="#FFB27D"/>
<path d="M503.412 556.668L513.786 559.356C513.786 559.356 513.534 560.112 512.358 560.28C511.182 560.448 508.032 559.986 508.032 559.986L503.412 556.668Z" fill="#FFB27D"/>
<path d="M485.813 562.422C485.813 562.422 500.639 555.828 503.453 556.71C506.267 557.592 513.365 561.372 514.499 562.968C515.633 564.564 508.662 562.758 506.478 562.632C505.05 562.548 501.816 564.48 500.178 565.404C493.332 569.31 488.586 568.974 488.586 568.974L485.813 562.422Z" fill="#FFB27D"/>
<path d="M479.346 485.645C479.346 485.645 458.346 489.593 454.482 495.389C445.998 508.073 427.938 560.699 438.06 567.755C449.442 575.693 489.888 569.812 489.888 569.812C489.888 569.812 491.232 563.513 489.342 560.489C487.452 557.465 457.044 552.508 455.616 551.122C454.23 549.736 469.476 529.408 467.88 525.502C462.672 513.07 479.346 485.645 479.346 485.645Z" fill="white"/>
<path d="M562.295 560.154C562.295 560.154 576.995 564.102 578.507 566.412C580.019 568.68 582.959 575.652 582.833 577.5C582.707 579.306 578.717 573.888 577.205 572.502C576.239 571.62 572.711 571.074 570.989 570.78C566.621 570.066 564.521 568.092 562.883 567.084C561.791 566.412 560.447 566.538 560.447 566.538L562.295 560.154Z" fill="#FFB27D"/>
<path d="M577.247 570.402C577.247 570.402 578.129 575.4 578.801 576.282C579.473 577.164 580.103 577.374 580.103 577.374L580.019 573.048L577.247 570.402Z" fill="#FFB27D"/>
<path d="M578.507 566.412L584.471 574.518C584.471 574.518 583.841 574.896 582.875 574.35C581.909 573.804 579.893 571.578 579.893 571.578L578.507 566.412Z" fill="#FFB27D"/>
<path d="M562.883 567.084C562.883 567.084 564.227 570.402 566.957 571.578C569.687 572.754 571.661 574.56 572.123 573.888C572.543 573.258 570.065 569.898 570.065 569.898L562.883 567.084Z" fill="#FFB27D"/>
<path d="M535.878 542.135L566.79 561.665C566.79 561.665 563.556 565.991 562.464 566.411C556.752 568.511 531.006 566.495 522.186 553.265L535.878 542.135Z" fill="white"/>
<path d="M523.614 563.346C525.42 563.346 543.564 562.086 543.564 562.086C543.564 562.086 543.06 565.32 544.152 567L526.47 570.402L522.858 569.352L523.614 563.346Z" fill="#F9DDBF"/>
<path d="M493.374 566.285L523.614 563.387C523.614 563.387 522.564 568.973 526.512 570.443L493.164 572.879C493.164 572.879 490.476 569.057 493.374 566.285Z" fill="#FFCFCF"/>
<path d="M543.522 562.505L523.068 564.059C523.068 564.059 523.236 563.345 523.614 563.345C523.992 563.345 543.942 561.875 543.942 561.875L543.858 562.421L543.522 562.505Z" fill="#FFCFCF"/>
<path d="M526.512 570.401L544.488 566.999L544.362 566.537L525.168 570.191L526.512 570.401Z" fill="#FFCFCF"/>
<path d="M317.015 726.096H316.847C315.881 726.096 315.125 725.298 315.125 724.332L317.729 611.478L325.373 610.596L318.863 724.332C318.779 725.34 317.981 726.096 317.015 726.096Z" fill="#77A4E5"/>
<path d="M272.578 726.096H272.41C271.444 726.096 270.688 725.298 270.688 724.332L273.292 611.478L280.936 610.596L274.426 724.332C274.342 725.34 273.544 726.096 272.578 726.096Z" fill="#77A4E5"/>
<path d="M395.177 726.096H395.345C396.311 726.096 397.067 725.298 397.067 724.332L394.463 611.478L386.819 610.596L393.329 724.332C393.371 725.34 394.211 726.096 395.177 726.096Z" fill="#77A4E5"/>
<path d="M267.539 604.505V527.183C267.539 513.575 278.501 502.529 292.025 502.529H347.423C360.947 502.529 371.909 513.575 371.909 527.183V607.445L267.539 604.505Z" fill="#77A4E5"/>
<path d="M381.821 616.685H274.889C270.815 616.685 267.497 613.367 267.497 609.293V604.463H381.779V616.685H381.821Z" fill="#77A4E5"/>
<path d="M394.631 616.685H313.739C310.715 616.685 308.279 614.249 308.279 611.225V609.923C308.279 606.899 310.715 604.463 313.739 604.463H394.589C397.613 604.463 400.049 606.899 400.049 609.923V611.225C400.049 614.249 397.613 616.685 394.631 616.685Z" fill="#77A4E5"/>
<path d="M351.119 473.971C351.119 473.971 346.499 477.919 345.491 488.125C344.735 495.895 350.111 556.165 354.185 560.953C365.609 574.435 379.889 568.723 385.475 570.781L390.767 566.035C390.767 566.035 372.203 552.343 370.775 547.849C365.315 530.671 368.675 480.481 351.119 473.971Z" fill="#F9DDBF"/>
<path d="M347.801 424.83C347.801 424.83 348.095 413.784 333.521 411.6C318.947 409.416 314.915 412.86 312.437 416.556C309.959 420.294 305.297 435.456 305.759 441.504C306.221 447.552 322.853 455.028 322.601 458.556C322.307 462.042 347.801 424.83 347.801 424.83Z" fill="#21201D"/>
<path d="M415.421 716.562C414.959 720.3 420.041 721.392 425.963 721.938C431.885 722.442 430.037 723.618 438.143 725.424C446.207 727.23 449.567 725.088 450.197 723.996C450.743 723.03 447.047 721.35 443.057 719.418C442.553 719.166 442.049 718.956 441.545 718.704C437.093 716.52 434.699 712.278 431.297 708.288C428.063 704.508 425.291 692.748 425.291 692.748L414.329 689.934C414.329 689.934 417.059 700.518 417.983 705.054C418.529 707.7 417.479 710.598 416.555 712.824C416.093 714 415.589 715.218 415.421 716.562Z" fill="#9B623B"/>
<path d="M425.963 721.896C431.885 722.4 430.037 723.576 438.143 725.382C446.207 727.188 449.567 725.046 450.197 723.954C450.743 722.988 447.047 721.308 443.057 719.376L442.973 719.46C442.973 719.46 437.177 721.224 430.625 719.166C425.291 717.486 420.209 714 416.513 712.824C416.009 714.042 415.547 715.26 415.379 716.562C414.959 720.3 420.041 721.392 425.963 721.896Z" fill="#233862"/>
<path d="M333.269 564.227C333.269 564.227 406.643 571.83 418.739 583.086C430.835 594.3 428.693 698.963 428.693 698.963C426.803 700.937 425.417 700.853 422.435 700.643C419.579 700.433 413.741 697.956 413.741 697.956C413.741 697.956 398.033 646.589 397.823 634.661C397.613 622.775 395.135 602.574 390.137 601.398C385.139 600.222 325.751 606.858 319.241 588.126C312.731 569.352 323.525 553.938 323.525 553.938L333.269 564.227Z" fill="#E0B3B3"/>
<path d="M298.997 583.087C302.147 585.187 307.817 588.463 317.309 588.799C334.319 589.429 355.529 587.371 359.687 583.465C360.779 582.457 361.283 580.777 361.451 578.635C361.913 572.125 358.805 561.373 356.705 552.511C355.361 546.757 354.437 541.759 355.193 539.197C357.503 531.427 364.643 515.635 365.273 510.469C365.903 505.261 359.687 477.457 351.119 474.013C342.551 470.569 309.497 474.013 309.497 474.013C296.561 476.617 296.015 504.169 300.341 527.605C300.467 528.193 300.551 528.823 300.677 529.411C305.297 553.183 290.177 577.165 298.997 583.087Z" fill="#F9DDBF"/>
<path d="M341.711 479.052C341.459 480.564 337.343 483 328.523 480.69C320.039 478.464 319.031 475.692 319.031 473.886C319.031 471.744 322.727 468.846 322.685 455.574L323.693 455.784L340.787 459.186C340.787 459.186 340.409 464.562 340.367 469.602C340.325 473.802 342.089 476.532 341.711 479.052Z" fill="#9B623B"/>
<path d="M340.745 459.101C340.745 459.101 340.367 464.477 340.325 469.517C330.749 469.265 325.709 460.529 323.651 455.699L340.745 459.101Z" fill="#5C3418"/>
<path d="M343.938 463.932C343.938 463.932 321.342 464.31 321.3 450.24C321.3 436.17 318.36 426.72 332.808 425.88C347.256 425.04 350.07 430.416 351.204 435.12C352.338 439.782 349.818 463.47 343.938 463.932Z" fill="#9B623B"/>
<path d="M343.097 425.502C343.097 425.502 336.923 442.008 327.389 444.486C317.897 446.922 313.781 444.402 313.781 444.402C313.781 444.402 321.047 438.606 322.559 428.526C322.601 428.484 338.435 417.648 343.097 425.502Z" fill="#181715"/>
<path d="M341.585 426.845C341.585 426.845 346.205 430.541 347.339 434.111C348.473 437.681 348.977 445.073 351.119 444.821C351.119 444.821 355.781 433.607 350.531 427.223C344.945 420.503 341.585 426.845 341.585 426.845Z" fill="#21201D"/>
<path d="M360.318 719.628C360.276 723.408 365.442 723.912 371.406 723.744C377.37 723.576 375.648 724.962 383.88 725.802C392.112 726.642 395.178 724.122 395.682 722.988C396.144 721.938 392.238 720.72 388.08 719.292C387.576 719.124 387.03 718.914 386.526 718.746C381.864 717.066 379.008 713.16 375.186 709.59C371.574 706.23 379.554 689.934 379.554 689.934L369.096 684.768C369.096 684.768 367.122 696.402 364.56 706.566C363.888 709.212 361.746 713.538 361.074 715.806C360.696 717.024 360.36 718.284 360.318 719.628Z" fill="#9B623B"/>
<path d="M299.459 580.271C302.609 582.371 307.817 588.461 317.351 588.797C333.017 585.227 350.867 581.069 361.493 578.591C361.955 572.081 358.847 561.329 356.747 552.467C344.357 556.247 325.961 543.353 319.745 538.271C313.235 532.937 313.445 515.129 313.445 515.129L300.341 527.561C300.467 528.149 300.551 528.779 300.677 529.367C305.297 553.181 290.597 574.391 299.459 580.271Z" fill="#F2CCAA"/>
<path d="M371.406 723.744C377.37 723.576 375.648 724.962 383.88 725.802C392.112 726.642 395.178 724.122 395.682 722.988C396.144 721.938 392.238 720.72 388.08 719.292L388.038 719.376C388.038 719.376 382.494 721.812 375.732 720.51C370.23 719.46 364.812 716.604 361.032 715.848C360.696 717.108 360.318 718.368 360.318 719.712C360.276 723.366 365.442 723.912 371.406 723.744Z" fill="#233862"/>
<path d="M317.435 568.681C336.083 568.135 391.691 572.587 402.401 580.651C415.547 590.563 377.957 697.831 377.957 697.831C377.957 697.831 373.589 698.251 372.203 698.083C366.239 697.411 363.803 695.605 363.803 695.605C363.803 695.605 363.929 632.479 368.339 620.383C372.413 609.211 374.891 605.263 369.809 604.591C364.727 603.919 301.265 612.025 295.973 592.873C291.857 577.921 297.947 564.061 297.947 564.061C297.947 564.061 300.257 569.185 317.435 568.681Z" fill="#FFCFCF"/>
<path d="M309.497 473.969C309.497 473.969 296.561 475.061 295.553 485.309C294.797 493.079 289.169 548.141 293.201 552.929C304.625 566.411 342.635 569.268 348.221 571.326L349.775 564.941C349.775 564.941 309.161 544.488 309.791 539.826C310.421 535.206 321.887 472.121 309.497 473.969Z" fill="#F9DDBF"/>
<path d="M319.493 417.144C319.493 417.144 320.417 411.264 312.227 409.71C304.037 408.198 303.911 425.586 303.029 429.744C302.147 433.944 304.331 436.464 307.439 436.716C310.547 436.968 319.493 417.144 319.493 417.144Z" fill="#21201D"/>
<path d="M350.195 564.692C350.195 564.692 361.745 561.416 364.517 562.172C367.289 562.928 376.697 569.186 375.395 570.866C374.051 572.546 365.735 569.858 361.913 570.362C358.091 570.866 355.109 572.756 352.379 572.336C349.607 571.916 346.751 570.866 346.751 570.866L350.195 564.692Z" fill="#9B623B"/>
<path d="M350.195 564.691C350.195 564.691 355.865 561.793 357.461 560.113C357.671 559.903 358.007 559.945 358.175 560.197C358.595 560.869 359.015 562.171 357.041 563.515C354.185 565.363 350.195 564.691 350.195 564.691Z" fill="#9B623B"/>
<path d="M390.726 566.076C390.726 566.076 402.738 566.748 405.09 568.344C407.442 569.982 414.33 578.928 412.524 580.104C410.718 581.28 403.746 576.03 399.966 575.274C396.186 574.518 392.784 575.358 390.306 574.056C387.828 572.754 385.476 570.822 385.476 570.822L390.726 566.076Z" fill="#9B623B"/>
<path d="M308.321 727.063H259.475C257.123 724.207 258.005 713.623 258.341 710.179C258.425 709.465 258.467 709.087 258.467 709.087C258.467 709.087 275.141 695.773 277.409 705.979C277.493 706.315 277.577 706.609 277.661 706.903C280.559 716.437 293.495 720.805 300.971 722.023C305.843 722.779 307.649 725.299 308.321 727.063Z" fill="#1B3051"/>
<path d="M175.098 568.428C176.862 568.428 258.72 583.8 272.244 600.558C279.006 608.916 280.014 705.642 280.014 705.642C280.014 705.642 271.656 716.016 253.554 710.01C253.554 710.01 240.282 643.86 241.29 623.784C241.542 618.24 185.346 622.986 175.056 620.298C164.766 617.652 139.65 595.266 145.194 584.346C150.78 573.468 175.098 568.428 175.098 568.428Z" fill="#233862"/>
<path d="M234.359 563.893C234.359 563.893 239.609 568.429 244.985 569.689C248.051 570.403 251.033 571.243 252.797 572.041C257.669 574.267 266.867 584.221 266.027 585.229C263.297 588.421 252.209 580.147 250.067 580.735C247.967 581.323 253.553 586.111 251.327 587.413C250.151 588.085 247.967 583.927 245.951 583.339C243.179 582.541 241.373 578.383 240.533 578.089C238.937 577.543 232.175 571.495 232.175 571.495L234.359 563.893Z" fill="#FFB27D"/>
<path d="M329.91 727.063H281.064C278.712 724.207 279.594 713.623 279.93 710.179C280.014 709.465 280.056 709.087 280.056 709.087C280.056 709.087 296.73 695.773 298.998 705.979C299.082 706.315 299.166 706.609 299.25 706.903C302.148 716.437 315.084 720.805 322.56 722.023C327.432 722.779 329.238 725.299 329.91 727.063Z" fill="#1E3C68"/>
<path d="M199.247 568.428C201.011 568.428 282.869 583.8 296.393 600.558C303.155 608.916 304.163 705.642 304.163 705.642C304.163 705.642 295.805 716.016 277.703 710.01C277.703 710.01 264.431 643.86 265.439 623.784C265.691 618.24 209.495 622.986 199.205 620.298C188.915 617.652 163.799 595.266 169.343 584.346C174.887 573.468 199.247 568.428 199.247 568.428Z" fill="#2B478B"/>
<path d="M194.123 468.973C188.243 468.469 182.069 466.915 176.735 465.193C170.057 463.009 164.681 459.859 168.167 453.769C171.359 448.141 176.525 435.583 176.189 425.209L188.621 435.205L197.063 442.009C197.063 442.009 197.021 445.999 196.097 453.055C195.929 454.315 195.719 455.701 195.509 457.213C195.341 458.389 195.887 459.607 196.895 460.237C196.979 460.279 197.021 460.321 197.105 460.363C201.179 462.925 199.037 469.351 194.123 468.973Z" fill="#FFB27D"/>
<path d="M196.979 440.328C196.979 440.328 197.399 441.798 196.685 447.132C189.167 445.914 182.153 439.908 182.153 439.908C185.975 438.858 187.361 434.742 190.217 435.12L196.979 440.328Z" fill="#ED975D"/>
<path d="M203.951 441.545C203.951 441.545 175.055 446.333 172.325 428.315C169.595 410.255 164.051 398.705 182.405 394.883C200.759 391.061 205.379 397.403 207.773 403.199C210.083 408.995 211.385 439.823 203.951 441.545Z" fill="#FFB27D"/>
<path d="M211.973 395.22C213.233 399.588 209.873 404.88 204.329 406.602C196.055 409.206 197.861 419.328 194.165 419.202C190.427 419.076 188.915 413.364 185.597 417.9C182.741 421.764 187.949 426.384 187.613 428.526C186.983 432.18 181.271 439.656 176.105 439.278C170.939 438.9 161.279 414.372 163.211 406.77C165.143 399.168 172.871 391.188 180.179 390.054C187.487 388.962 197.651 392.112 200.003 392.112C202.313 392.154 211.301 392.868 211.973 395.22Z" fill="#2B478B"/>
<path d="M219.155 563.01C218.651 567.168 217.811 570.024 216.425 570.948C212.099 573.846 206.387 577.416 200.003 580.986C177.365 593.586 146.411 605.766 140.111 584.472C132.719 559.44 137.591 512.442 144.815 483.21C148.973 466.368 160.565 448.728 168.335 448.77C181.649 448.812 200.759 452.298 208.487 471.366C211.469 478.758 215.879 504.336 218.105 527.772C219.491 541.716 220.079 554.904 219.155 563.01Z" fill="white"/>
<path d="M167.033 448.896L170.057 442.092C170.057 442.092 196.769 444.822 201.305 460.152C201.305 460.194 180.641 449.232 167.033 448.896Z" fill="#DFEBFD"/>
<path d="M219.155 563.01C218.651 567.168 217.811 570.024 216.425 570.948C212.099 573.846 206.387 577.416 200.003 580.986C193.367 576.954 179.675 567.294 176.483 555.912C172.325 541.044 175.223 522.732 175.223 522.732L219.155 563.01Z" fill="#DFEBFD"/>
<path d="M172.451 471.828C172.451 471.828 174.761 535.794 178.415 548.436C184.631 569.982 241.163 577.668 241.163 577.668C241.163 577.668 244.481 573.888 243.011 567.63C243.011 567.63 209.201 540.96 208.193 535.92C207.185 530.838 215.543 496.482 206.009 483.966C196.475 471.408 178.877 460.572 172.451 471.828Z" fill="white"/>
<path d="M101.556 726.474H101.388C99.8757 726.432 98.6997 725.214 98.8257 723.786L108.99 622.314L117.852 623.112L103.278 725.13C103.152 725.886 102.396 726.474 101.556 726.474Z" fill="#77A4E5"/>
<path d="M153.845 726.474H153.677C152.165 726.432 150.989 725.214 151.115 723.786L161.279 622.314L170.141 623.112L155.567 725.13C155.441 725.886 154.685 726.474 153.845 726.474Z" fill="#77A4E5"/>
<path d="M252.041 726.474H252.209C253.721 726.432 254.897 725.214 254.771 723.786L244.607 622.314L235.745 623.112L250.319 725.13C250.445 725.886 251.159 726.474 252.041 726.474Z" fill="#77A4E5"/>
<path d="M104.411 607.908L94.7513 523.152C93.4913 510.93 97.5653 498.96 115.205 498.036L146.201 496.146C164.597 495.39 172.871 510.678 175.181 522.438L193.577 615.594L104.411 607.908Z" fill="#77A4E5"/>
<path d="M109.619 623.783H247.211C249.983 623.783 252.251 621.515 252.251 618.743V612.569C252.251 609.797 249.983 607.529 247.211 607.529H104.579V618.743C104.579 621.515 106.847 623.783 109.619 623.783Z" fill="#77A4E5"/>
<path d="M108.485 623.783H189.755C191.897 623.783 193.661 622.019 193.661 619.877V611.435C193.661 609.293 191.897 607.529 189.755 607.529H104.579V619.877C104.579 622.019 106.343 623.783 108.485 623.783Z" fill="#77A4E5"/>
<path d="M1287.89 730.842H62.9573C61.9913 730.842 61.2354 730.044 61.2354 729.12V727.566C61.2354 726.6 62.0333 725.844 62.9573 725.844H1287.89C1288.85 725.844 1289.61 726.642 1289.61 727.566V729.12C1289.61 730.044 1288.81 730.842 1287.89 730.842Z" fill="#2E3552"/>
<path d="M322.475 350.49H274.847C272.663 350.49 270.857 348.684 270.857 346.5V300.51C270.857 298.326 272.663 296.52 274.847 296.52H322.475C324.659 296.52 326.465 298.326 326.465 300.51V346.5C326.465 348.684 324.659 350.49 322.475 350.49Z" fill="#77A4E5"/>
<path d="M320.417 348.138H276.905C274.889 348.138 273.293 346.5 273.293 344.526V302.526C273.293 300.51 274.931 298.914 276.905 298.914H320.417C322.433 298.914 324.029 300.552 324.029 302.526V344.526C324.029 346.5 322.433 348.138 320.417 348.138Z" fill="#DFEBFD"/>
<path d="M298.661 304.961C299.288 304.961 299.795 304.454 299.795 303.827C299.795 303.201 299.288 302.693 298.661 302.693C298.035 302.693 297.527 303.201 297.527 303.827C297.527 304.454 298.035 304.961 298.661 304.961Z" fill="#77A4E5"/>
<path d="M306.809 305.423C307.103 304.877 307.817 304.667 308.363 304.961C308.909 305.255 309.119 305.969 308.825 306.515C308.531 307.061 307.817 307.271 307.271 306.977C306.683 306.683 306.473 306.011 306.809 305.423Z" fill="#77A4E5"/>
<path d="M314.747 311.765C315.293 311.429 316.007 311.555 316.343 312.101C316.679 312.647 316.553 313.361 316.007 313.697C315.461 314.033 314.747 313.907 314.411 313.361C314.075 312.815 314.243 312.101 314.747 311.765Z" fill="#77A4E5"/>
<path d="M318.696 321.551C319.326 321.551 319.83 322.055 319.83 322.685C319.83 323.315 319.326 323.819 318.696 323.819C318.066 323.819 317.562 323.315 317.562 322.685C317.562 322.055 318.066 321.551 318.696 321.551Z" fill="#77A4E5"/>
<path d="M315.881 334.866C316.507 334.866 317.015 334.358 317.015 333.732C317.015 333.105 316.507 332.598 315.881 332.598C315.255 332.598 314.747 333.105 314.747 333.732C314.747 334.358 315.255 334.866 315.881 334.866Z" fill="#77A4E5"/>
<path d="M309.455 340.157C309.917 340.619 309.917 341.333 309.455 341.795C308.993 342.257 308.279 342.257 307.817 341.795C307.355 341.333 307.355 340.619 307.817 340.157C308.279 339.695 308.993 339.695 309.455 340.157Z" fill="#77A4E5"/>
<path d="M298.661 345.03C299.288 345.03 299.795 344.522 299.795 343.896C299.795 343.269 299.288 342.762 298.661 342.762C298.035 342.762 297.527 343.269 297.527 343.896C297.527 344.522 298.035 345.03 298.661 345.03Z" fill="#77A4E5"/>
<path d="M290.471 305.423C290.177 304.877 289.463 304.667 288.917 304.961C288.371 305.255 288.161 305.969 288.455 306.515C288.749 307.061 289.463 307.271 290.009 306.977C290.597 306.683 290.807 306.011 290.471 305.423Z" fill="#77A4E5"/>
<path d="M282.533 311.765C281.987 311.429 281.273 311.555 280.937 312.101C280.601 312.647 280.727 313.361 281.273 313.697C281.819 314.033 282.533 313.907 282.869 313.361C283.205 312.815 283.079 312.101 282.533 311.765Z" fill="#77A4E5"/>
<path d="M278.585 321.551C277.955 321.551 277.451 322.055 277.451 322.685C277.451 323.315 277.955 323.819 278.585 323.819C279.215 323.819 279.719 323.315 279.719 322.685C279.719 322.055 279.215 321.551 278.585 321.551Z" fill="#77A4E5"/>
<path d="M281.4 334.866C282.026 334.866 282.534 334.358 282.534 333.732C282.534 333.105 282.026 332.598 281.4 332.598C280.773 332.598 280.266 333.105 280.266 333.732C280.266 334.358 280.773 334.866 281.4 334.866Z" fill="#77A4E5"/>
<path d="M287.825 340.157C287.363 340.619 287.363 341.333 287.825 341.795C288.287 342.257 289.001 342.257 289.463 341.795C289.925 341.333 289.925 340.619 289.463 340.157C289.001 339.695 288.287 339.695 287.825 340.157Z" fill="#77A4E5"/>
<path d="M298.367 322.687C298.367 322.057 298.871 321.553 299.501 321.553C300.131 321.553 300.635 322.057 300.635 322.687C300.635 323.317 300.131 323.821 299.501 323.821C298.871 323.863 298.367 323.317 298.367 322.687Z" fill="#77A4E5"/>
<path d="M299.627 308.322H299.333V322.728H299.627V308.322Z" fill="#77A4E5"/>
<path d="M306.703 316.286L299.071 322.277L299.642 323.004L307.273 317.013L306.703 316.286Z" fill="#77A4E5"/>
<path d="M115.72 222H113.352V201.168H105.64V199.024H123.432V201.168H115.72V222ZM128.735 212.176V222H126.495V199.024H128.735V208.24C129.247 207.237 129.972 206.416 130.911 205.776C131.849 205.136 132.927 204.816 134.143 204.816C135.892 204.816 137.289 205.36 138.335 206.448C139.401 207.536 139.935 209.072 139.935 211.056V222H137.695V211.824C137.695 210.203 137.332 208.955 136.607 208.08C135.903 207.205 134.857 206.768 133.47 206.768C132.596 206.768 131.796 207.003 131.071 207.472C130.345 207.92 129.769 208.549 129.343 209.36C128.937 210.171 128.735 211.109 128.735 212.176ZM151.275 222.32C149.696 222.32 148.309 221.957 147.115 221.232C145.941 220.485 145.024 219.44 144.363 218.096C143.723 216.752 143.403 215.195 143.403 213.424C143.403 211.781 143.733 210.32 144.395 209.04C145.077 207.739 145.995 206.715 147.147 205.968C148.32 205.2 149.653 204.816 151.147 204.816C152.341 204.816 153.419 205.051 154.379 205.52C155.36 205.968 156.181 206.608 156.843 207.44C157.525 208.272 158.027 209.253 158.347 210.384C158.688 211.493 158.805 212.731 158.699 214.096H144.619V212.56H156.363C156.277 210.661 155.765 209.189 154.827 208.144C153.909 207.077 152.672 206.544 151.115 206.544C150.027 206.544 149.067 206.832 148.235 207.408C147.424 207.963 146.784 208.752 146.315 209.776C145.845 210.8 145.611 212.016 145.611 213.424C145.611 214.875 145.835 216.144 146.283 217.232C146.731 218.299 147.371 219.12 148.203 219.696C149.056 220.272 150.069 220.56 151.243 220.56C152.651 220.56 153.813 220.187 154.731 219.44C155.669 218.672 156.277 217.627 156.555 216.304H158.763C158.379 218.16 157.515 219.632 156.171 220.72C154.848 221.787 153.216 222.32 151.275 222.32ZM183.136 222L178.72 208.112L174.336 222H172.064L167.136 205.136H169.344L173.248 218.832L177.632 205.136H179.84L184.192 218.864L188.096 205.136H190.336L185.376 222H183.136ZM199.653 222.32C198.501 222.32 197.434 222.107 196.453 221.68C195.471 221.253 194.618 220.645 193.893 219.856C193.189 219.067 192.634 218.139 192.229 217.072C191.845 216.005 191.653 214.832 191.653 213.552C191.653 212.293 191.845 211.131 192.229 210.064C192.634 208.997 193.189 208.08 193.893 207.312C194.618 206.523 195.471 205.915 196.453 205.488C197.434 205.061 198.501 204.848 199.653 204.848C200.826 204.848 201.903 205.061 202.885 205.488C203.866 205.915 204.709 206.523 205.413 207.312C206.138 208.08 206.693 208.997 207.077 210.064C207.482 211.131 207.685 212.293 207.685 213.552C207.685 214.832 207.482 216.005 207.077 217.072C206.693 218.139 206.138 219.067 205.413 219.856C204.709 220.645 203.866 221.253 202.885 221.68C201.903 222.107 200.826 222.32 199.653 222.32ZM199.653 220.4C200.762 220.4 201.743 220.123 202.597 219.568C203.471 218.992 204.154 218.192 204.645 217.168C205.157 216.144 205.413 214.939 205.413 213.552C205.413 212.165 205.157 210.971 204.645 209.968C204.154 208.965 203.471 208.187 202.597 207.632C201.743 207.077 200.762 206.8 199.653 206.8C198.565 206.8 197.583 207.077 196.709 207.632C195.855 208.187 195.173 208.965 194.661 209.968C194.17 210.971 193.925 212.165 193.925 213.552C193.925 214.939 194.17 216.144 194.661 217.168C195.173 218.192 195.855 218.992 196.709 219.568C197.583 220.123 198.565 220.4 199.653 220.4ZM213.547 212.976V222H211.307V205.136H213.387V208.976C213.984 207.739 214.859 206.747 216.011 206C217.163 205.253 218.432 204.88 219.819 204.88V207.216C218.646 207.173 217.579 207.376 216.619 207.824C215.68 208.272 214.934 208.933 214.379 209.808C213.824 210.683 213.547 211.739 213.547 212.976ZM224.797 222H222.557V199.024H224.797V222ZM228.403 213.552C228.403 211.824 228.701 210.309 229.299 209.008C229.917 207.685 230.781 206.661 231.891 205.936C233 205.189 234.312 204.816 235.827 204.816C237.085 204.816 238.227 205.157 239.251 205.84C240.275 206.501 241.064 207.44 241.619 208.656V199.024H243.859V222H241.779V218.448C241.181 219.664 240.36 220.613 239.315 221.296C238.291 221.979 237.128 222.32 235.827 222.32C234.312 222.32 233 221.957 231.891 221.232C230.781 220.485 229.917 219.451 229.299 218.128C228.701 216.805 228.403 215.28 228.403 213.552ZM230.675 213.552C230.675 215.707 231.176 217.381 232.179 218.576C233.181 219.771 234.504 220.368 236.147 220.368C237.256 220.368 238.216 220.091 239.027 219.536C239.859 218.981 240.499 218.192 240.947 217.168C241.416 216.123 241.651 214.896 241.651 213.488C241.651 212.08 241.405 210.875 240.915 209.872C240.445 208.869 239.795 208.101 238.963 207.568C238.152 207.035 237.213 206.768 236.147 206.768C234.504 206.768 233.181 207.365 232.179 208.56C231.176 209.755 230.675 211.419 230.675 213.552ZM257.641 222H255.401V205.136H257.641V222ZM258.313 201.232C258.313 201.723 258.142 202.128 257.801 202.448C257.481 202.768 257.043 202.928 256.489 202.928C255.977 202.928 255.55 202.768 255.209 202.448C254.867 202.128 254.697 201.723 254.697 201.232C254.697 200.741 254.867 200.347 255.209 200.048C255.55 199.728 255.977 199.568 256.489 199.568C257.043 199.568 257.481 199.728 257.801 200.048C258.142 200.347 258.313 200.741 258.313 201.232ZM275.103 217.296C275.103 218.853 274.516 220.08 273.343 220.976C272.169 221.872 270.537 222.32 268.447 222.32C266.356 222.32 264.692 221.819 263.455 220.816C262.239 219.813 261.545 218.448 261.375 216.72H263.519C263.583 217.915 264.063 218.864 264.959 219.568C265.855 220.272 267.017 220.624 268.447 220.624C269.833 220.624 270.911 220.368 271.679 219.856C272.468 219.344 272.863 218.608 272.863 217.648C272.863 216.816 272.596 216.187 272.063 215.76C271.529 215.312 270.623 214.96 269.343 214.704L266.911 214.224C265.311 213.925 264.095 213.392 263.263 212.624C262.431 211.835 262.015 210.832 262.015 209.616C262.015 208.677 262.271 207.845 262.783 207.12C263.316 206.395 264.041 205.829 264.959 205.424C265.897 205.019 266.975 204.816 268.191 204.816C269.492 204.816 270.623 205.04 271.583 205.488C272.564 205.915 273.343 206.533 273.919 207.344C274.495 208.155 274.815 209.125 274.879 210.256H272.767C272.66 209.083 272.201 208.176 271.391 207.536C270.58 206.875 269.513 206.544 268.191 206.544C266.996 206.544 266.025 206.8 265.279 207.312C264.553 207.824 264.191 208.528 264.191 209.424C264.191 210.256 264.457 210.896 264.991 211.344C265.545 211.792 266.452 212.133 267.711 212.368L270.239 212.848C271.903 213.168 273.129 213.691 273.919 214.416C274.708 215.141 275.103 216.101 275.103 217.296ZM298.674 205.136L290.034 228.176H287.634L290.098 221.776L283.41 205.136H285.81L291.25 219.088L296.402 205.136H298.674ZM307.528 222.32C306.376 222.32 305.309 222.107 304.328 221.68C303.346 221.253 302.493 220.645 301.768 219.856C301.064 219.067 300.509 218.139 300.104 217.072C299.72 216.005 299.528 214.832 299.528 213.552C299.528 212.293 299.72 211.131 300.104 210.064C300.509 208.997 301.064 208.08 301.768 207.312C302.493 206.523 303.346 205.915 304.328 205.488C305.309 205.061 306.376 204.848 307.528 204.848C308.701 204.848 309.778 205.061 310.76 205.488C311.741 205.915 312.584 206.523 313.288 207.312C314.013 208.08 314.568 208.997 314.952 210.064C315.357 211.131 315.56 212.293 315.56 213.552C315.56 214.832 315.357 216.005 314.952 217.072C314.568 218.139 314.013 219.067 313.288 219.856C312.584 220.645 311.741 221.253 310.76 221.68C309.778 222.107 308.701 222.32 307.528 222.32ZM307.528 220.4C308.637 220.4 309.618 220.123 310.472 219.568C311.346 218.992 312.029 218.192 312.52 217.168C313.032 216.144 313.288 214.939 313.288 213.552C313.288 212.165 313.032 210.971 312.52 209.968C312.029 208.965 311.346 208.187 310.472 207.632C309.618 207.077 308.637 206.8 307.528 206.8C306.44 206.8 305.458 207.077 304.584 207.632C303.73 208.187 303.048 208.965 302.536 209.968C302.045 210.971 301.8 212.165 301.8 213.552C301.8 214.939 302.045 216.144 302.536 217.168C303.048 218.192 303.73 218.992 304.584 219.568C305.458 220.123 306.44 220.4 307.528 220.4ZM329.966 215.216V205.136H332.174V222H330.094V218.96C329.667 219.941 328.974 220.752 328.014 221.392C327.054 222.011 325.955 222.32 324.718 222.32C323.587 222.32 322.585 222.107 321.71 221.68C320.857 221.232 320.195 220.549 319.726 219.632C319.257 218.693 319.022 217.52 319.022 216.112V205.136H321.262V215.632C321.262 217.339 321.646 218.565 322.414 219.312C323.182 220.037 324.153 220.4 325.326 220.4C326.222 220.4 327.011 220.176 327.694 219.728C328.398 219.28 328.953 218.661 329.358 217.872C329.763 217.083 329.966 216.197 329.966 215.216ZM339.266 212.976V222H337.026V205.136H339.106V208.976C339.703 207.739 340.578 206.747 341.73 206C342.882 205.253 344.151 204.88 345.538 204.88V207.216C344.364 207.173 343.298 207.376 342.338 207.824C341.399 208.272 340.652 208.933 340.098 209.808C339.543 210.683 339.266 211.739 339.266 212.976ZM361.715 222.32C360.563 222.32 359.497 222.107 358.515 221.68C357.534 221.253 356.681 220.645 355.955 219.856C355.251 219.067 354.697 218.139 354.291 217.072C353.907 216.005 353.715 214.832 353.715 213.552C353.715 212.293 353.907 211.131 354.291 210.064C354.697 208.997 355.251 208.08 355.955 207.312C356.681 206.523 357.534 205.915 358.515 205.488C359.497 205.061 360.563 204.848 361.715 204.848C362.889 204.848 363.966 205.061 364.947 205.488C365.929 205.915 366.771 206.523 367.475 207.312C368.201 208.08 368.755 208.997 369.139 210.064C369.545 211.131 369.747 212.293 369.747 213.552C369.747 214.832 369.545 216.005 369.139 217.072C368.755 218.139 368.201 219.067 367.475 219.856C366.771 220.645 365.929 221.253 364.947 221.68C363.966 222.107 362.889 222.32 361.715 222.32ZM361.715 220.4C362.825 220.4 363.806 220.123 364.659 219.568C365.534 218.992 366.217 218.192 366.707 217.168C367.219 216.144 367.475 214.939 367.475 213.552C367.475 212.165 367.219 210.971 366.707 209.968C366.217 208.965 365.534 208.187 364.659 207.632C363.806 207.077 362.825 206.8 361.715 206.8C360.627 206.8 359.646 207.077 358.771 207.632C357.918 208.187 357.235 208.965 356.723 209.968C356.233 210.971 355.987 212.165 355.987 213.552C355.987 214.939 356.233 216.144 356.723 217.168C357.235 218.192 357.918 218.992 358.771 219.568C359.646 220.123 360.627 220.4 361.715 220.4ZM385.862 205.136L377.222 228.176H374.822L377.286 221.776L370.598 205.136H372.998L378.438 219.088L383.59 205.136H385.862ZM400.728 217.296C400.728 218.853 400.141 220.08 398.968 220.976C397.794 221.872 396.162 222.32 394.072 222.32C391.981 222.32 390.317 221.819 389.08 220.816C387.864 219.813 387.17 218.448 387 216.72H389.144C389.208 217.915 389.688 218.864 390.584 219.568C391.48 220.272 392.642 220.624 394.072 220.624C395.458 220.624 396.536 220.368 397.304 219.856C398.093 219.344 398.488 218.608 398.488 217.648C398.488 216.816 398.221 216.187 397.688 215.76C397.154 215.312 396.248 214.96 394.968 214.704L392.536 214.224C390.936 213.925 389.72 213.392 388.888 212.624C388.056 211.835 387.64 210.832 387.64 209.616C387.64 208.677 387.896 207.845 388.408 207.12C388.941 206.395 389.666 205.829 390.584 205.424C391.522 205.019 392.6 204.816 393.816 204.816C395.117 204.816 396.248 205.04 397.208 205.488C398.189 205.915 398.968 206.533 399.544 207.344C400.12 208.155 400.44 209.125 400.504 210.256H398.392C398.285 209.083 397.826 208.176 397.016 207.536C396.205 206.875 395.138 206.544 393.816 206.544C392.621 206.544 391.65 206.8 390.904 207.312C390.178 207.824 389.816 208.528 389.816 209.424C389.816 210.256 390.082 210.896 390.616 211.344C391.17 211.792 392.077 212.133 393.336 212.368L395.864 212.848C397.528 213.168 398.754 213.691 399.544 214.416C400.333 215.141 400.728 216.101 400.728 217.296ZM413.167 219.856V221.84C412.74 222.032 412.335 222.16 411.951 222.224C411.567 222.288 411.161 222.32 410.735 222.32C409.817 222.32 408.985 222.149 408.239 221.808C407.492 221.467 406.895 220.923 406.447 220.176C406.02 219.429 405.807 218.448 405.807 217.232V207.024H401.838V205.136H405.807V200.144H408.047V205.136H413.327V207.024H408.047V216.752C408.047 218.075 408.335 218.992 408.911 219.504C409.508 220.016 410.265 220.272 411.183 220.272C411.545 220.272 411.876 220.24 412.175 220.176C412.495 220.112 412.825 220.005 413.167 219.856ZM422.775 222.32C421.196 222.32 419.809 221.957 418.615 221.232C417.441 220.485 416.524 219.44 415.863 218.096C415.223 216.752 414.903 215.195 414.903 213.424C414.903 211.781 415.233 210.32 415.895 209.04C416.577 207.739 417.495 206.715 418.647 205.968C419.82 205.2 421.153 204.816 422.647 204.816C423.841 204.816 424.919 205.051 425.879 205.52C426.86 205.968 427.681 206.608 428.343 207.44C429.025 208.272 429.527 209.253 429.847 210.384C430.188 211.493 430.305 212.731 430.199 214.096H416.119V212.56H427.863C427.777 210.661 427.265 209.189 426.327 208.144C425.409 207.077 424.172 206.544 422.615 206.544C421.527 206.544 420.567 206.832 419.735 207.408C418.924 207.963 418.284 208.752 417.815 209.776C417.345 210.8 417.111 212.016 417.111 213.424C417.111 214.875 417.335 216.144 417.783 217.232C418.231 218.299 418.871 219.12 419.703 219.696C420.556 220.272 421.569 220.56 422.743 220.56C424.151 220.56 425.313 220.187 426.231 219.44C427.169 218.672 427.777 217.627 428.055 216.304H430.263C429.879 218.16 429.015 219.632 427.671 220.72C426.348 221.787 424.716 222.32 422.775 222.32ZM436.141 212.976V222H433.901V205.136H435.981V208.976C436.578 207.739 437.453 206.747 438.605 206C439.757 205.253 441.026 204.88 442.413 204.88V207.216C441.239 207.173 440.173 207.376 439.213 207.824C438.274 208.272 437.527 208.933 436.973 209.808C436.418 210.683 436.141 211.739 436.141 212.976Z" fill="#334155"/>
</g>
<defs>
<clipPath id="clip0_761_8363">
<rect width="1344" height="730.8" fill="white"/>
</clipPath>
</defs>
</svg>
