<svg width="1344" height="732" viewBox="0 0 1344 732" fill="none" xmlns="http://www.w3.org/2000/svg">
<g clip-path="url(#clip0_761_8367)">
<path d="M145.026 717.588C145.068 717.63 1204.06 717.462 1204.06 717.462C1238.92 643.08 1238.87 606.75 1242.82 564.12C1264.75 328.5 1087.3 292.296 1035.3 282.468C876.12 252.396 948.57 103.548 533.778 131.478C495.768 134.04 406.14 154.704 375.228 168.102C353.556 177.468 271.95 219.468 247.968 290.49C240.408 312.918 238.602 338.202 246.204 366.3C273.21 465.672 202.818 459.96 151.41 507.336C82.7822 570.504 89.9642 673.866 145.026 717.588Z" fill="#EBF3FA"/>
<path d="M775.825 717.505H775.951C776.791 717.505 777.505 716.791 777.463 715.951L775.153 615.823L768.349 615.025L774.145 715.951C774.229 716.833 774.943 717.505 775.825 717.505Z" fill="#B0D4FF"/>
<path d="M815.472 717.505H815.598C816.438 717.505 817.152 716.791 817.11 715.951L814.8 615.823L807.996 615.025L813.792 715.951C813.876 716.833 814.632 717.505 815.472 717.505Z" fill="#95C0F4"/>
<path d="M706.063 717.505H705.937C705.097 717.505 704.383 716.791 704.425 715.951L706.735 615.823L713.539 615.025L707.743 715.951C707.659 716.833 706.945 717.505 706.063 717.505Z" fill="#B0D4FF"/>
<path d="M820.009 609.607V540.979C820.009 528.925 810.223 519.139 798.169 519.139H748.735C736.681 519.139 726.895 528.925 726.895 540.979V612.211L820.009 609.607Z" fill="#B0D4FF"/>
<path d="M717.99 620.443H813.456C817.068 620.443 820.008 617.503 820.008 613.891V609.607H717.99V620.443Z" fill="#95C0F4"/>
<path d="M706.524 620.442H778.722C781.41 620.442 783.594 618.258 783.594 615.57V614.436C783.594 611.748 781.41 609.564 778.722 609.564H706.524C703.836 609.564 701.652 611.748 701.652 614.436V615.57C701.694 618.258 703.878 620.442 706.524 620.442Z" fill="#CAE5FF"/>
<path d="M872.929 248.49H587.959V494.484H872.929V248.49Z" fill="#95C0F4"/>
<path d="M867.385 252.564H593.377V489.57H867.385V252.564Z" fill="#DFEDFB"/>
<path d="M689.137 355.717H629.119V280.705L639.283 271.549H689.137V355.717Z" fill="white"/>
<path d="M629.119 280.705H638.947L639.283 271.549L629.119 280.705Z" fill="#B0D4FF"/>
<path d="M668.767 278.857H649.531V279.781H668.767V278.857Z" fill="#B0D4FF"/>
<path d="M673.261 281.588H644.995V282.512H673.261V281.588Z" fill="#B0D4FF"/>
<path d="M683.174 299.227H636.218V300.403H683.174V299.227Z" fill="#B0D4FF"/>
<path d="M683.174 302.797H636.218V303.973H683.174V302.797Z" fill="#B0D4FF"/>
<path d="M683.174 306.367H636.218V307.543H683.174V306.367Z" fill="#B0D4FF"/>
<path d="M683.174 309.938H636.218V311.113H683.174V309.938Z" fill="#B0D4FF"/>
<path d="M683.174 348.199H636.218V349.375H683.174V348.199Z" fill="#B0D4FF"/>
<path d="M758.479 459.708H698.461V384.738L708.625 375.582H758.479V459.708Z" fill="white"/>
<path d="M698.461 384.738H708.289L708.625 375.582L698.461 384.738Z" fill="#B0D4FF"/>
<path d="M738.067 382.848H718.831V383.772H738.067V382.848Z" fill="#B0D4FF"/>
<path d="M742.603 385.621H714.337V386.545H742.603V385.621Z" fill="#B0D4FF"/>
<path d="M752.516 403.26H705.56V404.436H752.516V403.26Z" fill="#B0D4FF"/>
<path d="M752.516 406.83H705.56V408.006H752.516V406.83Z" fill="#B0D4FF"/>
<path d="M752.516 410.4H705.56V411.576H752.516V410.4Z" fill="#B0D4FF"/>
<path d="M752.516 413.971H705.56V415.147H752.516V413.971Z" fill="#B0D4FF"/>
<path d="M752.516 424.975H705.56V426.151H752.516V424.975Z" fill="#B0D4FF"/>
<path d="M752.516 428.543H705.56V429.719H752.516V428.543Z" fill="#B0D4FF"/>
<path d="M752.516 432.701H705.56V433.877H752.516V432.701Z" fill="#B0D4FF"/>
<path d="M792.331 271.549H759.193V300.781H792.331V271.549Z" fill="#B0D4FF"/>
<path d="M774.355 275.034C774.355 274.236 774.985 273.564 775.825 273.564C776.665 273.564 777.295 274.194 777.295 275.034C777.295 275.832 776.665 276.504 775.825 276.504C774.985 276.504 774.355 275.832 774.355 275.034Z" fill="#FFA412"/>
<path d="M791.295 309.964L758.236 312.271L760.272 341.433L793.331 339.126L791.295 309.964Z" fill="white"/>
<path d="M773.684 316.488C773.642 315.69 774.23 314.976 775.028 314.934C775.826 314.892 776.54 315.48 776.582 316.278C776.624 317.076 776.036 317.79 775.238 317.832C774.44 317.874 773.768 317.286 773.684 316.488Z" fill="#B0D4FF"/>
<path d="M681.126 417.653L648.067 419.961L650.103 449.123L683.162 446.815L681.126 417.653Z" fill="white"/>
<path d="M663.517 424.177C663.475 423.379 664.063 422.665 664.861 422.623C665.659 422.581 666.373 423.169 666.415 423.967C666.457 424.765 665.869 425.479 665.071 425.521C664.273 425.563 663.559 424.975 663.517 424.177Z" fill="#B0D4FF"/>
<path d="M639.48 438.602L606.346 438.941L606.645 468.17L639.78 467.831L639.48 438.602Z" fill="white"/>
<path d="M621.56 444.083C621.56 443.285 622.19 442.613 622.988 442.613C623.786 442.613 624.458 443.243 624.458 444.041C624.458 444.839 623.828 445.511 623.03 445.511C622.19 445.553 621.56 444.881 621.56 444.083Z" fill="#B0D4FF"/>
<path d="M841.479 333.419L808.858 327.59L803.716 356.366L836.338 362.195L841.479 333.419Z" fill="#EEF6FF"/>
<path d="M823.243 334.212C823.369 333.54 824.041 333.078 824.713 333.204C825.385 333.33 825.847 334.002 825.721 334.674C825.595 335.346 824.923 335.808 824.251 335.682C823.579 335.556 823.117 334.884 823.243 334.212Z" fill="#78ACEA"/>
<path d="M739.636 309.376L706.69 312.941L709.836 342.004L742.782 338.438L739.636 309.376Z" fill="#EEF6FF"/>
<path d="M722.359 315.229C722.275 314.557 722.779 313.927 723.493 313.843C724.207 313.759 724.795 314.263 724.879 314.977C724.963 315.649 724.459 316.279 723.745 316.363C723.031 316.405 722.443 315.943 722.359 315.229Z" fill="#78ACEA"/>
<path d="M653.566 378.475L621.157 385.385L627.252 413.974L659.661 407.064L653.566 378.475Z" fill="#BAE8E3"/>
<path d="M637.519 386.838C636.931 386.46 636.763 385.662 637.141 385.074C637.519 384.486 638.317 384.318 638.905 384.696C639.493 385.074 639.661 385.872 639.283 386.46C638.905 387.048 638.107 387.216 637.519 386.838Z" fill="#FFA412"/>
<path d="M740.545 300.781H708.961V279.571L717.697 271.549H740.545V300.781Z" fill="white"/>
<path d="M708.793 279.571H717.403L717.697 271.549L708.793 279.571Z" fill="#B0D4FF"/>
<path d="M724.879 274.237C724.879 273.649 725.341 273.188 725.929 273.188C726.517 273.188 726.979 273.649 726.979 274.237C726.979 274.825 726.517 275.287 725.929 275.287C725.341 275.287 724.879 274.825 724.879 274.237Z" fill="#B0D4FF"/>
<path d="M832.735 474.324H801.193V453.114L809.929 445.092H832.735V474.324Z" fill="white"/>
<path d="M801.025 453.114H809.635L809.929 445.092L801.025 453.114Z" fill="#B0D4FF"/>
<path d="M817.069 447.821C817.069 447.233 817.531 446.771 818.119 446.771C818.707 446.771 819.169 447.233 819.169 447.821C819.169 448.409 818.707 448.871 818.119 448.871C817.531 448.829 817.069 448.367 817.069 447.821Z" fill="#B0D4FF"/>
<path d="M847.141 432.24H815.557V411.072L824.293 403.008H847.141V432.24Z" fill="white"/>
<path d="M815.389 411.072H824.041L824.293 403.008L815.389 411.072Z" fill="#B0D4FF"/>
<path d="M831.475 405.737C831.475 405.149 831.937 404.688 832.525 404.688C833.113 404.688 833.575 405.149 833.575 405.737C833.575 406.325 833.113 406.787 832.525 406.787C831.937 406.787 831.475 406.283 831.475 405.737Z" fill="#B0D4FF"/>
<path d="M805.477 432.24H773.935V411.072L782.671 403.008H805.477V432.24Z" fill="#BAE8E3"/>
<path d="M773.767 411.072H782.377L782.671 403.008L773.767 411.072Z" fill="#A1D6CE"/>
<path d="M789.811 405.737C789.811 405.149 790.273 404.688 790.861 404.688C791.449 404.688 791.911 405.149 791.911 405.737C791.911 406.325 791.449 406.787 790.861 406.787C790.273 406.787 789.811 406.283 789.811 405.737Z" fill="#FFCFCF"/>
<path d="M856.045 293.472H824.461V272.262L833.197 264.24H856.045V293.472Z" fill="#BAE8E3"/>
<path d="M824.293 272.262H832.945L833.197 264.24L824.293 272.262Z" fill="#A1D6CE"/>
<path d="M840.379 266.929C840.379 266.341 840.841 265.879 841.429 265.879C842.017 265.879 842.479 266.341 842.479 266.929C842.479 267.517 842.017 267.979 841.429 267.979C840.841 267.979 840.379 267.517 840.379 266.929Z" fill="#FFCFCF"/>
<path d="M543.985 242.526H483.967C481.195 242.526 478.969 240.258 478.969 237.528V179.568C478.969 176.796 481.237 174.57 483.967 174.57H543.985C546.757 174.57 548.983 176.838 548.983 179.568V237.486C548.983 240.258 546.715 242.526 543.985 242.526Z" fill="#C0D8FB"/>
<path d="M541.38 239.586H486.57C484.05 239.586 481.992 237.528 481.992 235.008V182.088C481.992 179.568 484.05 177.51 486.57 177.51H541.38C543.9 177.51 545.958 179.568 545.958 182.088V235.008C545.958 237.528 543.9 239.586 541.38 239.586Z" fill="#DFEBFD"/>
<path d="M512.483 183.726C512.483 182.928 513.113 182.256 513.953 182.256C514.751 182.256 515.423 182.886 515.423 183.726C515.423 184.524 514.793 185.196 513.953 185.196C513.155 185.154 512.483 184.524 512.483 183.726Z" fill="#B7D3F3"/>
<path d="M524.202 185.785C524.58 185.071 525.462 184.819 526.176 185.239C526.89 185.617 527.142 186.499 526.722 187.213C526.344 187.927 525.462 188.179 524.748 187.759C524.076 187.339 523.824 186.457 524.202 185.785Z" fill="#B7D3F3"/>
<path d="M534.24 193.721C534.912 193.301 535.794 193.469 536.256 194.141C536.676 194.813 536.508 195.695 535.836 196.157C535.164 196.577 534.282 196.409 533.82 195.737C533.358 195.065 533.568 194.183 534.24 193.721Z" fill="#B7D3F3"/>
<path d="M539.196 206.07C539.994 206.07 540.666 206.7 540.666 207.54C540.666 208.338 540.036 209.01 539.196 209.01C538.398 209.01 537.726 208.38 537.726 207.54C537.768 206.7 538.398 206.07 539.196 206.07Z" fill="#B7D3F3"/>
<path d="M536.676 220.392C537.222 220.938 537.222 221.862 536.676 222.45C536.13 222.996 535.206 222.996 534.618 222.45C534.072 221.904 534.072 220.98 534.618 220.392C535.206 219.804 536.088 219.804 536.676 220.392Z" fill="#B7D3F3"/>
<path d="M527.561 229.505C528.107 230.051 528.107 230.975 527.561 231.563C527.015 232.109 526.091 232.109 525.503 231.563C524.957 231.017 524.957 230.093 525.503 229.505C526.091 228.959 526.973 228.959 527.561 229.505Z" fill="#B7D3F3"/>
<path d="M512.483 234.21C512.483 233.412 513.113 232.74 513.953 232.74C514.751 232.74 515.423 233.37 515.423 234.21C515.423 235.05 514.793 235.68 513.953 235.68C513.155 235.68 512.483 235.05 512.483 234.21Z" fill="#B7D3F3"/>
<path d="M503.664 185.785C503.286 185.071 502.404 184.819 501.69 185.239C500.976 185.617 500.724 186.499 501.144 187.213C501.522 187.927 502.404 188.179 503.118 187.759C503.79 187.339 504.042 186.457 503.664 185.785Z" fill="#B7D3F3"/>
<path d="M493.626 193.723C492.954 193.303 492.072 193.471 491.61 194.143C491.19 194.815 491.358 195.697 492.03 196.159C492.702 196.579 493.584 196.411 494.046 195.739C494.466 195.067 494.298 194.185 493.626 193.723Z" fill="#B7D3F3"/>
<path d="M488.67 206.07C487.872 206.07 487.2 206.7 487.2 207.54C487.2 208.338 487.83 209.01 488.67 209.01C489.468 209.01 490.14 208.38 490.14 207.54C490.098 206.7 489.468 206.07 488.67 206.07Z" fill="#B7D3F3"/>
<path d="M491.191 220.392C490.645 220.938 490.645 221.862 491.191 222.45C491.737 222.996 492.661 222.996 493.249 222.45C493.795 221.904 493.795 220.98 493.249 220.392C492.661 219.804 491.737 219.804 491.191 220.392Z" fill="#B7D3F3"/>
<path d="M500.304 229.507C499.758 230.053 499.758 230.977 500.304 231.565C500.85 232.111 501.774 232.111 502.362 231.565C502.908 231.019 502.908 230.095 502.362 229.507C501.774 228.961 500.85 228.961 500.304 229.507Z" fill="#B7D3F3"/>
<path d="M513.577 207.54C513.577 206.742 514.207 206.07 515.047 206.07C515.845 206.07 516.517 206.7 516.517 207.54C516.517 208.338 515.887 209.01 515.047 209.01C514.207 208.968 513.577 208.338 513.577 207.54Z" fill="#B7D3F3"/>
<path d="M515.173 189.396H514.795V207.54H515.173V189.396Z" fill="#B7D3F3"/>
<path d="M524.084 199.467L514.472 207.016L515.198 207.941L524.811 200.392L524.084 199.467Z" fill="#B7D3F3"/>
<path d="M913.5 713.933C913.206 717.839 907.704 717.881 901.488 717.167C895.23 716.453 896.91 718.007 888.174 718.133C879.438 718.259 876.414 715.361 875.994 714.101C875.616 713.009 879.816 712.043 884.31 710.951C884.856 710.825 885.444 710.657 886.032 710.531C891.114 709.229 894.474 705.449 898.8 702.131C902.916 698.981 908.208 687.599 908.208 687.599L920.136 687.053C920.136 687.053 915.096 697.259 913.206 701.627C912.114 704.231 912.576 707.381 913.038 709.817C913.332 711.203 913.584 712.547 913.5 713.933Z" fill="#FFB27D"/>
<path d="M901.488 717.124C895.23 716.41 896.91 717.964 888.174 718.09C879.438 718.216 876.414 715.318 875.994 714.058C875.616 712.966 879.816 712 884.31 710.908L884.352 710.992C884.352 710.992 889.98 714.016 897.162 713.302C903.042 712.714 909.006 710.278 913.08 709.816C913.332 711.16 913.584 712.504 913.5 713.89C913.206 717.838 907.704 717.88 901.488 717.124Z" fill="#233862"/>
<path d="M995.947 714.73C995.653 718.636 990.151 718.678 983.935 717.964C977.677 717.25 979.357 718.804 970.621 718.972C961.885 719.098 958.861 716.2 958.441 714.982C958.063 713.89 962.263 712.924 966.757 711.832C967.303 711.706 967.891 711.538 968.479 711.412C973.561 710.11 976.921 706.33 981.247 702.97C985.363 699.82 981.247 681.172 981.247 681.172L994.393 679.912C994.393 679.912 993.763 695.62 993.763 702.718C993.763 705.532 995.065 708.22 995.527 710.656C995.779 712 996.031 713.344 995.947 714.73Z" fill="#FFB27D"/>
<path d="M983.935 717.965C977.677 717.251 979.357 718.805 970.621 718.973C961.885 719.099 958.861 716.201 958.441 714.983C958.063 713.891 962.263 712.925 966.757 711.833L966.799 711.917C966.799 711.917 972.427 714.941 979.609 714.185C985.489 713.597 991.453 711.119 995.485 710.699C995.737 712.043 995.989 713.387 995.905 714.773C995.653 718.637 990.151 718.679 983.935 717.965Z" fill="#233862"/>
<path d="M957.643 392.717C955.375 383.435 958.651 379.109 961.633 376.799C963.019 373.397 964.615 370.919 966.253 369.995C969.235 368.315 972.805 368.105 975.325 368.273C974.695 367.601 973.435 367.349 973.435 367.349C974.989 367.139 978.433 368.651 978.433 368.651C1000.02 360.335 1003.38 392.087 1002.96 399.479C1002.5 406.871 1002.58 415.565 1013.8 421.361C1035.22 432.449 1006.7 474.281 1006.7 474.281C1007.24 468.317 979.735 436.859 965.371 427.409C961.885 422.243 960.625 413.171 960.541 412.457C961.129 419.681 962.389 423.713 963.481 425.981C956.887 419.933 955.879 405.485 957.643 392.717Z" fill="#FFD069"/>
<path d="M966.168 427.87C966.084 427.912 973.098 431.524 978.348 430.096C983.304 428.752 986.538 422.326 986.454 422.284C984.354 421.864 983.766 418.966 983.808 406.576L982.842 406.744L966.882 409.894C966.882 409.894 967.26 414.934 967.26 419.638C967.302 423.67 967.05 427.45 966.168 427.87Z" fill="#FFB27D"/>
<path d="M966.925 409.937C966.925 409.937 967.303 414.977 967.303 419.681C976.249 419.429 980.953 411.281 982.885 406.787L966.925 409.937Z" fill="#ED975D"/>
<path d="M901.993 693.941C901.195 696.377 902.958 698.939 905.52 699.023L911.736 699.317L918.33 699.527C919.968 699.569 921.564 698.855 922.614 697.595C927.864 691.127 944.076 669.623 953.904 638.333C954.198 637.451 954.492 636.569 954.786 635.687C961.296 616.745 974.736 593.015 981.834 571.511C982.968 568.067 983.976 564.875 984.9 561.809C985.194 560.843 985.488 559.877 985.74 558.911C990.948 540.767 992.46 528.839 993.888 516.113L942.69 516.533C942.69 516.491 931.897 600.281 901.993 693.941Z" fill="#2A4E96"/>
<path d="M949.872 487.091C949.998 511.451 946.302 521.909 946.302 521.909C946.302 521.909 968.226 533.039 994.266 524.849C994.56 524.765 1015.85 519.893 1015.85 519.893C1015.43 518.927 1011.53 502.505 1011.11 501.581C1005.61 489.779 1001.45 484.571 1000.78 480.959C999.558 474.197 999.558 467.183 1000.15 460.547C1001.74 443.033 1006.45 428.501 1006.45 428.501C999.348 426.905 992.712 424.049 985.32 421.277C983.64 423.377 978.432 425.603 973.938 425.519C968.73 425.393 967.05 423.167 967.344 420.773C961.8 423.839 957.39 426.737 957.39 426.737C952.686 434.885 943.152 442.823 942.48 455.339C942.27 458.405 949.83 486.419 949.872 487.091Z" fill="white"/>
<path d="M993.888 489.779C996.114 492.929 1000.4 512.207 1011.11 514.601C1005.61 500.867 1001.45 494.861 1000.78 490.661C999.558 482.765 999.558 474.617 1000.15 466.931C996.576 460.673 993.888 456.389 993.888 456.389C993.594 455.381 988.218 438.665 986.496 453.617C984.732 468.569 991.368 486.251 993.888 489.779Z" fill="#5F9AA8"/>
<path d="M963.943 414.431C963.943 414.431 985.069 414.767 985.069 401.621C985.069 388.475 987.799 379.655 974.317 378.857C960.835 378.059 958.189 383.099 957.139 387.467C956.089 391.877 958.441 414.011 963.943 414.431Z" fill="#FFB27D"/>
<path d="M964.698 378.563C964.698 378.563 970.494 394.019 979.356 396.287C988.218 398.555 992.082 396.203 992.082 396.203C992.082 396.203 985.278 390.785 983.85 381.335C983.892 381.335 969.066 371.213 964.698 378.563Z" fill="#FFD069"/>
<path d="M966.169 379.78C966.169 379.78 961.843 383.224 960.793 386.584C959.743 389.944 959.281 396.832 957.265 396.58C957.265 396.58 952.897 386.08 957.811 380.158C962.977 373.9 966.169 379.78 966.169 379.78Z" fill="#FFD069"/>
<path d="M930.721 503.975L920.725 534.425L926.437 536.693L942.901 509.813L930.721 503.975Z" fill="#FFB27D"/>
<path d="M957.6 424.932C957.6 424.932 945.84 429.594 942.438 436.86C939.036 444.126 933.87 492.93 931.812 497.97C929.754 503.01 928.2 506.958 928.2 506.958C928.2 506.958 934.122 511.956 940.086 512.334C946.05 512.712 957.6 424.932 957.6 424.932Z" fill="#FFCFCF"/>
<path d="M967.302 420.73C967.302 420.73 955.08 450.928 954.702 457.018C954.324 463.108 953.274 556.936 953.274 556.936C953.274 556.936 953.988 561.262 945.714 559.456C937.44 557.65 935.298 555.844 935.298 555.844C935.298 555.844 943.194 497.968 941.052 477.85C938.91 457.732 957.6 424.888 957.6 424.888L967.302 420.73Z" fill="#FFCFCF"/>
<path d="M911.778 699.316L918.918 699.526C920.178 699.568 921.438 699.022 922.236 698.014C927.066 692.176 943.824 670.378 953.904 638.29C954.198 637.408 954.492 636.526 954.786 635.644C961.296 616.702 974.736 592.972 981.834 571.468C982.968 568.024 983.976 564.832 984.9 561.766C985.194 560.8 985.488 559.834 985.74 558.868L978.18 553.156C978.18 553.156 955.542 589.822 948.528 624.304C942.48 654.292 918.12 690.37 911.778 699.316Z" fill="#1E3D70"/>
<path d="M977.425 627.538C977.299 643.414 978.055 678.778 979.987 696.082C980.155 697.678 981.499 698.854 983.095 698.854H988.429C990.697 698.854 992.377 698.854 993.469 698.812C994.435 698.812 995.275 698.098 995.443 697.132C1000.73 670.084 1004.56 647.656 1007.33 628.252C1009.64 611.998 1011.74 598.096 1013.33 586.084C1014.93 574.03 1016.06 563.908 1016.44 555.382C1016.48 554.038 1016.57 552.736 1016.57 551.476C1016.61 550.216 1016.61 548.956 1016.61 547.738L972.385 543.412C972.973 572.854 977.509 617.794 977.425 627.538Z" fill="#2A4E96"/>
<path d="M988.428 698.855C990.444 698.855 991.998 698.855 993.132 698.813C994.308 698.813 995.316 697.973 995.526 696.797C1000.82 669.917 1004.6 647.573 1007.37 628.253C1009.68 611.999 1011.78 598.097 1013.38 586.085C1014.97 574.031 1016.11 563.909 1016.48 555.383L1000.27 564.917C1000.27 564.917 1010.65 568.571 1006.7 596.249C1002.71 623.969 993.93 694.949 988.428 698.855Z" fill="#1E3D70"/>
<path d="M986.328 555.131C986.328 555.131 989.436 566.387 1000.23 564.959C1011.02 563.531 1026.35 557.063 1026.35 557.063C1026.35 557.063 1021.73 542.489 1016.02 523.379C1009.09 500.237 1000.48 470.375 996.45 451.559C995.316 446.267 994.518 441.857 994.266 438.707L985.32 421.361C985.32 421.361 971.964 451.307 971.25 458.825C970.536 466.343 986.328 555.131 986.328 555.131Z" fill="#FFCFCF"/>
<path d="M997.122 457.69L985.32 421.318C985.362 421.318 1000.23 425.728 1007.71 429.508C1007.71 429.508 1012.37 435.556 1015.27 449.458C1015.27 449.458 1018.33 482.848 1011.49 495.07C1011.49 495.07 989.94 499.396 955.416 487.51V479.614C955.416 479.614 993.132 481.588 1000.86 482.47L997.122 457.69Z" fill="#FFB27D"/>
<path d="M986.832 474.618C987.294 486.84 990.192 510.57 1015.81 523.254C1015.9 523.296 1015.94 523.338 1016.02 523.338C1009.09 500.196 1000.48 470.334 996.45 451.518C991.746 458.574 986.58 467.898 986.832 474.618Z" fill="#E0B3B3"/>
<path d="M985.321 421.361C985.321 421.361 1007.2 422.915 1012.5 434.633C1017.75 446.393 1019.43 485.411 1012.75 496.919C1012.75 496.919 1003.51 499.565 987.169 496.499C986.959 496.457 986.749 496.415 986.581 496.373C986.581 496.373 981.373 483.605 986.035 481.085C986.035 481.085 999.811 481.799 998.383 477.263C996.871 472.727 985.321 421.361 985.321 421.361Z" fill="#FFCFCF"/>
<path d="M930.426 484.57L931.056 486.628L966.966 475.456C966.966 475.456 967.428 474.91 967.218 474.196C966.966 473.398 966.336 473.398 966.336 473.398L930.426 484.57Z" fill="#FFD069"/>
<path d="M927.864 486.502L930.426 484.57L931.098 486.628L927.864 486.502Z" fill="#FFD069"/>
<path d="M922.153 533.586C922.153 533.586 913.039 538.626 911.863 542.448C910.645 546.27 911.485 554.334 912.913 554.208C914.341 554.082 916.525 545.598 917.701 544.968C918.877 544.338 920.557 542.574 920.557 543.876C920.557 545.178 919.339 547.572 919.969 547.95C920.599 548.328 922.489 544.59 923.791 543.876C925.093 543.162 925.681 537.24 926.941 535.644C928.243 534.048 922.153 533.586 922.153 533.586Z" fill="#FFB27D"/>
<path d="M955.458 479.658C955.458 479.658 947.31 474.66 943.908 475.416C940.506 476.172 931.77 482.514 935.97 483.858C940.17 485.202 943.572 483.774 945.168 484.782C946.764 485.79 947.982 487.596 955.458 487.554C962.934 487.554 955.458 479.658 955.458 479.658Z" fill="#FFB27D"/>
<path d="M314.791 425.771C313.405 423.125 344.569 413.633 345.073 439.631C345.073 439.631 403.453 438.203 375.565 405.653C365.905 394.397 366.913 385.073 367.207 376.421C367.501 367.769 361.201 342.569 339.571 345.089C339.571 345.089 333.901 342.779 326.845 346.433C310.801 354.791 274.849 435.347 314.791 425.771Z" fill="#21201D"/>
<path d="M410.215 454.836C410.215 454.836 413.995 449.04 417.061 448.956C420.127 448.83 425.797 447.234 425.335 448.368C424.873 449.502 421.345 449.628 421.009 450.3C420.673 450.972 426.217 452.022 427.813 452.106C429.409 452.232 433.147 452.106 433.021 452.904C432.895 453.702 426.259 456.978 421.597 456.516C416.935 456.054 411.139 457.86 411.139 457.86L410.215 454.836Z" fill="#9B623B"/>
<path d="M355.237 456.682C355.237 456.682 357.295 460.756 361.033 465.46C365.569 471.13 372.499 477.64 381.235 478.942C385.393 479.572 389.509 478.648 393.247 477.01C403.873 472.306 411.853 461.47 411.853 461.47C413.743 456.346 410.677 452.902 410.677 452.902C410.677 452.902 389.257 457.732 387.199 456.682C385.141 455.674 373.255 421.36 370.399 417.034C367.543 412.708 357.883 410.482 357.883 410.482L355.237 456.682Z" fill="#B0D0FF"/>
<path d="M361.075 465.503C365.611 471.173 372.541 477.683 381.277 478.985C385.435 479.615 389.551 478.691 393.289 477.053C392.869 477.095 382.285 478.397 378.043 470.837C373.717 463.109 369.055 450.887 362.671 454.961C359.899 456.683 360.025 461.093 361.075 465.503Z" fill="#98BAF4"/>
<path d="M275.269 688.062C275.269 688.062 268.717 694.026 270.019 698.268C271.279 702.51 277.201 705.324 277.999 710.532C278.797 715.698 281.989 718.554 284.845 718.554C287.701 718.554 298.537 718.554 298.537 718.554C298.537 718.554 300.637 714.9 295.555 713.808C290.431 712.716 288.541 706.626 288.835 700.956C289.171 695.286 288.373 687.768 288.373 687.768L277.537 685.248L275.269 688.062Z" fill="#233862"/>
<path d="M330.625 690.623C330.625 690.623 328.273 715.907 331.129 717.335L367.879 717.251C367.879 717.251 367.879 713.009 361.957 712.085C356.035 711.161 345.703 707.675 343.939 699.989C342.217 692.261 330.625 690.623 330.625 690.623Z" fill="#233862"/>
<path d="M304.459 509.184C312.019 492.216 316.639 487.344 315.757 482.094C315.085 478.188 317.773 409.056 317.773 409.056C318.655 408.762 320.461 408.51 321.469 408.3C324.577 407.628 327.139 405.444 328.189 402.42C329.491 398.808 330.499 393.474 330.457 386.838L331.423 387.048L347.719 390.282C347.719 390.282 347.341 395.406 347.341 400.236C347.341 400.278 347.341 400.32 347.341 400.362C347.341 404.562 350.071 408.258 354.103 409.434C356.161 410.022 357.967 410.526 357.967 410.526C357.967 410.526 363.931 427.62 365.107 445.134C366.241 462.69 354.229 470.292 365.191 505.362C376.363 541.146 300.301 518.592 304.459 509.184Z" fill="#9B623B"/>
<path d="M347.719 390.281C347.719 390.281 347.341 395.405 347.341 400.235C338.227 399.983 333.397 391.667 331.423 387.047L347.719 390.281Z" fill="#5C3418"/>
<path d="M350.785 394.859C350.785 394.859 329.239 395.195 329.197 381.797C329.197 368.357 326.383 359.369 340.159 358.571C353.935 357.773 356.623 362.897 357.715 367.391C358.807 371.885 356.371 394.397 350.785 394.859Z" fill="#9B623B"/>
<path d="M349.987 358.194C349.987 358.194 344.065 373.944 335.035 376.296C325.963 378.606 322.057 376.212 322.057 376.212C322.057 376.212 328.987 370.71 330.457 361.05C330.415 361.05 345.535 350.718 349.987 358.194Z" fill="#21201D"/>
<path d="M348.517 359.495C348.517 359.495 352.885 361.133 354.691 364.325C356.455 367.433 357.967 371.591 357.589 376.673C357.589 376.673 362.041 365.963 357.043 359.915C351.751 353.447 348.517 359.495 348.517 359.495Z" fill="#181715"/>
<path d="M346.08 386.502C346.08 386.502 347.55 388.476 350.532 388.308C352.926 388.182 353.85 386.124 353.85 386.124C353.85 386.124 349.44 385.074 346.08 386.502Z" fill="#EBF3FA"/>
<path d="M302.359 439.633C302.359 439.633 301.813 447.361 302.359 456.601C302.737 462.733 308.953 470.965 309.835 473.023C312.061 478.147 314.539 478.945 314.539 478.945L333.817 483.691L340.621 485.371L361.999 478.987C361.999 478.987 371.743 451.771 367.837 436.483C363.931 421.153 357.967 410.527 357.967 410.527C357.967 410.527 340.495 427.621 317.773 409.057L302.359 439.633Z" fill="#B0D0FF"/>
<path d="M308.028 459.118C308.406 465.25 308.952 470.962 309.834 473.02C312.06 478.144 314.538 478.942 314.538 478.942L333.816 483.688L342.216 481.21C342.216 481.21 314.244 476.968 317.352 452.902L308.028 459.118Z" fill="#F2CCAA"/>
<path d="M360.655 483.102C360.655 483.102 371.239 516.072 371.911 527.328C372.583 538.542 351.667 686.844 350.827 692.01C350.029 696.882 343.981 699.99 343.981 699.99C343.981 699.99 341.209 701.628 337.219 700.494C331.717 698.94 329.953 697.092 329.953 697.092C329.953 697.092 321.721 591.336 326.803 553.578C331.927 515.82 331.969 483.144 331.969 483.144H360.655V483.102Z" fill="#E0B3B3"/>
<path d="M315.757 482.094C315.757 482.094 299.587 503.766 298.075 518.424C296.563 533.082 295.723 584.574 292.489 598.854C289.297 613.134 277.495 640.644 277.495 685.206C277.495 685.206 278.713 687.768 282.493 689.112C283.711 689.532 285.307 689.952 286.903 690.33C290.011 691.044 293.245 689.532 294.631 686.634C302.611 670.59 328.021 618.804 329.323 608.052C330.247 600.45 338.269 550.092 355.741 520.566C359.941 513.468 353.179 485.286 353.179 485.286L315.757 482.094Z" fill="#FFCFCF"/>
<path d="M346.543 386.88C346.543 386.88 346.921 388.476 350.869 388.224C350.869 388.224 354.187 388.014 354.061 386.292C354.061 386.25 350.869 385.032 346.543 386.88Z" fill="white"/>
<path d="M362.335 478.02C362.335 478.02 358.093 481.38 349.651 481.548C339.571 481.758 314.539 478.986 314.539 478.986C314.539 478.986 313.447 482.094 313.489 485.37C313.489 485.37 344.023 493.056 361.747 486.504C361.705 486.462 364.015 482.178 362.335 478.02Z" fill="#233862"/>
<path d="M347.467 485.034C347.467 482.178 349.525 479.826 352.087 479.826C354.607 479.826 356.707 482.178 356.707 485.034C356.707 487.89 354.649 490.242 352.087 490.242C349.525 490.242 347.467 487.89 347.467 485.034ZM348.979 485.034C348.979 487.05 350.365 488.73 352.045 488.73C353.725 488.73 355.111 487.092 355.111 485.034C355.111 483.018 353.725 481.338 352.045 481.338C350.365 481.338 348.979 482.976 348.979 485.034Z" fill="white"/>
<path d="M281.643 483.935L312.939 511.186L350.229 468.359L318.933 441.109L281.643 483.935Z" fill="#B5453C"/>
<path d="M321.594 484.068C321.594 484.068 333.06 485.412 333.018 488.142C332.976 490.872 330.162 496.458 328.734 496.71C327.306 496.962 319.41 489.15 319.41 489.15L321.594 484.068Z" fill="#9B623B"/>
<path d="M317.773 409.057C317.773 409.057 302.485 410.149 296.605 424.387C290.725 438.667 279.595 462.607 279.595 466.639C279.595 470.671 285.811 483.103 319.201 490.243C319.201 490.243 322.645 486.589 322.435 483.733C322.435 483.733 301.603 465.841 301.645 463.741C301.771 459.793 305.047 454.543 323.359 436.231C328.357 431.233 317.773 409.057 317.773 409.057Z" fill="#B0D0FF"/>
<path d="M486.905 717.757H486.779C485.939 717.757 485.225 717.043 485.267 716.203L487.577 616.075L494.381 615.277L488.585 716.203C488.501 717.085 487.745 717.757 486.905 717.757Z" fill="#B0D4FF"/>
<path d="M447.215 717.757H447.089C446.249 717.757 445.535 717.043 445.577 716.203L447.887 616.075L454.691 615.277L448.895 716.203C448.811 717.085 448.097 717.757 447.215 717.757Z" fill="#95C0F4"/>
<path d="M556.667 717.757H556.793C557.633 717.757 558.347 717.043 558.305 716.203L555.995 616.075L549.191 615.277L554.987 716.203C555.071 717.085 555.785 717.757 556.667 717.757Z" fill="#B0D4FF"/>
<path d="M442.722 609.859V541.231C442.722 529.177 452.508 519.391 464.562 519.391H513.996C526.05 519.391 535.836 529.177 535.836 541.231V612.463L442.722 609.859Z" fill="#B0D4FF"/>
<path d="M544.74 620.695H449.274C445.662 620.695 442.722 617.755 442.722 614.143V609.859H544.74V620.695Z" fill="#95C0F4"/>
<path d="M556.164 620.694H483.966C481.278 620.694 479.094 618.51 479.094 615.822V614.688C479.094 612 481.278 609.816 483.966 609.816H556.164C558.852 609.816 561.036 612 561.036 614.688V615.822C561.036 618.552 558.852 620.694 556.164 620.694Z" fill="#B0D4FF"/>
<path d="M553.393 592.764C546.295 605.07 537.391 609.859 537.391 609.859H500.347C500.347 609.859 558.769 583.356 553.393 592.764Z" fill="#233862"/>
<path d="M524.916 688.146C523.95 689.238 523.824 690.498 524.286 691.8C525.168 694.236 528.108 696.966 531.468 699.696C531.888 700.032 532.308 700.368 532.602 700.662C532.686 700.746 532.77 700.83 532.854 700.914C532.938 700.956 532.98 701.04 533.064 701.082C536.214 703.98 535.038 704.652 540.708 710.574C547.176 717.336 551.628 717.42 552.93 716.832C554.022 716.328 551.838 712.716 549.402 708.726C549.276 708.516 549.15 708.348 549.066 708.138C548.73 707.592 548.436 707.046 548.1 706.542C545.286 701.712 546 699.444 546.672 692.22C547.218 686.382 555.786 659.544 555.786 659.544L543.354 657.402C543.354 657.402 539.616 678.78 535.5 682.056C533.316 683.82 530.838 683.82 528.696 685.122C528.528 685.206 528.402 685.29 528.276 685.416C527.1 686.214 525.882 687.054 524.916 688.146Z" fill="#FFB27D"/>
<path d="M524.916 688.147C523.95 689.239 523.824 690.499 524.286 691.801C525.378 694.237 528.234 696.967 531.51 699.655C531.93 699.991 532.308 700.327 532.644 700.663C532.728 700.747 532.812 700.831 532.896 700.915C532.98 700.957 533.022 701.041 533.106 701.083C536.256 703.981 535.08 704.653 540.75 710.575C547.218 717.337 551.67 717.421 552.972 716.833C554.064 716.329 551.88 712.717 549.444 708.727C548.184 708.265 542.304 705.871 537.894 700.201C533.988 695.203 531.384 688.819 528.738 685.123C528.57 685.207 528.444 685.291 528.318 685.417C527.1 686.215 525.882 687.055 524.916 688.147Z" fill="#233862"/>
<path d="M625.044 680.377C625.8 684.199 631.26 683.569 637.392 682.099C643.482 680.587 642.054 682.393 650.748 681.427C659.442 680.461 662.046 677.227 662.34 675.925C662.592 674.791 658.266 674.371 653.688 673.825C653.1 673.741 652.512 673.699 651.966 673.615C646.758 672.943 642.978 669.625 638.232 666.853C633.78 664.249 627.102 653.623 627.102 653.623L615.174 654.547C615.174 654.547 621.432 664.039 623.826 668.155C625.254 670.591 625.17 673.783 625.002 676.261C624.834 677.647 624.75 679.033 625.044 680.377Z" fill="#FFB27D"/>
<path d="M637.35 682.098C643.44 680.586 642.012 682.392 650.706 681.426C659.4 680.46 662.004 677.226 662.298 675.924C662.55 674.79 658.224 674.37 653.646 673.824L653.604 673.908C653.604 673.908 648.396 677.604 641.172 677.772C635.292 677.898 629.034 676.218 624.96 676.302C624.876 677.646 624.792 679.032 625.044 680.376C625.8 684.24 631.26 683.568 637.35 682.098Z" fill="#233862"/>
<path d="M579.389 604.231L568.259 634.219L553.727 673.363C553.727 673.363 549.779 673.741 545.999 672.649C542.513 671.641 538.523 668.995 538.523 668.995C538.523 668.995 542.555 626.995 550.073 602.845C552.005 596.671 554.147 591.631 556.541 588.817C568.217 575.041 579.389 604.231 579.389 604.231Z" fill="#233862"/>
<path d="M568.051 556.604C560.743 554.252 539.953 557.276 519.037 561.35L514.669 554.126L469.519 550.598C469.519 550.598 454.609 583.652 462.757 604.694C463.975 607.802 466.327 609.776 470.401 609.818H471.072C471.072 609.818 497.953 609.818 506.689 609.818C529.159 609.818 554.191 594.362 557.467 593.732C562.759 592.682 564.9 603.266 570.192 614.438C575.484 625.568 620.089 663.788 620.089 663.788C620.089 663.788 626.935 663.872 629.79 662.78C632.814 661.646 633.949 660.176 633.949 660.176C633.949 660.176 584.515 561.938 568.051 556.604Z" fill="#2B478B"/>
<path d="M512.905 422.707C507.109 419.683 498.331 419.263 496.903 419.053C479.809 416.743 469.477 441.607 468.889 449.167C467.755 463.069 460.447 465.169 450.073 473.863C429.325 491.293 435.415 511.579 446.755 519.097C453.559 523.633 465.529 519.097 465.529 519.097C465.697 519.223 498.331 500.869 514.375 492.007C538.525 488.563 527.647 430.435 512.905 422.707Z" fill="#233862"/>
<path d="M500.934 484.448C501.018 484.49 493.038 487.22 487.704 484.868C482.664 482.642 478.884 474.368 478.968 474.368C481.236 474.242 483.756 472.268 485.688 459.164L486.654 459.5L502.992 465.38C502.992 465.38 501.816 470.63 501.06 475.628C500.388 479.828 500.052 483.86 500.934 484.448Z" fill="#FFB27D"/>
<path d="M502.991 465.421C502.991 465.421 501.815 470.671 501.059 475.669C491.651 473.989 487.997 464.623 486.653 459.541L502.991 465.421Z" fill="#ED975D"/>
<path d="M505.428 470.629C505.428 470.629 483.042 467.605 485.142 453.703C487.242 439.801 485.73 430.057 500.136 431.359C514.5 432.703 516.474 438.415 516.936 443.203C517.314 448.033 511.266 471.049 505.428 470.629Z" fill="#FFB27D"/>
<path d="M516.054 435.6C516.054 435.6 501.732 447.948 491.988 448.956C482.244 449.964 478.548 446.814 478.548 446.814C478.548 446.814 484.302 442.026 487.746 434.34C488.754 432.072 490.896 430.518 493.374 430.308C500.388 429.72 513.576 429.426 516.054 435.6Z" fill="#233862"/>
<path d="M507.108 434.508C507.108 434.508 511.896 439.128 513.408 442.572C514.878 445.89 515.298 453.828 514.122 456.978C514.122 456.978 521.598 442.446 517.356 435.39C512.904 427.914 507.108 434.508 507.108 434.508Z" fill="#233862"/>
<path d="M519.75 517.418C519.078 562.694 519.582 553.244 514.626 557.528C513.45 558.578 510.09 559.166 505.68 559.46C491.778 560.384 467.376 558.074 466.452 555.512C463.26 546.65 465.528 543.878 462.84 530.27C462.546 528.842 462.21 527.246 461.832 525.566C459.606 516.242 457.422 513.05 465.36 498.056C472.542 484.448 479.976 473.444 480.648 473.822C499.548 485.036 501.102 475.628 501.102 475.628C501.102 475.628 520.086 495.326 519.75 517.418Z" fill="white"/>
<path d="M568.259 634.177L553.727 673.321C553.727 673.321 549.779 673.699 545.999 672.607C542.513 671.599 538.523 668.953 538.523 668.953C538.523 668.953 542.555 626.953 550.073 602.803L568.259 634.177Z" fill="#2B478B"/>
<path d="M501.019 475.627C501.019 475.627 520.465 478.945 522.775 487.303C525.043 495.703 538.525 544.927 538.525 544.927C538.525 544.927 528.613 546.691 524.077 542.155C519.499 537.577 508.159 499.735 508.159 499.735L501.019 475.627Z" fill="white"/>
<path d="M505.68 559.46C491.778 560.384 467.376 558.074 466.452 555.512C463.26 546.65 465.528 543.878 462.84 530.27L469.518 511.412C469.518 511.412 468.426 532.412 474.6 537.956C480.774 543.5 499.968 548.624 502.95 553.244C504.42 555.47 505.386 557.696 505.68 559.46Z" fill="#EBF3FF"/>
<path d="M489.762 550.64C489.762 550.64 503.454 547.574 505.68 548.792C507.906 550.01 513.282 554.42 513.954 555.974C514.626 557.528 509.04 554.798 507.192 554.336C506.016 554 502.908 555.092 501.354 555.596C494.886 557.738 490.938 556.646 490.938 556.646L489.762 550.64Z" fill="#FFB27D"/>
<path d="M480.564 473.863C480.564 473.863 462.168 474.997 455.784 483.859C446.838 496.375 429.03 549.631 439.236 556.771C450.702 564.793 491.484 558.871 491.484 558.871C491.484 558.871 492.828 552.529 490.938 549.463C489.048 546.397 458.388 541.441 456.96 540.013C455.532 538.585 474.642 512.419 474.642 508.177C474.684 503.893 480.564 473.863 480.564 473.863Z" fill="white"/>
<path d="M506.311 552.613C506.311 552.613 509.167 556.309 510.133 556.771C511.057 557.233 511.687 557.107 511.687 557.107L509.755 553.621L506.311 552.613Z" fill="#FFB27D"/>
<path d="M505.68 548.791L514.038 552.823C514.038 552.823 513.702 553.411 512.652 553.369C511.644 553.327 509.04 552.361 509.04 552.361L505.68 548.791Z" fill="#FFB27D"/>
<path d="M510.132 562.441H576.156L596.022 513.049H530.082L510.132 562.441Z" fill="#FFCFCF"/>
<path d="M576.912 560.51H489.762V562.442H576.156L576.912 560.51Z" fill="#E0B3B3"/>
<path d="M559.482 537.746C559.986 536.024 558.978 534.596 557.256 534.596C555.534 534.596 553.728 536.024 553.224 537.746C552.72 539.468 553.728 540.896 555.45 540.896C557.172 540.896 558.978 539.468 559.482 537.746Z" fill="white"/>
<path d="M854.952 719.603H855.162C856.296 719.603 857.22 718.637 857.178 717.419L854.112 577.223L845.124 576.131L852.81 717.461C852.852 718.637 853.776 719.603 854.952 719.603Z" fill="#78ACEA"/>
<path d="M490.098 719.603H489.888C488.754 719.603 487.83 718.637 487.872 717.419L490.938 577.223L499.927 576.131L492.24 717.419C492.198 718.637 491.232 719.603 490.098 719.603Z" fill="#78ACEA"/>
<path d="M865.788 579.785H480.774C477.624 579.785 475.062 577.223 475.062 574.073V568.571C475.062 565.421 477.624 562.859 480.774 562.859H865.788C868.938 562.859 871.501 565.421 871.501 568.571V574.073C871.501 577.265 868.938 579.785 865.788 579.785Z" fill="#78ACEA"/>
<path d="M396.858 322.621C395.388 286.627 425.586 270.625 456.414 270.625C487.242 270.625 520.842 278.605 523.74 326.485C525.63 357.271 509.208 376.213 461.916 376.213C445.956 376.213 433.566 373.693 424.074 369.199L400.428 390.199L412.02 361.177C401.814 351.643 397.446 338.119 396.858 322.621Z" fill="#DFEDFB"/>
<path d="M1098.05 719.436C1098.05 719.436 1098.93 712.674 1100.95 708.642C1102.96 704.61 1115.73 707.172 1115.73 707.172C1115.73 707.172 1118.29 709.356 1118.84 719.604L1098.05 719.436Z" fill="#233862"/>
<path d="M1054.45 719.351C1057.48 717.503 1055.75 703.811 1055.75 703.811C1055.75 703.811 1041.73 692.597 1039.84 701.165C1037.95 709.733 1026.52 713.597 1020.05 714.647C1015.6 715.361 1014.22 717.839 1013.75 719.309H1054.45V719.351Z" fill="#233862"/>
<path d="M1083.48 619.81C1082.89 622.96 1082.55 625.522 1082.47 627.37C1081.17 652.78 1061.09 710.866 1057.48 712.21C1051.93 714.31 1043.16 709.858 1038.58 708.388C1036.69 707.8 1035.39 705.868 1035.81 703.936C1045.76 658.24 1049.41 592.384 1050.72 553.45C1051.39 533.836 1054.75 520.27 1054.75 520.27C1054.75 520.27 1103.72 507.208 1104.01 523.714C1104.31 538.33 1087.84 595.66 1083.48 619.81Z" fill="#213F7A"/>
<path d="M1083.47 619.811L1050.76 553.409C1051.43 533.795 1054.79 520.229 1054.79 520.229C1054.79 520.229 1103.76 507.167 1104.05 523.673C1104.31 538.331 1087.84 595.661 1083.47 619.811Z" fill="#233862"/>
<path d="M1072.55 523.758L1098.43 711.372C1098.43 711.372 1109.81 714.102 1118.63 711.918C1118.63 711.918 1126.19 612.126 1125.56 588.018C1124.93 563.91 1131.02 523.464 1124.17 519.012C1117.41 514.518 1072.55 523.758 1072.55 523.758Z" fill="#213F7A"/>
<path d="M1129.25 520.607C1129.38 522.287 1128.29 523.841 1126.65 524.303C1123.04 525.353 1118.88 526.067 1110.86 527.747C1103.3 529.301 1093.18 530.687 1080.7 530.771C1060.88 530.897 1053.36 524.051 1053.36 524.051C1052.52 524.051 1053.82 519.935 1055 500.195C1055.38 493.517 1055.8 485.033 1056.05 474.323C1056.3 464.705 1056.47 453.239 1056.47 439.673C1056.51 423.335 1081.79 405.779 1082.26 405.779C1082.26 408.131 1085.95 412.457 1091.66 412.835C1098.43 413.297 1106.74 409.895 1106.74 405.989C1106.74 405.947 1119.01 425.603 1123.33 446.519C1125.6 457.061 1124.68 456.809 1129.25 520.607Z" fill="#B0D0FF"/>
<path d="M1082.26 405.78C1082.26 405.78 1058.74 405.57 1053.07 413.508C1047.4 421.446 1035.01 464.118 1041.47 478.356C1047.94 492.552 1060.08 472.476 1066.8 463.782C1073.56 455.088 1082.26 405.78 1082.26 405.78Z" fill="#B0D0FF"/>
<path d="M1082.05 402.21V404.646C1082.05 404.646 1081.37 412.248 1090.74 413.34C1100.11 414.474 1107.04 411.912 1106.78 406.074C1105.94 401.538 1105.15 396.876 1105.1 393.096C1105.06 391.71 1105.19 390.198 1105.44 388.56L1087.3 388.182L1081.96 389.064L1082.05 402.21Z" fill="#FFB27D"/>
<path d="M1081.96 389.064L1082.05 402.21C1083.98 403.092 1086.16 403.638 1088.6 403.638C1096.91 403.638 1102.33 397.506 1105.15 393.096C1105.1 391.71 1105.23 390.198 1105.48 388.56L1087.34 388.182L1081.96 389.064Z" fill="#E2915A"/>
<path d="M1106.83 385.62C1104.73 396.96 1090.11 396.582 1083.81 395.868C1082.05 395.658 1080.91 395.448 1080.91 395.448C1078.9 394.902 1077.8 391.752 1077.26 387.636C1076.21 379.446 1077.51 367.434 1078.9 364.368C1081 359.748 1084.9 354.75 1099.6 358.362C1114.35 361.932 1109.52 371.088 1106.83 385.62Z" fill="#FFB27D"/>
<path d="M1058.23 437.615C1058.23 437.615 1049.12 457.691 1049.41 463.739C1049.41 463.739 1053.91 463.571 1058.23 464.873C1065.33 466.973 1058.23 437.615 1058.23 437.615Z" fill="#98BAF4"/>
<path d="M1074.4 353.573C1074.4 353.573 1080.87 353.069 1088.51 349.751C1094.73 347.063 1102.54 350.003 1105.06 351.347C1104.98 350.927 1104.81 350.381 1104.43 349.835C1104.43 349.835 1105.57 350.633 1105.73 351.767C1105.86 351.851 1105.9 351.893 1105.86 351.935C1105.86 351.935 1107.16 351.683 1108 352.061C1108 352.061 1107.41 351.977 1107.2 352.355C1107.16 352.397 1107.16 352.439 1107.12 352.439C1116.78 357.101 1117.7 372.389 1114.55 375.959C1110.82 380.201 1105.15 389.861 1105.15 389.861C1105.15 389.861 1104.68 387.551 1105.36 383.813C1106.03 380.075 1102.79 380.075 1098.72 378.353C1094.65 376.631 1098.05 371.885 1094.48 368.987C1090.91 366.089 1077.8 367.811 1077.97 365.585C1073.14 363.821 1074.4 354.077 1074.4 353.573Z" fill="#523712"/>
<path d="M1109.81 475.204C1105.99 490.618 1064.45 498.598 1055 500.194C1055.38 493.516 1055.8 485.032 1056.05 474.322L1109.81 475.204Z" fill="#98BAF4"/>
<path d="M1100.69 480.245C1101.07 480.245 1109.93 478.943 1111.49 478.145C1113.04 477.347 1120.31 467.057 1115.56 464.453C1110.82 461.807 1098.09 472.349 1098.09 472.349L1100.69 480.245Z" fill="#FFB27D"/>
<path d="M1046.94 483.269C1046.94 483.269 1081.08 485.117 1104.01 480.203C1104.01 480.203 1104.6 473.567 1097.38 470.627C1097.38 470.627 1061.64 463.067 1053.07 465.167C1044.5 467.309 1046.94 483.269 1046.94 483.269Z" fill="#B0D0FF"/>
<path d="M1125.43 456.472C1118.33 465.04 1109.05 472.012 1098.85 473.65C1098.76 473.524 1095.74 468.946 1096.33 462.226C1096.58 459.118 1097.63 455.548 1100.06 451.768C1100.82 450.592 1101.49 449.248 1102.08 447.736C1107.67 433.498 1106.83 406.072 1106.83 406.072C1106.83 406.072 1130.51 408.55 1137.91 419.092C1142.4 425.518 1136.6 442.948 1125.43 456.472Z" fill="#B0D0FF"/>
<path d="M1083.81 395.867C1082.05 395.657 1080.91 395.447 1080.91 395.447C1078.9 394.901 1077.8 391.751 1077.26 387.635C1081 388.559 1082.72 391.457 1083.47 392.717C1083.77 393.221 1083.85 394.481 1083.81 395.867Z" fill="#E2915A"/>
<path d="M1074.24 402.251C1074.24 402.251 1066.05 388.727 1072.43 388.139C1078.81 387.551 1081.33 391.877 1082.26 393.431C1083.18 395.027 1082.01 402.167 1082.01 402.167L1074.24 402.251Z" fill="#FFB27D"/>
<path d="M1105.44 461.766C1105.19 463.488 1104.69 465.042 1104.06 466.47C1102.04 470.922 1098.85 473.652 1098.85 473.652C1077.6 464.076 1073.31 431.106 1072.56 413.004C1072.26 405.738 1072.56 400.866 1072.56 400.866C1082.13 397.674 1084.82 403.218 1084.82 403.218C1084.82 403.218 1096.16 430.14 1102 447.738C1104.27 454.416 1105.74 459.792 1105.44 461.766Z" fill="#B0D0FF"/>
<path d="M1125.43 456.474C1118.33 465.042 1109.05 472.014 1098.85 473.652C1077.59 464.076 1073.31 431.106 1072.55 413.004C1072.55 413.004 1082.59 449.502 1096.28 462.228C1098.76 464.538 1101.37 466.05 1104.01 466.47C1104.01 466.47 1121.27 461.598 1124.89 456.978C1125.18 456.642 1125.35 456.516 1125.43 456.474Z" fill="#98BAF4"/>
<path d="M738.277 562.902H672.295L652.429 513.51H718.327L738.277 562.902Z" fill="#2B478B"/>
<path d="M671.497 560.971H758.689V562.903H672.295L671.497 560.971Z" fill="#2B478B"/>
<path d="M688.927 538.207C688.423 536.485 689.431 535.057 691.153 535.057C692.875 535.057 694.681 536.485 695.185 538.207C695.689 539.929 694.681 541.357 692.959 541.357C691.237 541.357 689.431 539.929 688.927 538.207Z" fill="white"/>
<path d="M1273.86 718.343V718.763C1273.86 719.435 1273.23 719.981 1272.47 719.981H61.4046C60.6486 719.981 60.0186 719.435 60.0186 718.763V718.343C60.0186 717.671 60.6486 717.125 61.4046 717.125H1272.47C1273.23 717.125 1273.86 717.671 1273.86 718.343Z" fill="#2E3552"/>
<path d="M120.048 36.568C120.048 38.616 119.355 40.2053 117.968 41.336C116.603 42.4453 114.789 43 112.528 43H104.592V20.024H112.048C114.267 20.024 115.995 20.536 117.232 21.56C118.491 22.584 119.12 24.0453 119.12 25.944C119.12 27.0747 118.779 28.0987 118.096 29.016C117.435 29.9333 116.517 30.6053 115.344 31.032C116.901 31.416 118.075 32.088 118.864 33.048C119.653 34.008 120.048 35.1813 120.048 36.568ZM111.92 21.976H106.832V30.168H111.92C113.477 30.168 114.672 29.8053 115.504 29.08C116.357 28.3547 116.784 27.352 116.784 26.072C116.784 24.792 116.357 23.7893 115.504 23.064C114.672 22.3387 113.477 21.976 111.92 21.976ZM112.4 32.12H106.832V41.048H112.4C114.085 41.048 115.397 40.6533 116.336 39.864C117.275 39.0533 117.744 37.9333 117.744 36.504C117.744 35.1173 117.275 34.04 116.336 33.272C115.397 32.504 114.085 32.12 112.4 32.12ZM126.641 43H124.401V26.136H126.641V43ZM127.313 22.232C127.313 22.7227 127.142 23.128 126.801 23.448C126.481 23.768 126.043 23.928 125.489 23.928C124.977 23.928 124.55 23.768 124.209 23.448C123.867 23.128 123.697 22.7227 123.697 22.232C123.697 21.7413 123.867 21.3467 124.209 21.048C124.55 20.728 124.977 20.568 125.489 20.568C126.043 20.568 126.481 20.728 126.801 21.048C127.142 21.3467 127.313 21.7413 127.313 22.232ZM137.863 49.528C136.455 49.528 135.217 49.2827 134.151 48.792C133.084 48.3227 132.252 47.6293 131.655 46.712C131.079 45.816 130.759 44.7493 130.695 43.512H132.839C132.945 44.8773 133.425 45.9227 134.279 46.648C135.132 47.3733 136.316 47.736 137.831 47.736C139.516 47.736 140.785 47.2987 141.639 46.424C142.492 45.5707 142.919 44.3227 142.919 42.68V39.128C142.407 40.3013 141.66 41.2187 140.679 41.88C139.719 42.5413 138.609 42.872 137.351 42.872C135.943 42.872 134.705 42.52 133.639 41.816C132.572 41.112 131.74 40.12 131.143 38.84C130.545 37.5387 130.247 36.0347 130.247 34.328C130.247 32.6213 130.535 31.128 131.111 29.848C131.708 28.568 132.54 27.576 133.607 26.872C134.673 26.168 135.911 25.816 137.319 25.816C138.599 25.816 139.729 26.1573 140.711 26.84C141.713 27.5227 142.492 28.4827 143.047 29.72V26.136H145.127V42.616C145.127 44.8133 144.487 46.5093 143.207 47.704C141.948 48.92 140.167 49.528 137.863 49.528ZM132.487 34.328C132.487 36.3973 132.945 38.0187 133.863 39.192C134.801 40.3653 136.071 40.952 137.671 40.952C138.737 40.952 139.655 40.6853 140.423 40.152C141.212 39.6187 141.831 38.872 142.279 37.912C142.727 36.9307 142.951 35.7893 142.951 34.488C142.951 32.44 142.471 30.808 141.511 29.592C140.572 28.3547 139.292 27.736 137.671 27.736C136.071 27.736 134.801 28.3227 133.863 29.496C132.945 30.6693 132.487 32.28 132.487 34.328ZM158.89 26.136V44.6C158.89 45.6667 158.698 46.5627 158.314 47.288C157.93 48.0347 157.386 48.5893 156.682 48.952C155.999 49.3147 155.178 49.496 154.218 49.496C153.919 49.496 153.589 49.4747 153.226 49.432C152.863 49.4107 152.501 49.3253 152.138 49.176V47.128C152.437 47.2347 152.735 47.3093 153.034 47.352C153.311 47.416 153.631 47.448 153.994 47.448C154.805 47.448 155.455 47.2133 155.946 46.744C156.437 46.296 156.682 45.5707 156.682 44.568V26.136H158.89ZM159.626 22.232C159.626 22.7227 159.455 23.128 159.114 23.448C158.773 23.768 158.335 23.928 157.802 23.928C157.269 23.928 156.831 23.768 156.49 23.448C156.149 23.128 155.978 22.7227 155.978 22.232C155.978 21.7413 156.149 21.3467 156.49 21.048C156.831 20.728 157.269 20.568 157.802 20.568C158.335 20.568 158.773 20.728 159.114 21.048C159.455 21.3467 159.626 21.7413 159.626 22.232ZM170.497 43.32C169.345 43.32 168.278 43.1067 167.297 42.68C166.315 42.2533 165.462 41.6453 164.737 40.856C164.033 40.0667 163.478 39.1387 163.073 38.072C162.689 37.0053 162.497 35.832 162.497 34.552C162.497 33.2933 162.689 32.1307 163.073 31.064C163.478 29.9973 164.033 29.08 164.737 28.312C165.462 27.5227 166.315 26.9147 167.297 26.488C168.278 26.0613 169.345 25.848 170.497 25.848C171.67 25.848 172.747 26.0613 173.729 26.488C174.71 26.9147 175.553 27.5227 176.257 28.312C176.982 29.08 177.537 29.9973 177.921 31.064C178.326 32.1307 178.529 33.2933 178.529 34.552C178.529 35.832 178.326 37.0053 177.921 38.072C177.537 39.1387 176.982 40.0667 176.257 40.856C175.553 41.6453 174.71 42.2533 173.729 42.68C172.747 43.1067 171.67 43.32 170.497 43.32ZM170.497 41.4C171.606 41.4 172.587 41.1227 173.441 40.568C174.315 39.992 174.998 39.192 175.489 38.168C176.001 37.144 176.257 35.9387 176.257 34.552C176.257 33.1653 176.001 31.9707 175.489 30.968C174.998 29.9653 174.315 29.1867 173.441 28.632C172.587 28.0773 171.606 27.8 170.497 27.8C169.409 27.8 168.427 28.0773 167.553 28.632C166.699 29.1867 166.017 29.9653 165.505 30.968C165.014 31.9707 164.769 33.1653 164.769 34.552C164.769 35.9387 165.014 37.144 165.505 38.168C166.017 39.192 166.699 39.992 167.553 40.568C168.427 41.1227 169.409 41.4 170.497 41.4ZM192.935 36.216V26.136H195.143V43H193.063V39.96C192.636 40.9413 191.943 41.752 190.983 42.392C190.023 43.0107 188.924 43.32 187.687 43.32C186.556 43.32 185.553 43.1067 184.679 42.68C183.825 42.232 183.164 41.5493 182.695 40.632C182.225 39.6933 181.991 38.52 181.991 37.112V26.136H184.231V36.632C184.231 38.3387 184.615 39.5653 185.383 40.312C186.151 41.0373 187.121 41.4 188.295 41.4C189.191 41.4 189.98 41.176 190.663 40.728C191.367 40.28 191.921 39.6613 192.327 38.872C192.732 38.0827 192.935 37.1973 192.935 36.216ZM202.235 33.976V43H199.995V26.136H202.075V29.976C202.672 28.7387 203.547 27.7467 204.699 27C205.851 26.2533 207.12 25.88 208.507 25.88V28.216C207.333 28.1733 206.267 28.376 205.307 28.824C204.368 29.272 203.621 29.9333 203.067 30.808C202.512 31.6827 202.235 32.7387 202.235 33.976ZM213.485 33.176V43H211.245V26.136H213.325V29.304C213.879 28.28 214.637 27.448 215.597 26.808C216.578 26.1467 217.677 25.816 218.893 25.816C220.642 25.816 222.039 26.36 223.085 27.448C224.151 28.536 224.685 30.072 224.685 32.056V43H222.445V32.824C222.445 31.2027 222.082 29.9547 221.357 29.08C220.653 28.2053 219.607 27.768 218.22 27.768C217.346 27.768 216.546 28.0027 215.821 28.472C215.095 28.92 214.519 29.5493 214.093 30.36C213.687 31.1707 213.485 32.1093 213.485 33.176ZM236.025 43.32C234.446 43.32 233.059 42.9573 231.865 42.232C230.691 41.4853 229.774 40.44 229.113 39.096C228.473 37.752 228.153 36.1947 228.153 34.424C228.153 32.7813 228.483 31.32 229.145 30.04C229.827 28.7387 230.745 27.7147 231.897 26.968C233.07 26.2 234.403 25.816 235.897 25.816C237.091 25.816 238.169 26.0507 239.129 26.52C240.11 26.968 240.931 27.608 241.593 28.44C242.275 29.272 242.777 30.2533 243.097 31.384C243.438 32.4933 243.555 33.7307 243.449 35.096H229.369V33.56H241.113C241.027 31.6613 240.515 30.1893 239.577 29.144C238.659 28.0773 237.422 27.544 235.865 27.544C234.777 27.544 233.817 27.832 232.985 28.408C232.174 28.9627 231.534 29.752 231.065 30.776C230.595 31.8 230.361 33.016 230.361 34.424C230.361 35.8747 230.585 37.144 231.033 38.232C231.481 39.2987 232.121 40.12 232.953 40.696C233.806 41.272 234.819 41.56 235.993 41.56C237.401 41.56 238.563 41.1867 239.481 40.44C240.419 39.672 241.027 38.6267 241.305 37.304H243.513C243.129 39.16 242.265 40.632 240.921 41.72C239.598 42.7867 237.966 43.32 236.025 43.32ZM259.643 26.136L251.003 49.176H248.603L251.067 42.776L244.379 26.136H246.779L252.219 40.088L257.371 26.136H259.643ZM274.509 38.296C274.509 39.8533 273.922 41.08 272.749 41.976C271.575 42.872 269.943 43.32 267.853 43.32C265.762 43.32 264.098 42.8187 262.861 41.816C261.645 40.8133 260.951 39.448 260.781 37.72H262.925C262.989 38.9147 263.469 39.864 264.365 40.568C265.261 41.272 266.423 41.624 267.853 41.624C269.239 41.624 270.317 41.368 271.085 40.856C271.874 40.344 272.269 39.608 272.269 38.648C272.269 37.816 272.002 37.1867 271.469 36.76C270.935 36.312 270.029 35.96 268.749 35.704L266.317 35.224C264.717 34.9253 263.501 34.392 262.669 33.624C261.837 32.8347 261.421 31.832 261.421 30.616C261.421 29.6773 261.677 28.8453 262.189 28.12C262.722 27.3947 263.447 26.8293 264.365 26.424C265.303 26.0187 266.381 25.816 267.597 25.816C268.898 25.816 270.029 26.04 270.989 26.488C271.97 26.9147 272.749 27.5333 273.325 28.344C273.901 29.1547 274.221 30.1253 274.285 31.256H272.173C272.066 30.0827 271.607 29.176 270.797 28.536C269.986 27.8747 268.919 27.544 267.597 27.544C266.402 27.544 265.431 27.8 264.685 28.312C263.959 28.824 263.597 29.528 263.597 30.424C263.597 31.256 263.863 31.896 264.397 32.344C264.951 32.792 265.858 33.1333 267.117 33.368L269.645 33.848C271.309 34.168 272.535 34.6907 273.325 35.416C274.114 36.1413 274.509 37.1013 274.509 38.296ZM297.696 38.296C297.696 39.8533 297.11 41.08 295.936 41.976C294.763 42.872 293.131 43.32 291.04 43.32C288.95 43.32 287.286 42.8187 286.048 41.816C284.832 40.8133 284.139 39.448 283.968 37.72H286.112C286.176 38.9147 286.656 39.864 287.552 40.568C288.448 41.272 289.611 41.624 291.04 41.624C292.427 41.624 293.504 41.368 294.272 40.856C295.062 40.344 295.456 39.608 295.456 38.648C295.456 37.816 295.19 37.1867 294.656 36.76C294.123 36.312 293.216 35.96 291.936 35.704L289.504 35.224C287.904 34.9253 286.688 34.392 285.856 33.624C285.024 32.8347 284.608 31.832 284.608 30.616C284.608 29.6773 284.864 28.8453 285.376 28.12C285.91 27.3947 286.635 26.8293 287.552 26.424C288.491 26.0187 289.568 25.816 290.784 25.816C292.086 25.816 293.216 26.04 294.176 26.488C295.158 26.9147 295.936 27.5333 296.512 28.344C297.088 29.1547 297.408 30.1253 297.472 31.256H295.36C295.254 30.0827 294.795 29.176 293.984 28.536C293.174 27.8747 292.107 27.544 290.784 27.544C289.59 27.544 288.619 27.8 287.872 28.312C287.147 28.824 286.784 29.528 286.784 30.424C286.784 31.256 287.051 31.896 287.584 32.344C288.139 32.792 289.046 33.1333 290.304 33.368L292.832 33.848C294.496 34.168 295.723 34.6907 296.512 35.416C297.302 36.1413 297.696 37.1013 297.696 38.296ZM310.135 40.856V42.84C309.709 43.032 309.303 43.16 308.919 43.224C308.535 43.288 308.13 43.32 307.703 43.32C306.786 43.32 305.954 43.1493 305.207 42.808C304.461 42.4667 303.863 41.9227 303.415 41.176C302.989 40.4293 302.775 39.448 302.775 38.232V28.024H298.807V26.136H302.775V21.144H305.015V26.136H310.295V28.024H305.015V37.752C305.015 39.0747 305.303 39.992 305.879 40.504C306.477 41.016 307.234 41.272 308.151 41.272C308.514 41.272 308.845 41.24 309.143 41.176C309.463 41.112 309.794 41.0053 310.135 40.856ZM324.05 43V39.928C323.559 40.9733 322.823 41.8053 321.842 42.424C320.861 43.0213 319.709 43.32 318.386 43.32C316.637 43.32 315.239 42.872 314.194 41.976C313.149 41.0587 312.626 39.8427 312.626 38.328C312.626 36.6853 313.277 35.448 314.578 34.616C315.879 33.7627 317.81 33.336 320.37 33.336C320.882 33.336 321.383 33.3467 321.874 33.368C322.365 33.3893 323.015 33.4427 323.826 33.528V32.088C323.826 30.68 323.463 29.5813 322.738 28.792C322.034 28.0027 321.042 27.608 319.762 27.608C318.397 27.608 317.309 28.0133 316.498 28.824C315.687 29.6133 315.271 30.6907 315.25 32.056H313.202C313.223 30.7973 313.511 29.7093 314.066 28.792C314.621 27.8533 315.378 27.128 316.338 26.616C317.319 26.0827 318.45 25.816 319.73 25.816C321.714 25.816 323.25 26.36 324.338 27.448C325.426 28.536 325.97 30.0613 325.97 32.024V43H324.05ZM314.77 38.264C314.77 39.288 315.133 40.12 315.858 40.76C316.583 41.3787 317.533 41.688 318.706 41.688C320.285 41.688 321.533 41.2187 322.45 40.28C323.367 39.32 323.826 38.0507 323.826 36.472V34.968C323.101 34.904 322.471 34.8613 321.938 34.84C321.426 34.8187 320.935 34.808 320.466 34.808C318.567 34.808 317.138 35.096 316.178 35.672C315.239 36.2267 314.77 37.0907 314.77 38.264ZM332.922 33.976V43H330.682V26.136H332.762V29.976C333.359 28.7387 334.234 27.7467 335.386 27C336.538 26.2533 337.807 25.88 339.194 25.88V28.216C338.021 28.1733 336.954 28.376 335.994 28.824C335.055 29.272 334.309 29.9333 333.754 30.808C333.199 31.6827 332.922 32.7387 332.922 33.976ZM351.604 40.856V42.84C351.177 43.032 350.772 43.16 350.388 43.224C350.004 43.288 349.599 43.32 349.172 43.32C348.255 43.32 347.423 43.1493 346.676 42.808C345.929 42.4667 345.332 41.9227 344.884 41.176C344.457 40.4293 344.244 39.448 344.244 38.232V28.024H340.276V26.136H344.244V21.144H346.484V26.136H351.764V28.024H346.484V37.752C346.484 39.0747 346.772 39.992 347.348 40.504C347.945 41.016 348.703 41.272 349.62 41.272C349.983 41.272 350.313 41.24 350.612 41.176C350.932 41.112 351.263 41.0053 351.604 40.856ZM375.886 43L371.47 29.112L367.086 43H364.814L359.886 26.136H362.094L365.998 39.832L370.382 26.136H372.59L376.942 39.864L380.846 26.136H383.086L378.126 43H375.886ZM388.235 43H385.995V26.136H388.235V43ZM388.907 22.232C388.907 22.7227 388.736 23.128 388.395 23.448C388.075 23.768 387.637 23.928 387.083 23.928C386.571 23.928 386.144 23.768 385.803 23.448C385.461 23.128 385.291 22.7227 385.291 22.232C385.291 21.7413 385.461 21.3467 385.803 21.048C386.144 20.728 386.571 20.568 387.083 20.568C387.637 20.568 388.075 20.728 388.395 21.048C388.736 21.3467 388.907 21.7413 388.907 22.232ZM401.76 40.856V42.84C401.334 43.032 400.928 43.16 400.544 43.224C400.16 43.288 399.755 43.32 399.328 43.32C398.411 43.32 397.579 43.1493 396.832 42.808C396.086 42.4667 395.488 41.9227 395.04 41.176C394.614 40.4293 394.4 39.448 394.4 38.232V28.024H390.432V26.136H394.4V21.144H396.64V26.136H401.92V28.024H396.64V37.752C396.64 39.0747 396.928 39.992 397.504 40.504C398.102 41.016 398.859 41.272 399.776 41.272C400.139 41.272 400.47 41.24 400.768 41.176C401.088 41.112 401.419 41.0053 401.76 40.856ZM407.547 33.176V43H405.307V20.024H407.547V29.24C408.059 28.2373 408.784 27.416 409.723 26.776C410.662 26.136 411.739 25.816 412.955 25.816C414.704 25.816 416.102 26.36 417.147 27.448C418.214 28.536 418.747 30.072 418.747 32.056V43H416.507V32.824C416.507 31.2027 416.144 29.9547 415.419 29.08C414.715 28.2053 413.67 27.768 412.283 27.768C411.408 27.768 410.608 28.0027 409.883 28.472C409.158 28.92 408.582 29.5493 408.155 30.36C407.75 31.1707 407.547 32.1093 407.547 33.176ZM442.759 38.296C442.759 39.8533 442.172 41.08 440.999 41.976C439.825 42.872 438.193 43.32 436.103 43.32C434.012 43.32 432.348 42.8187 431.111 41.816C429.895 40.8133 429.201 39.448 429.031 37.72H431.175C431.239 38.9147 431.719 39.864 432.615 40.568C433.511 41.272 434.673 41.624 436.103 41.624C437.489 41.624 438.567 41.368 439.335 40.856C440.124 40.344 440.519 39.608 440.519 38.648C440.519 37.816 440.252 37.1867 439.719 36.76C439.185 36.312 438.279 35.96 436.999 35.704L434.567 35.224C432.967 34.9253 431.751 34.392 430.919 33.624C430.087 32.8347 429.671 31.832 429.671 30.616C429.671 29.6773 429.927 28.8453 430.439 28.12C430.972 27.3947 431.697 26.8293 432.615 26.424C433.553 26.0187 434.631 25.816 435.847 25.816C437.148 25.816 438.279 26.04 439.239 26.488C440.22 26.9147 440.999 27.5333 441.575 28.344C442.151 29.1547 442.471 30.1253 442.535 31.256H440.423C440.316 30.0827 439.857 29.176 439.047 28.536C438.236 27.8747 437.169 27.544 435.847 27.544C434.652 27.544 433.681 27.8 432.935 28.312C432.209 28.824 431.847 29.528 431.847 30.424C431.847 31.256 432.113 31.896 432.647 32.344C433.201 32.792 434.108 33.1333 435.367 33.368L437.895 33.848C439.559 34.168 440.785 34.6907 441.575 35.416C442.364 36.1413 442.759 37.1013 442.759 38.296ZM448.891 43H446.651V26.136H448.731V29.304C449.307 28.216 450.064 27.3627 451.003 26.744C451.963 26.1253 453.04 25.816 454.235 25.816C455.557 25.816 456.677 26.1573 457.595 26.84C458.533 27.5227 459.173 28.4827 459.515 29.72C460.027 28.5253 460.795 27.576 461.819 26.872C462.843 26.168 464.016 25.816 465.339 25.816C467.088 25.816 468.464 26.3707 469.467 27.48C470.491 28.568 471.003 30.0933 471.003 32.056V43H468.795V32.792C468.795 31.1707 468.432 29.9333 467.707 29.08C467.003 28.2053 465.968 27.768 464.603 27.768C463.749 27.768 462.971 28.0027 462.267 28.472C461.563 28.92 460.997 29.5493 460.571 30.36C460.165 31.1493 459.963 32.0667 459.963 33.112V43H457.723V32.792C457.723 31.1707 457.371 29.9333 456.667 29.08C455.963 28.2053 454.917 27.768 453.531 27.768C452.677 27.768 451.888 28.0027 451.163 28.472C450.459 28.92 449.904 29.5493 449.499 30.36C449.093 31.1493 448.891 32.0667 448.891 33.112V43ZM486.081 43V39.928C485.591 40.9733 484.855 41.8053 483.873 42.424C482.892 43.0213 481.74 43.32 480.417 43.32C478.668 43.32 477.271 42.872 476.225 41.976C475.18 41.0587 474.657 39.8427 474.657 38.328C474.657 36.6853 475.308 35.448 476.609 34.616C477.911 33.7627 479.841 33.336 482.401 33.336C482.913 33.336 483.415 33.3467 483.905 33.368C484.396 33.3893 485.047 33.4427 485.857 33.528V32.088C485.857 30.68 485.495 29.5813 484.769 28.792C484.065 28.0027 483.073 27.608 481.793 27.608C480.428 27.608 479.34 28.0133 478.529 28.824C477.719 29.6133 477.303 30.6907 477.281 32.056H475.233C475.255 30.7973 475.543 29.7093 476.097 28.792C476.652 27.8533 477.409 27.128 478.369 26.616C479.351 26.0827 480.481 25.816 481.761 25.816C483.745 25.816 485.281 26.36 486.369 27.448C487.457 28.536 488.001 30.0613 488.001 32.024V43H486.081ZM476.801 38.264C476.801 39.288 477.164 40.12 477.889 40.76C478.615 41.3787 479.564 41.688 480.737 41.688C482.316 41.688 483.564 41.2187 484.481 40.28C485.399 39.32 485.857 38.0507 485.857 36.472V34.968C485.132 34.904 484.503 34.8613 483.969 34.84C483.457 34.8187 482.967 34.808 482.497 34.808C480.599 34.808 479.169 35.096 478.209 35.672C477.271 36.2267 476.801 37.0907 476.801 38.264ZM494.953 43H492.713V20.024H494.953V43ZM502.047 43H499.807V20.024H502.047V43ZM526.196 38.296C526.196 39.8533 525.61 41.08 524.436 41.976C523.263 42.872 521.631 43.32 519.54 43.32C517.45 43.32 515.786 42.8187 514.548 41.816C513.332 40.8133 512.639 39.448 512.468 37.72H514.612C514.676 38.9147 515.156 39.864 516.052 40.568C516.948 41.272 518.111 41.624 519.54 41.624C520.927 41.624 522.004 41.368 522.772 40.856C523.562 40.344 523.956 39.608 523.956 38.648C523.956 37.816 523.69 37.1867 523.156 36.76C522.623 36.312 521.716 35.96 520.436 35.704L518.004 35.224C516.404 34.9253 515.188 34.392 514.356 33.624C513.524 32.8347 513.108 31.832 513.108 30.616C513.108 29.6773 513.364 28.8453 513.876 28.12C514.41 27.3947 515.135 26.8293 516.052 26.424C516.991 26.0187 518.068 25.816 519.284 25.816C520.586 25.816 521.716 26.04 522.676 26.488C523.658 26.9147 524.436 27.5333 525.012 28.344C525.588 29.1547 525.908 30.1253 525.972 31.256H523.86C523.754 30.0827 523.295 29.176 522.484 28.536C521.674 27.8747 520.607 27.544 519.284 27.544C518.09 27.544 517.119 27.8 516.372 28.312C515.647 28.824 515.284 29.528 515.284 30.424C515.284 31.256 515.551 31.896 516.084 32.344C516.639 32.792 517.546 33.1333 518.804 33.368L521.332 33.848C522.996 34.168 524.223 34.6907 525.012 35.416C525.802 36.1413 526.196 37.1013 526.196 38.296ZM538.635 40.856V42.84C538.209 43.032 537.803 43.16 537.419 43.224C537.035 43.288 536.63 43.32 536.203 43.32C535.286 43.32 534.454 43.1493 533.707 42.808C532.961 42.4667 532.363 41.9227 531.915 41.176C531.489 40.4293 531.275 39.448 531.275 38.232V28.024H527.307V26.136H531.275V21.144H533.515V26.136H538.795V28.024H533.515V37.752C533.515 39.0747 533.803 39.992 534.379 40.504C534.977 41.016 535.734 41.272 536.651 41.272C537.014 41.272 537.345 41.24 537.643 41.176C537.963 41.112 538.294 41.0053 538.635 40.856ZM548.244 43.32C546.665 43.32 545.278 42.9573 544.084 42.232C542.91 41.4853 541.993 40.44 541.332 39.096C540.692 37.752 540.372 36.1947 540.372 34.424C540.372 32.7813 540.702 31.32 541.364 30.04C542.046 28.7387 542.964 27.7147 544.116 26.968C545.289 26.2 546.622 25.816 548.116 25.816C549.31 25.816 550.388 26.0507 551.348 26.52C552.329 26.968 553.15 27.608 553.812 28.44C554.494 29.272 554.996 30.2533 555.316 31.384C555.657 32.4933 555.774 33.7307 555.668 35.096H541.588V33.56H553.332C553.246 31.6613 552.734 30.1893 551.796 29.144C550.878 28.0773 549.641 27.544 548.084 27.544C546.996 27.544 546.036 27.832 545.204 28.408C544.393 28.9627 543.753 29.752 543.284 30.776C542.814 31.8 542.58 33.016 542.58 34.424C542.58 35.8747 542.804 37.144 543.252 38.232C543.7 39.2987 544.34 40.12 545.172 40.696C546.025 41.272 547.038 41.56 548.212 41.56C549.62 41.56 550.782 41.1867 551.7 40.44C552.638 39.672 553.246 38.6267 553.524 37.304H555.732C555.348 39.16 554.484 40.632 553.14 41.72C551.817 42.7867 550.185 43.32 548.244 43.32ZM574.826 34.552C574.826 36.28 574.516 37.8053 573.898 39.128C573.3 40.4507 572.447 41.4853 571.338 42.232C570.25 42.9573 568.948 43.32 567.434 43.32C566.175 43.32 565.034 42.9893 564.01 42.328C562.986 41.6667 562.186 40.7387 561.61 39.544V49.176H559.37V26.136H561.45V29.784C562.026 28.5253 562.847 27.5547 563.914 26.872C564.98 26.168 566.154 25.816 567.434 25.816C568.927 25.816 570.228 26.1893 571.338 26.936C572.447 27.6613 573.3 28.6853 573.898 30.008C574.516 31.3093 574.826 32.824 574.826 34.552ZM572.554 34.552C572.554 32.4187 572.042 30.7547 571.018 29.56C570.015 28.3653 568.692 27.768 567.05 27.768C566.026 27.768 565.098 28.0347 564.266 28.568C563.434 29.1013 562.772 29.8693 562.282 30.872C561.812 31.8747 561.578 33.1013 561.578 34.552C561.578 35.9387 561.812 37.144 562.282 38.168C562.751 39.192 563.402 39.9813 564.234 40.536C565.066 41.0907 566.004 41.368 567.05 41.368C568.692 41.368 570.015 40.7707 571.018 39.576C572.042 38.3813 572.554 36.7067 572.554 34.552ZM591.04 38.296C591.04 39.8533 590.453 41.08 589.28 41.976C588.107 42.872 586.475 43.32 584.384 43.32C582.293 43.32 580.629 42.8187 579.392 41.816C578.176 40.8133 577.483 39.448 577.312 37.72H579.456C579.52 38.9147 580 39.864 580.896 40.568C581.792 41.272 582.955 41.624 584.384 41.624C585.771 41.624 586.848 41.368 587.616 40.856C588.405 40.344 588.8 39.608 588.8 38.648C588.8 37.816 588.533 37.1867 588 36.76C587.467 36.312 586.56 35.96 585.28 35.704L582.848 35.224C581.248 34.9253 580.032 34.392 579.2 33.624C578.368 32.8347 577.952 31.832 577.952 30.616C577.952 29.6773 578.208 28.8453 578.72 28.12C579.253 27.3947 579.979 26.8293 580.896 26.424C581.835 26.0187 582.912 25.816 584.128 25.816C585.429 25.816 586.56 26.04 587.52 26.488C588.501 26.9147 589.28 27.5333 589.856 28.344C590.432 29.1547 590.752 30.1253 590.816 31.256H588.704C588.597 30.0827 588.139 29.176 587.328 28.536C586.517 27.8747 585.451 27.544 584.128 27.544C582.933 27.544 581.963 27.8 581.216 28.312C580.491 28.824 580.128 29.528 580.128 30.424C580.128 31.256 580.395 31.896 580.928 32.344C581.483 32.792 582.389 33.1333 583.648 33.368L586.176 33.848C587.84 34.168 589.067 34.6907 589.856 35.416C590.645 36.1413 591.04 37.1013 591.04 38.296ZM597.364 37.24H595.668L595.22 20.024H597.844L597.364 37.24ZM598.58 41.176C598.58 41.752 598.377 42.232 597.972 42.616C597.588 42.9787 597.108 43.16 596.532 43.16C595.956 43.16 595.465 42.9787 595.06 42.616C594.676 42.232 594.484 41.752 594.484 41.176C594.484 40.5787 594.676 40.0987 595.06 39.736C595.465 39.352 595.956 39.16 596.532 39.16C597.129 39.16 597.62 39.352 598.004 39.736C598.388 40.0987 598.58 40.5787 598.58 41.176Z" fill="#334155"/>
</g>
<defs>
<clipPath id="clip0_761_8367">
<rect width="1344" height="730.8" fill="white" transform="translate(0 0.480469)"/>
</clipPath>
</defs>
</svg>
