<svg width="198" height="64" viewBox="0 0 198 64" fill="none" xmlns="http://www.w3.org/2000/svg">
<path fill-rule="evenodd" clip-rule="evenodd" d="M35.1239 13.6672C34.1963 13.7909 33.4543 14.1 32.8978 14.5947C32.3412 15.0894 31.8466 15.7078 31.5374 16.4498C31.1664 17.1918 30.9809 17.9957 30.8572 18.8614C30.7335 19.7271 30.6717 20.5928 30.6717 21.4585V42.5445C30.6717 43.4102 30.7335 44.2759 30.8572 45.1416C30.9809 46.0073 31.2282 46.8112 31.5374 47.5532C31.8466 48.2952 32.3412 48.9136 32.8978 49.4083C33.5161 49.903 34.2582 50.2121 35.1857 50.3358V57.0141C32.7123 56.9522 30.6717 56.4575 29.0021 55.5918C27.3326 54.7261 26.034 53.5513 24.9828 52.0672C23.9934 50.5831 23.2514 48.9136 22.8186 46.9348C22.3857 45.0179 22.2002 42.9155 22.2002 40.6894V23.6228C22.2002 21.3967 22.3857 19.2324 22.8186 17.2537C23.2514 15.2749 23.9934 13.5435 24.9828 12.0595C25.9722 10.5754 27.3326 9.40054 29.0021 8.53484C30.6717 7.66913 32.7123 7.17445 35.1857 7.05078V13.6672H35.1239Z" fill="#00A3DE" stroke="#0061AF" stroke-width="0.618234" stroke-miterlimit="22.9256"/>
<path fill-rule="evenodd" clip-rule="evenodd" d="M67.4015 56.0216H59.0537V40.3153L49.7783 7.85156H57.6314L67.4015 46.8699V56.0216Z" fill="#00A3DE" stroke="#0061AF" stroke-width="0.618048" stroke-miterlimit="22.9256"/>
<path fill-rule="evenodd" clip-rule="evenodd" d="M87.0042 33.7625L85.0255 31.9074C84.098 31.1036 83.2322 30.2997 82.3665 29.434C81.5008 28.5683 80.7588 27.6408 80.0786 26.6514C79.3984 25.662 78.8419 24.549 78.4709 23.3123C78.038 22.0755 77.8525 20.6533 77.8525 19.1074C77.8525 17.3142 78.1617 15.6446 78.7182 14.2224C79.2748 12.8002 80.1405 11.5016 81.1917 10.4504C82.2429 9.39922 83.4796 8.59535 84.9636 7.977C86.4477 7.35864 88.0554 6.98762 89.8487 6.92578V13.4804C89.2303 13.5422 88.7356 13.6659 88.3028 13.9751C87.8699 14.2224 87.4989 14.5934 87.1897 15.0263C86.8806 15.4591 86.6951 15.892 86.5095 16.4485C86.3859 17.005 86.324 17.5615 86.324 18.1181C86.324 18.9219 86.4477 19.664 86.6332 20.406C86.8187 21.0862 87.1279 21.7664 87.4989 22.3847C87.8699 23.0031 88.3028 23.5596 88.7975 24.1161C89.2922 24.6727 89.8487 25.1673 90.4052 25.7238C90.6525 25.9712 91.0236 26.2804 91.4564 26.7132C91.8893 27.1461 92.3221 27.5171 92.8168 27.9499L87.0042 33.7625Z" fill="#00A3DE" stroke="#0061AF" stroke-width="0.618048" stroke-miterlimit="22.9256"/>
<path fill-rule="evenodd" clip-rule="evenodd" d="M90.2197 56.9497C88.1791 56.826 86.3859 56.3932 84.9018 55.5275C83.4178 54.7236 82.181 53.6106 81.1298 52.312C80.1405 51.0135 79.3366 49.5294 78.8419 47.8599C78.2854 46.1903 77.9762 44.4589 77.8525 42.7275L86.4477 40.9961C86.5095 41.9855 86.5714 43.0367 86.695 44.026C86.8187 45.0154 87.0042 46.0048 87.3134 46.8086C87.5607 47.6744 87.9936 48.4164 88.4265 49.0347C88.9211 49.6531 89.5395 50.0859 90.2815 50.2715V56.9497H90.2197Z" fill="#00A3DE" stroke="#0061AF" stroke-width="0.618048" stroke-miterlimit="22.9256"/>
<path d="M127.632 7.85156H104.011V14.2825H127.632V7.85156Z" fill="#00A3DE" stroke="#0061AF" stroke-width="0.618048" stroke-miterlimit="22.9256"/>
<path d="M137.525 7.85156H128.991V56.0216H137.525V7.85156Z" fill="#00A3DE" stroke="#0061AF" stroke-width="0.618048" stroke-miterlimit="22.9256"/>
<path d="M158.239 7.85156H149.706V56.0216H158.239V7.85156Z" fill="#00A3DE" stroke="#0061AF" stroke-width="0.618048" stroke-miterlimit="22.9256"/>
<path fill-rule="evenodd" clip-rule="evenodd" d="M36.4222 6.98828C38.8956 7.05012 40.9362 7.5448 42.6058 8.47234C44.2753 9.33804 45.6357 10.5129 46.6251 11.997C47.6145 13.481 48.3565 15.2124 48.7893 17.1912C49.2222 19.1699 49.4077 21.2723 49.4077 23.5603V40.4414C49.4077 42.6675 49.2222 44.7699 48.7893 46.6868C48.3565 48.6656 47.6145 50.397 46.6251 51.881C45.6357 53.3651 44.2753 54.54 42.6058 55.4675C40.9362 56.395 38.8338 56.8897 36.3604 56.9516V50.2733C37.2879 50.1496 38.0299 49.8405 38.6483 49.4076C39.2048 48.9129 39.6995 48.2946 40.0087 47.6144C40.3178 46.8723 40.5652 46.0685 40.6889 45.2028C40.8125 44.3371 40.8744 43.4714 40.8744 42.6057V21.5197C40.8744 20.654 40.8125 19.7883 40.6889 18.9226C40.5652 18.0569 40.3178 17.253 40.0087 16.511C39.6995 15.769 39.2048 15.1506 38.6483 14.6559C38.0299 14.1612 37.2879 13.852 36.3604 13.7284V6.98828H36.4222Z" fill="#0061AF" stroke="#0061AF" stroke-width="0.618234" stroke-miterlimit="22.9256"/>
<path fill-rule="evenodd" clip-rule="evenodd" d="M64.001 27.5772L67.4019 7.85156H76.7391L67.4019 41.2429L64.001 27.5772Z" fill="#0061AF" stroke="#0061AF" stroke-width="0.618048" stroke-miterlimit="22.9256"/>
<path fill-rule="evenodd" clip-rule="evenodd" d="M93.7433 28.9375L94.7326 29.8032C95.9075 30.8544 97.0206 31.9674 98.0718 33.1423C99.123 34.2554 99.9887 35.4303 100.793 36.7288C101.535 37.9655 102.153 39.3259 102.586 40.81C103.019 42.294 103.266 43.9017 103.266 45.6332C103.266 47.3027 102.957 48.8486 102.338 50.209C101.72 51.5694 100.916 52.7443 99.865 53.7336C98.8138 54.723 97.5771 55.465 96.1549 56.0215C94.7326 56.5781 93.2486 56.8872 91.6408 56.9491V50.3327C92.2592 50.2708 92.7539 50.1472 93.1867 49.8998C93.6196 49.6525 93.9906 49.3433 94.2379 48.9723C94.4853 48.6013 94.6708 48.1066 94.7945 47.6119C94.9181 47.1172 94.98 46.5607 94.98 45.9423C94.98 44.953 94.7945 43.9636 94.4853 43.036C94.1761 42.1085 93.6814 41.181 93.1867 40.3153C92.6302 39.4496 92.0119 38.6457 91.3317 37.8418C90.6515 37.038 89.9094 36.2959 89.1674 35.6158L88.1162 34.6264L93.7433 28.9375Z" fill="#0061AF" stroke="#0061AF" stroke-width="0.618048" stroke-miterlimit="22.9256"/>
<path fill-rule="evenodd" clip-rule="evenodd" d="M91.2711 6.92578C92.9407 6.98762 94.4866 7.2968 95.847 7.91516C97.2692 8.53351 98.5059 9.39922 99.5571 10.4504C100.608 11.5016 101.412 12.7384 102.031 14.2224C102.649 15.6446 103.02 17.2523 103.082 18.9219V19.9113L94.4247 21.2717C94.4247 21.0243 94.4247 20.777 94.4247 20.4678C94.4247 20.2205 94.4247 19.9113 94.4247 19.6639C94.4247 19.0456 94.3011 18.4272 94.1774 17.747C94.0537 17.0668 93.8682 16.5103 93.6209 15.9538C93.3735 15.3973 93.0644 14.9026 92.6315 14.4698C92.2605 14.0369 91.7658 13.7896 91.1475 13.6041V6.92578H91.2711Z" fill="#0061AF" stroke="#0061AF" stroke-width="0.618048" stroke-miterlimit="22.9256"/>
<path d="M120.147 15.6445H111.552V56.0233H120.147V15.6445Z" fill="#0061AF" stroke="#0061AF" stroke-width="0.618048" stroke-miterlimit="22.9256"/>
<path d="M145.253 28.0742H138.884V34.1341H145.253V28.0742Z" fill="#0061AF" stroke="#0061AF" stroke-width="0.618048" stroke-miterlimit="22.9256"/>
<path d="M148.345 7.85156H138.884V13.8496H148.345V7.85156Z" fill="#0061AF" stroke="#0061AF" stroke-width="0.618048" stroke-miterlimit="22.9256"/>
<path d="M148.345 50.0859H138.884V56.084H148.345V50.0859Z" fill="#0061AF" stroke="#0061AF" stroke-width="0.618048" stroke-miterlimit="22.9256"/>
<path fill-rule="evenodd" clip-rule="evenodd" d="M159.599 28.1344H162.258C163.185 28.1344 163.927 27.887 164.484 27.3923C165.04 26.8976 165.473 26.2174 165.782 25.5372C166.091 24.7952 166.277 24.0532 166.401 23.1875C166.524 22.3836 166.524 21.7034 166.524 21.0851C166.524 20.4667 166.462 19.7865 166.401 18.9827C166.339 18.1788 166.153 17.4368 165.844 16.7566C165.597 16.0764 165.164 15.458 164.669 14.9633C164.174 14.4686 163.494 14.2213 162.629 14.2213H159.599V7.91406H160.773C163.061 7.91406 165.04 8.16141 166.833 8.6561C168.627 9.15078 170.111 9.8928 171.347 10.944C172.584 11.9952 173.512 13.2938 174.13 14.8397C174.748 16.4474 175.058 18.3025 175.058 20.5286C175.058 21.6416 174.996 22.7546 174.934 23.8677C174.872 24.9807 174.625 26.0938 174.192 27.145C173.821 28.1962 173.203 29.1856 172.399 30.1131C171.595 31.0406 170.482 31.7827 168.998 32.4629L175.861 56.0841H167.143L161.516 33.6377H159.599V28.1344Z" fill="#0061AF" stroke="#0061AF" stroke-width="0.618048" stroke-miterlimit="22.9256"/>
</svg>
